<svg xmlns="http://www.w3.org/2000/svg" viewBox="0 0 404 404"><defs><style>.cls-1{fill:#fff;}</style></defs><title>btn_models</title><g id="Layer_2" data-name="Layer 2"><g id="Layer_1-2" data-name="Layer 1"><path class="cls-1" d="M134.1,241.7a5.7,5.7,0,0,1-.6-2.9l-.1-14.8q-.1-1.9-.1-6.3-.2-9.3-.2-21v-5.1q-.9,4.8-3.1,13.5-2.2,9-3.1,14.8v.6l-.3,1.9a19,19,0,0,1-1,4.5q-1,2.4-3.1,2.4-3.6,0-3.6-9.4a64.43,64.43,0,0,0-1-11.15q-1.05-5.95-3.35-14.65l-3-11.2-.2,12q0,5.4.5,20.6l.2,6.8.2,13.7a5.6,5.6,0,0,1-1.5,3.8,3.71,3.71,0,0,1-3.45-1.55,8.8,8.8,0,0,1-1-4.55l.2-8.2q.3-5.4.3-8.1l-.2-19.3-.2-19.4q0-4.3.2-12.9l2.7-1.6a2.57,2.57,0,0,1,1.6,1.15,17.13,17.13,0,0,1,1.8,3.35q2.5,6.2,6.5,24.8a41.75,41.75,0,0,1,.8,4.3q1.2,5.8,1.7,8.8l1.5,7.7.7-3.3,1.9-8.2q1.6-7.2,2.65-12.6t2.05-11.7q1.1-7.5,1.4-12.5v-.6a3,3,0,0,1,1.2-2,3.88,3.88,0,0,1,2.4-.75,2.09,2.09,0,0,1,1.6.8,2.56,2.56,0,0,1,.7,1.7q0,12,.9,35.9.5,11.7.7,22.9.2,5.1.2,12.9a7.22,7.22,0,0,1-1.2,4.1,3.33,3.33,0,0,1-2.7,1.8A1.81,1.81,0,0,1,134.1,241.7Z"/><path class="cls-1" d="M160.4,241.1a15.24,15.24,0,0,1-3.8-4.9q-2.9-5.4-4.3-14.8-1-6.5-1.5-15l-.1-5.3v-5.4q-.1-2.6-.1-6.3a99.07,99.07,0,0,1,.5-10.6,39.56,39.56,0,0,1,2-9.5,10.87,10.87,0,0,1,4.6-5.8,8.81,8.81,0,0,1,3.6-.8,9.9,9.9,0,0,1,8.4,4.2,26,26,0,0,1,4.5,10.5,70.23,70.23,0,0,1,1.8,13.4q.4,7.1.4,13.4v5.7q0,1.7-.5,6.4a59.81,59.81,0,0,0-.4,6.3v.4a31.82,31.82,0,0,0-.6,6.6,15.58,15.58,0,0,1-1.2,5.8,14.3,14.3,0,0,1-3.4,5.1,6.64,6.64,0,0,1-5,2.4A7.54,7.54,0,0,1,160.4,241.1Zm8.5-7.4a35.9,35.9,0,0,0,1.75-8q.55-4.75.95-10.75.2-2.6.2-6.7l-.1-9.2q-.2-5.4-1.2-13.5a45.5,45.5,0,0,0-3-12.2,10.67,10.67,0,0,0-2.5-3.9,4.64,4.64,0,0,0-3.2-1.4q-2.5,0-3.7,3.9a37.13,37.13,0,0,0-2,9q-.6,5.3-.7,10.1l-.1,3.3q-.1,1.4-.1,3.8v.4a120,120,0,0,0,1.4,16.5q1.6,13.3,4.7,18.9,2,3.5,4.2,3.5Q167.5,237.4,168.9,233.7Z"/><path class="cls-1" d="M189.35,239.4a2.8,2.8,0,0,1-1.45-2.5q2.2-2.2,2.2-11.7,0-5.7-.9-16.6-1-10.4-1-16.4l.2-5.5q.1-2.4.1-5.5a32.64,32.64,0,0,0-1-7.1,29,29,0,0,1-1.2-6.3q0-3.5,7.7-3.5h1.5a14.32,14.32,0,0,1,9.4,3.3,21.53,21.53,0,0,1,5.4,8.1,48.33,48.33,0,0,1,2.6,10,87.9,87.9,0,0,1,.6,8.8v7.9a1.76,1.76,0,0,0-.2.8,5.21,5.21,0,0,0,.1,1.2,4.34,4.34,0,0,1,.1,1,37.5,37.5,0,0,1-1,7.65,58.17,58.17,0,0,1-2.75,9q-4.5,11-10.1,15.6a11,11,0,0,1-6.9,2.6A6.4,6.4,0,0,1,189.35,239.4Zm12.05-11.55a35.66,35.66,0,0,0,4.3-9.65,74.19,74.19,0,0,0,2.7-19.8,77.06,77.06,0,0,0-1-11.8,27,27,0,0,0-4.7-11.2,12,12,0,0,0-4.3-3.75,12.62,12.62,0,0,0-5.9-1.35v.1q0,9,1.2,27.2t1.2,27.4v9.5A21.06,21.06,0,0,0,201.4,227.85Z"/><path class="cls-1" d="M228,240.2q-1.7-.5-1.7-2.8V179.3a32.25,32.25,0,0,0-.6-5.1,24.08,24.08,0,0,1-.7-5.1v-.3a22.46,22.46,0,0,1,2.5-3.6,22.64,22.64,0,0,0,3.7-.4,20.17,20.17,0,0,1,3.7-.4,5.73,5.73,0,0,1,3.1,1,2.7,2.7,0,0,1,1.5,2.25q0,3-4.6,3h-1.4a8.77,8.77,0,0,0-1.4-.1,3.44,3.44,0,0,0-1.1.1q0,3.4.4,8.2l.2,2.8.2,5.5q0,1.9-.3,5.8l-.2,5.6,1.4-.3a12,12,0,0,1,3.3-.6,2.86,2.86,0,0,1,2,.85,2.62,2.62,0,0,1,.9,2,3.38,3.38,0,0,1-.75,2.15,2.28,2.28,0,0,1-1.85,1l-1.2-.1h-1.3a2.66,2.66,0,0,0-2.1.7V235l5.6-.3q5.7,0,5.7,2.6v.4a4.43,4.43,0,0,1-2.2,2,10.69,10.69,0,0,1-3.1,1l-3.3.1h-3.1A9.82,9.82,0,0,1,228,240.2Z"/><path class="cls-1" d="M255.65,240.25a2.94,2.94,0,0,1-1-2.25,7.72,7.72,0,0,1,.4-2.2,11,11,0,0,0,.3-2.1q0-8.9-1-34.2-1-21.6-1-34.1a1.75,1.75,0,0,1,.7-1.45,2.67,2.67,0,0,1,1.7-.55,3,3,0,0,1,2.1.85,2.72,2.72,0,0,1,.9,2.05q0,6,.6,18,.5,13.3.5,18l.1,1.2v2.4q.3,8.7.3,26v2.6h7.7q2.1,1.5,2.1,3a2.86,2.86,0,0,1-.75,1.95,2.27,2.27,0,0,1-1.75.85,5.56,5.56,0,0,1-1.1-.2l-.4-.1a12.87,12.87,0,0,1-1.9.1h-1.7a11.61,11.61,0,0,0-1.6-.1,3.63,3.63,0,0,1-5.15.25Z"/><path class="cls-1" d="M277.9,241q-1.6-.9-1.6-2.1a3,3,0,0,1,.6-2,2.05,2.05,0,0,1,1.7-.75,8.32,8.32,0,0,1,2.9.8,11.23,11.23,0,0,0,2.6.8,4.66,4.66,0,0,0,3.45-1.65A11.62,11.62,0,0,0,290,231.8a26.9,26.9,0,0,0,1.8-9,33.1,33.1,0,0,0-1.35-9,50.86,50.86,0,0,0-3.65-9.25l-1.6-3.2q-2.5-5-3.85-7.9a44.8,44.8,0,0,1-2.35-6.3,31.12,31.12,0,0,1-1.5-9.3,18.51,18.51,0,0,1,1.25-6.8,13.73,13.73,0,0,1,3.75-5.4,8.6,8.6,0,0,1,6.2-2.4,6.58,6.58,0,0,1,3.5,1,5.9,5.9,0,0,1,2.4,2.65l-1.7,2.1a6.34,6.34,0,0,1-3.9-1,4.82,4.82,0,0,0-3.15,1.75,10.74,10.74,0,0,0-2,3.55,12.55,12.55,0,0,0-.6,3.8,30.12,30.12,0,0,0,1,7.75A41.21,41.21,0,0,0,287,192.3l7,14a38.52,38.52,0,0,1,2.7,8.1,41.42,41.42,0,0,1,1,9,25.28,25.28,0,0,1-3.2,12.4,13.43,13.43,0,0,1-4.4,4.75,10.81,10.81,0,0,1-6,1.75A13.74,13.74,0,0,1,277.9,241Z"/><polygon class="cls-1" points="173.71 49 230.29 49 258.58 0 145.42 0 173.71 49"/><polygon class="cls-1" points="230.29 355 173.71 355 145.42 404 258.58 404 230.29 355"/><polygon class="cls-1" points="355 173.71 355 230.29 404 258.58 404 145.42 355 173.71"/><polygon class="cls-1" points="49 230.29 49 173.71 0 145.42 0 258.58 49 230.29"/><polygon class="cls-1" points="290.18 73.81 330.19 113.82 384.84 99.17 304.83 19.16 290.18 73.81"/><polygon class="cls-1" points="113.82 330.19 73.81 290.18 19.16 304.83 99.17 384.84 113.82 330.19"/><polygon class="cls-1" points="330.19 290.18 290.18 330.19 304.83 384.84 384.84 304.83 330.19 290.18"/><polygon class="cls-1" points="73.81 113.82 113.82 73.81 99.17 19.16 19.16 99.17 73.81 113.82"/><polygon class="cls-1" points="288.31 261.37 261.37 288.31 271.23 325.1 325.1 271.23 288.31 261.37"/><polygon class="cls-1" points="115.69 142.63 142.63 115.69 132.77 78.9 78.9 132.77 115.69 142.63"/><polygon class="cls-1" points="142.63 288.31 115.69 261.37 78.9 271.23 132.77 325.1 142.63 288.31"/><polygon class="cls-1" points="261.37 115.69 288.31 142.63 325.1 132.77 271.23 78.9 261.37 115.69"/></g></g></svg>