<svg xmlns="http://www.w3.org/2000/svg" viewBox="0 0 404 404"><defs><style>.cls-1{font-size:100px;font-family:AmaticSC-Bold, Amatic SC;font-weight:700;}.cls-1,.cls-2{fill:#fff;}</style></defs><title>btn_models</title><g id="Layer_2" data-name="Layer 2"><g id="Layer_1-2" data-name="Layer 1"><text class="cls-1" transform="translate(100.9 240.1)">MODELS</text><polygon class="cls-2" points="173.71 49 230.29 49 258.58 0 145.42 0 173.71 49"/><polygon class="cls-2" points="230.29 355 173.71 355 145.42 404 258.58 404 230.29 355"/><polygon class="cls-2" points="355 173.71 355 230.29 404 258.58 404 145.42 355 173.71"/><polygon class="cls-2" points="49 230.29 49 173.71 0 145.42 0 258.58 49 230.29"/><polygon class="cls-2" points="290.18 73.81 330.19 113.82 384.84 99.17 304.83 19.16 290.18 73.81"/><polygon class="cls-2" points="113.82 330.19 73.81 290.18 19.16 304.83 99.17 384.84 113.82 330.19"/><polygon class="cls-2" points="330.19 290.18 290.18 330.19 304.83 384.84 384.84 304.83 330.19 290.18"/><polygon class="cls-2" points="73.81 113.82 113.82 73.81 99.17 19.16 19.16 99.17 73.81 113.82"/><polygon class="cls-2" points="288.31 261.37 261.37 288.31 271.23 325.1 325.1 271.23 288.31 261.37"/><polygon class="cls-2" points="115.69 142.63 142.63 115.69 132.77 78.9 78.9 132.77 115.69 142.63"/><polygon class="cls-2" points="142.63 288.31 115.69 261.37 78.9 271.23 132.77 325.1 142.63 288.31"/><polygon class="cls-2" points="261.37 115.69 288.31 142.63 325.1 132.77 271.23 78.9 261.37 115.69"/></g></g></svg>