<svg xmlns="http://www.w3.org/2000/svg" viewBox="0 0 404 404"><defs><style>.cls-1{font-size:100px;font-family:AmaticSC-Bold, Amatic SC;font-weight:700;}.cls-1,.cls-2{fill:#fff;}</style></defs><title>btn_graphics</title><g id="Layer_2" data-name="Layer 2"><g id="Layer_1-2" data-name="Layer 1"><text class="cls-1" transform="translate(75.55 240.1)">GRAPHICS</text><polygon class="cls-2" points="173.71 49 230.29 49 258.58 0 145.42 0 173.71 49"/><polygon class="cls-2" points="230.29 355 173.71 355 145.42 404 258.58 404 230.29 355"/><polygon class="cls-2" points="355 173.71 355 230.29 404 258.58 404 145.42 355 173.71"/><polygon class="cls-2" points="49 230.29 49 173.71 0 145.42 0 258.58 49 230.29"/><polygon class="cls-2" points="288.31 261.37 261.37 288.31 271.23 325.1 325.1 271.23 288.31 261.37"/><polygon class="cls-2" points="115.69 142.63 142.63 115.69 132.77 78.9 78.9 132.77 115.69 142.63"/><polygon class="cls-2" points="142.63 288.31 115.69 261.37 78.9 271.23 132.77 325.1 142.63 288.31"/><polygon class="cls-2" points="261.37 115.69 288.31 142.63 325.1 132.77 271.23 78.9 261.37 115.69"/></g></g></svg>