<svg xmlns="http://www.w3.org/2000/svg" viewBox="0 0 404 404"><defs><style>.cls-1{fill:#fff;}</style></defs><title>btn_graphics</title><g id="Layer_2" data-name="Layer 2"><g id="Layer_1-2" data-name="Layer 1"><path class="cls-1" d="M88.45,239.4q-2.9-2.4-5.3-8.2a46.87,46.87,0,0,1-2.4-10.7,85.5,85.5,0,0,1-.7-10.6q-.1-1.3-.1-4.5V198q0-4.3.3-10.3a72.79,72.79,0,0,1,1.6-10.4,26.58,26.58,0,0,1,3.8-8.8,13.67,13.67,0,0,1,6.7-5.4,17.5,17.5,0,0,1,4.7-.7q4.2,0,4.2,2.8a2.2,2.2,0,0,1-.75,1.75,2.87,2.87,0,0,1-2,.65,5.82,5.82,0,0,1-1.4-.3l-1.4-.2a5.45,5.45,0,0,0-3.4,1.15,8.59,8.59,0,0,0-2.5,3.35,35.55,35.55,0,0,0-3.1,10.5,91,91,0,0,0-1.2,12.2q-.2,4.5-.2,9.5v2.7q-.1,1.4-.1,3.5a98.13,98.13,0,0,0,.5,10A30.72,30.72,0,0,0,88,230a11.06,11.06,0,0,0,5.2,6.6,8.15,8.15,0,0,0,4.2,1q4.4,0,7.4-4.2-.1-3.5-.5-6.85a11.47,11.47,0,0,0-1.2-4.55l-.45,0-1,.15-2.4.2q-3.4,0-3.4-2.9a2,2,0,0,1,1-1.6,6.73,6.73,0,0,1,2.7-1,20.9,20.9,0,0,1,5-.7,3.62,3.62,0,0,1,3.1,1.5,6.26,6.26,0,0,1,1.1,3.8,55.21,55.21,0,0,0,1,9,53.67,53.67,0,0,1,1,8.9,2.8,2.8,0,0,1-.7,1.9,2.18,2.18,0,0,1-1.7.8,3.37,3.37,0,0,1-3.4-2.1v-.1l-2.2,1.1a10.87,10.87,0,0,1-5.1,1.7A13,13,0,0,1,88.45,239.4Z"/><path class="cls-1" d="M133.45,238.4v-.3a70.73,70.73,0,0,0-1.8-11.8q-1.5-6.5-4.4-15.7-2.2-6.9-3.7-12.4v39.4a4,4,0,0,1-.55,2.35,2.53,2.53,0,0,1-2.15.75,2.47,2.47,0,0,1-1.9-.75,2.74,2.74,0,0,1-.7-1.95v-.8l.2-29.4q.2-13,.2-29.3V166.2a2.16,2.16,0,0,1,.5-1.65,3.35,3.35,0,0,1,2.1-.45,11,11,0,0,1,4.6,1,10.55,10.55,0,0,1,3.6,2.65,17.05,17.05,0,0,1,4,8.4,23.72,23.72,0,0,1,.4,4.6,24.33,24.33,0,0,1-.25,3.3q-.25,1.8-.35,2.3a25.23,25.23,0,0,1-.9,3q-.7,2-.9,2.6l-1.2,2.8-1,2.6a53.23,53.23,0,0,0,1.25,9.1q1.15,5.5,2.55,10.2,1,3.3,3.6,11l2.9,8.8v.2a12.13,12.13,0,0,1-.3,2.9,1.87,1.87,0,0,1-2.1,1.6Q135.25,241.1,133.45,238.4Zm-6.7-48.6,1.5-8.6a7.64,7.64,0,0,0,.1-1.4,24.52,24.52,0,0,0-1.1-6.7,10.49,10.49,0,0,0-1.55-3,3,3,0,0,0-1.95-1.35l-.2,10q-.3,6.7-.3,10.4,0,3.5.1,4.6A49,49,0,0,0,126.75,189.8Z"/><path class="cls-1" d="M165,239.5a2.42,2.42,0,0,1-.75-2V224.4a14.21,14.21,0,0,0-4.9-1.6,53.5,53.5,0,0,0-6.8-.9A17,17,0,0,0,151,227l-.4,2q-.1.7-.6,3.1a35,35,0,0,1-1.1,4.15,14.82,14.82,0,0,1-1.2,2.75q-3.8,0-4.4-2,1.1-1.6,2.5-9.4l3.3-18.3q2.2-13,4-22.2a127.09,127.09,0,0,1,4-15.4q2.3-6.9,4.4-6.9a5.4,5.4,0,0,1,3.2.8q0,4,1.9,19.3,2,15,2,20.5a148,148,0,0,0,1.1,15.2q1,10.1,1,16.1,0,3.4-3.3,3.4A3.75,3.75,0,0,1,165,239.5Zm-.85-21.2q-.3-4.4-1-10.9-2.3-22.6-2.3-27.7v-.8q-1,1-2.75,9t-3.25,17.25a121.2,121.2,0,0,0-1.6,12.2,32.25,32.25,0,0,0,8.9,1.2A8.54,8.54,0,0,0,164.15,218.3Z"/><path class="cls-1" d="M184.2,239.65a4.05,4.05,0,0,1-.65-2.35l.2-16.8q.3-12.2.3-18.9,0-23.3-2.6-35.7a4.43,4.43,0,0,1,3.8-2.3,14,14,0,0,1,6.75,1.65,14.77,14.77,0,0,1,5,4.45,22.77,22.77,0,0,1,3.9,13,27.66,27.66,0,0,1-3.2,13.4,22.5,22.5,0,0,1-9.3,9.2l.2,10.1.2,5.3q.1,1.7.1,4.9.3,6.7.3,10.9a5,5,0,0,1-.8,3,2.89,2.89,0,0,1-2.5,1.1A2,2,0,0,1,184.2,239.65Zm9.8-46.9a21.8,21.8,0,0,0,1.85-9.15v-.1a42.53,42.53,0,0,0-.5-5.8,7.71,7.71,0,0,0-1.1-2.4c-.53-.8-.83-1.27-.9-1.4a17.3,17.3,0,0,0-3.7-3.1l-2.6-1.9q0,5.1.6,15.8l.6,15.8A25.3,25.3,0,0,0,194,192.75Z"/><path class="cls-1" d="M226.9,240.65a4.05,4.05,0,0,1-.65-2.35q0-20.9-.8-35.3a24.2,24.2,0,0,0-3.4-.4,17.79,17.79,0,0,0-5.9.7q0,5.6.9,16.9.8,12,.8,17a3.14,3.14,0,0,1-.6,1.85,1.78,1.78,0,0,1-1.5.85q-1.3,0-2.4-4.6-1.6-6.8-2.6-28.5-.7-14.7-.7-31.6-.1-3.1-.1-8.8,0-1.8,1.7-1.8a4.75,4.75,0,0,1,2,.5,4.56,4.56,0,0,1,1.55,1.1,61.15,61.15,0,0,0-.4,7.5q0,4.2.4,10.2.3,6.9.3,10.4v1.8a15.44,15.44,0,0,0-.1,1.9,21.76,21.76,0,0,0,.2,2.6c.4,0,1.07,0,2-.1s1.87-.17,2.8-.3q3.3-.3,4.9-.3,0-8.7-.2-16.1l-.2-16.7v-2.7a5.57,5.57,0,0,1,2.3.45,3.63,3.63,0,0,1,1.5,1.15,7,7,0,0,1,1.1,3.8v2.3q0,8.6,1,32.9.9,22,.9,33a4,4,0,0,1-.85,2.5,2.53,2.53,0,0,1-2,1.1A2.21,2.21,0,0,1,226.9,240.65Z"/><path class="cls-1" d="M242,237q0-2.4,3-2.4h1.2a3.67,3.67,0,0,0,.9.1,1.3,1.3,0,0,0,1.15-.5,3.33,3.33,0,0,0,.35-1.8q0-8.5-1-23.2-.9-15.3-.9-23.1,0-2.8.1-5.1l.1-5.1a41.82,41.82,0,0,0-.3-5.5,6.66,6.66,0,0,1-2.3.4q-2.3,0-2.3-2.4a2.53,2.53,0,0,1,1.45-2.1,10.5,10.5,0,0,1,3.75-1.3,44.52,44.52,0,0,1,7.1-.7,2.89,2.89,0,0,1,2,.8,2.53,2.53,0,0,1,.85,1.9,2.92,2.92,0,0,1-.65,1.9,2,2,0,0,1-1.65.8,4.17,4.17,0,0,1-1-.1h-.8a2,2,0,0,0-1.45.45,2.33,2.33,0,0,0-.45,1.65q0,10.6,1.3,29.2,1.2,19.5,1.2,29.3V234a15.12,15.12,0,0,1,2-.1q4.2,0,4.2,3.5v.6l-2.5,1.7-.6.05q-.5.05-2,0-3.4.2-4.2.2Q242,240,242,237Z"/><path class="cls-1" d="M278.7,240.4a13,13,0,0,1-4.05-3.5,22.79,22.79,0,0,1-2.7-5.35,37.9,37.9,0,0,1-1.8-6.75,101.93,101.93,0,0,1-1.6-15.5q-.1-2.3-.1-7.9v-6.3q.1-2.7.1-5.6a48.3,48.3,0,0,1,.7-9.3,15.75,15.75,0,0,1-.3-3.1,12,12,0,0,1,4.5-9.7,17.36,17.36,0,0,1,11.4-3.7,8.77,8.77,0,0,1,4.8,1.4,4.09,4.09,0,0,1,2.2,3.5,1.9,1.9,0,0,1-.8,1.6,3.24,3.24,0,0,1-2,.6,8.53,8.53,0,0,1-2.15-.3,2.1,2.1,0,0,1-1.45-.9h-1.3v-.2a11.28,11.28,0,0,0-6.2,1.6,8.36,8.36,0,0,0-2.8,4.3,12.68,12.68,0,0,0-.6,2.8,26.43,26.43,0,0,0-.2,3.1,31.93,31.93,0,0,0-.1,3.2l.2,3.5.1,3.4a18.23,18.23,0,0,1-.4,3.5,21,21,0,0,0-.5,3.5v2.4q0,3.9.3,10.7a60.28,60.28,0,0,0,1.3,11.4,22.63,22.63,0,0,0,3.4,9,7.36,7.36,0,0,0,6.5,3.8,7.78,7.78,0,0,0,4.2-1.8q2.7-1.8,3.8-1.8a4.25,4.25,0,0,1,2.9,1.5,6.59,6.59,0,0,1-2.8,5.7,14.16,14.16,0,0,1-6.2,2.3q-2,.2-3.2.2A10.46,10.46,0,0,1,278.7,240.4Z"/><path class="cls-1" d="M303.25,241q-1.6-.9-1.6-2.1a3,3,0,0,1,.6-2,2.05,2.05,0,0,1,1.7-.75,8.32,8.32,0,0,1,2.9.8,11.23,11.23,0,0,0,2.6.8,4.66,4.66,0,0,0,3.45-1.65,11.62,11.62,0,0,0,2.45-4.35,26.9,26.9,0,0,0,1.8-9,33.1,33.1,0,0,0-1.35-9,50.86,50.86,0,0,0-3.65-9.25l-1.6-3.2q-2.5-5-3.85-7.9a44.8,44.8,0,0,1-2.35-6.3,31.12,31.12,0,0,1-1.5-9.3,18.51,18.51,0,0,1,1.25-6.8,13.73,13.73,0,0,1,3.75-5.4,8.6,8.6,0,0,1,6.2-2.4,6.58,6.58,0,0,1,3.5,1,5.9,5.9,0,0,1,2.4,2.65l-1.7,2.1a6.34,6.34,0,0,1-3.9-1,4.82,4.82,0,0,0-3.15,1.75,10.74,10.74,0,0,0-2,3.55,12.55,12.55,0,0,0-.6,3.8,30.12,30.12,0,0,0,1,7.75,41.21,41.21,0,0,0,2.75,7.45l7,14a38.52,38.52,0,0,1,2.7,8.1,41.42,41.42,0,0,1,1,9,25.28,25.28,0,0,1-3.2,12.4,13.43,13.43,0,0,1-4.4,4.75,10.81,10.81,0,0,1-6,1.75A13.74,13.74,0,0,1,303.25,241Z"/><polygon class="cls-1" points="173.71 49 230.29 49 258.58 0 145.42 0 173.71 49"/><polygon class="cls-1" points="230.29 355 173.71 355 145.42 404 258.58 404 230.29 355"/><polygon class="cls-1" points="355 173.71 355 230.29 404 258.58 404 145.42 355 173.71"/><polygon class="cls-1" points="49 230.29 49 173.71 0 145.42 0 258.58 49 230.29"/><polygon class="cls-1" points="288.31 261.37 261.37 288.31 271.23 325.1 325.1 271.23 288.31 261.37"/><polygon class="cls-1" points="115.69 142.63 142.63 115.69 132.77 78.9 78.9 132.77 115.69 142.63"/><polygon class="cls-1" points="142.63 288.31 115.69 261.37 78.9 271.23 132.77 325.1 142.63 288.31"/><polygon class="cls-1" points="261.37 115.69 288.31 142.63 325.1 132.77 271.23 78.9 261.37 115.69"/></g></g></svg>