<svg xmlns="http://www.w3.org/2000/svg" viewBox="0 0 365.69 365.69"><defs><style>.cls-1{fill:#fff;}</style></defs><title>btn_logo_1</title><g id="Layer_2" data-name="Layer 2"><g id="Layer_1-2" data-name="Layer 1"><path class="cls-1" d="M109.2,221.09a2.94,2.94,0,0,1-1-2.25,7.71,7.71,0,0,1,.4-2.2,11.05,11.05,0,0,0,.3-2.1q0-8.9-1-34.2-1-21.6-1-34.1a1.75,1.75,0,0,1,.7-1.45,2.67,2.67,0,0,1,1.7-.55,3,3,0,0,1,2.1.85,2.72,2.72,0,0,1,.9,2.05q0,6,.6,18,.5,13.3.5,18l.1,1.2v2.4q.3,8.7.3,26v2.6h7.7q2.1,1.5,2.1,3a2.86,2.86,0,0,1-.75,1.95,2.27,2.27,0,0,1-1.75.85,5.55,5.55,0,0,1-1.1-.2l-.4-.1a12.88,12.88,0,0,1-1.9.1h-1.7a11.62,11.62,0,0,0-1.6-.1,3.63,3.63,0,0,1-5.15.25Z"/><path class="cls-1" d="M140.15,221.94a15.22,15.22,0,0,1-3.8-4.9q-2.9-5.4-4.3-14.8-1-6.5-1.5-15l-.1-5.3v-5.4q-.1-2.6-.1-6.3a98.94,98.94,0,0,1,.5-10.6,39.53,39.53,0,0,1,2-9.5,10.87,10.87,0,0,1,4.6-5.8,8.81,8.81,0,0,1,3.6-.8,9.9,9.9,0,0,1,8.4,4.2,26,26,0,0,1,4.5,10.5,70.19,70.19,0,0,1,1.8,13.4q.4,7.1.4,13.4v5.7q0,1.7-.5,6.4a59.81,59.81,0,0,0-.4,6.3v.4a31.85,31.85,0,0,0-.6,6.6,15.58,15.58,0,0,1-1.2,5.8,14.29,14.29,0,0,1-3.4,5.1,6.64,6.64,0,0,1-5,2.4A7.54,7.54,0,0,1,140.15,221.94Zm8.5-7.4a35.9,35.9,0,0,0,1.75-8q.55-4.75.95-10.75.2-2.6.2-6.7l-.1-9.2q-.2-5.4-1.2-13.5a45.5,45.5,0,0,0-3-12.2,10.67,10.67,0,0,0-2.5-3.9,4.64,4.64,0,0,0-3.2-1.4q-2.5,0-3.7,3.9a37.08,37.08,0,0,0-2,9q-.6,5.3-.7,10.1l-.1,3.3q-.1,1.4-.1,3.8v.4a119.91,119.91,0,0,0,1.4,16.5q1.6,13.3,4.7,18.9,2,3.5,4.2,3.5Q147.24,218.24,148.65,214.54Z"/><path class="cls-1" d="M174.34,220.24q-2.9-2.4-5.3-8.2a46.87,46.87,0,0,1-2.4-10.7,85.5,85.5,0,0,1-.7-10.6q-.1-1.3-.1-4.5v-7.4q0-4.3.3-10.3a72.79,72.79,0,0,1,1.6-10.4,26.58,26.58,0,0,1,3.8-8.8,13.67,13.67,0,0,1,6.7-5.4,17.5,17.5,0,0,1,4.7-.7q4.2,0,4.2,2.8a2.2,2.2,0,0,1-.75,1.75,2.87,2.87,0,0,1-2,.65,5.82,5.82,0,0,1-1.4-.3l-1.4-.2a5.45,5.45,0,0,0-3.4,1.15,8.59,8.59,0,0,0-2.5,3.35,35.55,35.55,0,0,0-3.1,10.5,91,91,0,0,0-1.2,12.2q-.2,4.5-.2,9.5v2.7q-.1,1.4-.1,3.5a98.13,98.13,0,0,0,.5,10,30.72,30.72,0,0,0,2.2,10,11.06,11.06,0,0,0,5.2,6.6,8.15,8.15,0,0,0,4.2,1q4.4,0,7.4-4.2-.1-3.5-.5-6.85a11.47,11.47,0,0,0-1.2-4.55l-.45,0-1,.15-2.4.2q-3.4,0-3.4-2.9a2,2,0,0,1,1-1.6,6.73,6.73,0,0,1,2.7-1,20.9,20.9,0,0,1,5-.7,3.62,3.62,0,0,1,3.1,1.5,6.26,6.26,0,0,1,1.1,3.8,55.21,55.21,0,0,0,1,9,53.67,53.67,0,0,1,1,8.9,2.8,2.8,0,0,1-.7,1.9,2.18,2.18,0,0,1-1.7.8,3.37,3.37,0,0,1-3.4-2.1v-.1l-2.2,1.1a10.87,10.87,0,0,1-5.1,1.7A13,13,0,0,1,174.34,220.24Z"/><path class="cls-1" d="M212.74,221.94a15.21,15.21,0,0,1-3.8-4.9q-2.9-5.4-4.3-14.8-1-6.5-1.5-15l-.1-5.3v-5.4q-.1-2.6-.1-6.3a99.07,99.07,0,0,1,.5-10.6,39.56,39.56,0,0,1,2-9.5,10.87,10.87,0,0,1,4.6-5.8,8.82,8.82,0,0,1,3.6-.8,9.9,9.9,0,0,1,8.4,4.2,26,26,0,0,1,4.5,10.5,70.16,70.16,0,0,1,1.8,13.4q.4,7.1.4,13.4v5.7q0,1.7-.5,6.4a59.81,59.81,0,0,0-.4,6.3v.4a31.82,31.82,0,0,0-.6,6.6,15.56,15.56,0,0,1-1.2,5.8,14.26,14.26,0,0,1-3.4,5.1,6.64,6.64,0,0,1-5,2.4A7.54,7.54,0,0,1,212.74,221.94Zm8.5-7.4a36,36,0,0,0,1.75-8q.55-4.75.95-10.75.2-2.6.2-6.7l-.1-9.2q-.2-5.4-1.2-13.5a45.57,45.57,0,0,0-3-12.2,10.69,10.69,0,0,0-2.5-3.9,4.64,4.64,0,0,0-3.2-1.4q-2.5,0-3.7,3.9a37,37,0,0,0-2,9q-.6,5.3-.7,10.1l-.1,3.3q-.1,1.4-.1,3.8v.4a120,120,0,0,0,1.4,16.5q1.6,13.3,4.7,18.9,2,3.5,4.2,3.5Q219.84,218.24,221.24,214.54Z"/><path class="cls-1" d="M239.54,221.84q-1.6-.9-1.6-2.1a3,3,0,0,1,.6-2,2.05,2.05,0,0,1,1.7-.75,8.32,8.32,0,0,1,2.9.8,11.23,11.23,0,0,0,2.6.8,4.66,4.66,0,0,0,3.45-1.65,11.62,11.62,0,0,0,2.45-4.35,26.9,26.9,0,0,0,1.8-9,33.1,33.1,0,0,0-1.35-9,50.86,50.86,0,0,0-3.65-9.25l-1.6-3.2q-2.5-5-3.85-7.9a44.8,44.8,0,0,1-2.35-6.3,31.12,31.12,0,0,1-1.5-9.3,18.51,18.51,0,0,1,1.25-6.8,13.73,13.73,0,0,1,3.75-5.4,8.6,8.6,0,0,1,6.2-2.4,6.58,6.58,0,0,1,3.5,1,5.9,5.9,0,0,1,2.4,2.65l-1.7,2.1a6.34,6.34,0,0,1-3.9-1,4.82,4.82,0,0,0-3.15,1.75,10.74,10.74,0,0,0-2,3.55,12.55,12.55,0,0,0-.6,3.8,30.12,30.12,0,0,0,1,7.75,41.21,41.21,0,0,0,2.75,7.45l7,14a38.52,38.52,0,0,1,2.7,8.1,41.42,41.42,0,0,1,1,9,25.28,25.28,0,0,1-3.2,12.4,13.43,13.43,0,0,1-4.4,4.75,10.81,10.81,0,0,1-6,1.75A13.74,13.74,0,0,1,239.54,221.84Z"/><polygon class="cls-1" points="311.04 271.03 271.03 311.04 285.67 365.69 365.69 285.67 311.04 271.03"/><polygon class="cls-1" points="54.65 94.66 94.66 54.65 80.02 0 0 80.02 54.65 94.66"/><polygon class="cls-1" points="94.66 311.04 54.65 271.03 0 285.67 80.02 365.69 94.66 311.04"/><polygon class="cls-1" points="271.03 54.65 311.04 94.66 365.69 80.02 285.67 0 271.03 54.65"/><polygon class="cls-1" points="201.89 285.85 163.8 285.85 144.75 318.84 220.94 318.84 201.89 285.85"/><polygon class="cls-1" points="163.8 79.83 201.89 79.83 220.94 46.84 144.75 46.84 163.8 79.83"/><polygon class="cls-1" points="79.83 201.89 79.83 163.8 46.84 144.75 46.84 220.94 79.83 201.89"/><polygon class="cls-1" points="285.85 163.8 285.85 201.89 318.84 220.94 318.84 144.75 285.85 163.8"/></g></g></svg>