<svg xmlns="http://www.w3.org/2000/svg" xmlns:xlink="http://www.w3.org/1999/xlink" viewBox="0 0 245.96 245.96"><defs><style>.cls-1,.cls-10,.cls-11,.cls-12,.cls-13,.cls-14,.cls-15,.cls-16,.cls-22,.cls-23,.cls-24,.cls-25,.cls-26,.cls-27,.cls-4{fill:none;}.cls-1,.cls-12{stroke:#fff;}.cls-1,.cls-10,.cls-11,.cls-12,.cls-13,.cls-14,.cls-15,.cls-16,.cls-22,.cls-23,.cls-24,.cls-25,.cls-26,.cls-27{stroke-miterlimit:10;}.cls-1{stroke-width:8.79px;}.cls-2,.cls-20{opacity:0.7;}.cls-3{fill:#373737;}.cls-4{stroke:#373737;stroke-width:0;}.cls-5{fill:url(#linear-gradient);}.cls-6{fill:url(#linear-gradient-2);}.cls-7{fill:url(#linear-gradient-3);}.cls-8{fill:url(#linear-gradient-4);}.cls-9{fill:#fff;}.cls-10,.cls-11,.cls-13,.cls-14,.cls-15,.cls-16,.cls-22,.cls-23,.cls-24,.cls-25,.cls-26,.cls-27{stroke-width:2.31px;}.cls-10{stroke:url(#linear-gradient-5);}.cls-11{stroke:url(#linear-gradient-6);}.cls-12{stroke-width:0.83px;}.cls-13{stroke:url(#linear-gradient-7);}.cls-14{stroke:url(#linear-gradient-8);}.cls-15{stroke:url(#linear-gradient-9);}.cls-16{stroke:url(#linear-gradient-10);}.cls-17,.cls-18,.cls-21{opacity:0.8;}.cls-18{fill:#77787b;}.cls-19,.cls-20{fill:#888a8c;}.cls-21{fill:#6d6e71;}.cls-22{stroke:url(#linear-gradient-11);}.cls-23{stroke:url(#linear-gradient-12);}.cls-24{stroke:url(#linear-gradient-13);}.cls-25{stroke:url(#linear-gradient-14);}.cls-26{stroke:url(#linear-gradient-16);}.cls-27{stroke:url(#linear-gradient-17);}</style><linearGradient id="linear-gradient" x1="-1813.86" y1="1655.2" x2="-1813.86" y2="1615.68" gradientTransform="translate(1914.06 -869.98) scale(1 0.6)" gradientUnits="userSpaceOnUse"><stop offset="0" stop-color="#fff"/><stop offset="0.25" stop-color="#c5c4c4"/><stop offset="1" stop-opacity="0"/></linearGradient><linearGradient id="linear-gradient-2" x1="-1180.63" y1="1382.07" x2="-1180.63" y2="1342.56" gradientTransform="translate(1325.6 -707.64) scale(1 0.6)" xlink:href="#linear-gradient"/><linearGradient id="linear-gradient-3" x1="2670.24" y1="-2531.51" x2="2670.24" y2="-2571.03" gradientTransform="translate(-2560.29 1401.91) scale(1 0.5)" xlink:href="#linear-gradient"/><linearGradient id="linear-gradient-4" x1="2108.72" y1="-1673.54" x2="2108.72" y2="-1713.05" gradientTransform="translate(-1973.61 972.89) scale(1 0.5)" xlink:href="#linear-gradient"/><linearGradient id="linear-gradient-5" x1="747.32" y1="-1063.01" x2="767.07" y2="-1063.01" gradientTransform="translate(919.43 -944.19) rotate(180)" gradientUnits="userSpaceOnUse"><stop offset="0" stop-color="#fff"/><stop offset="1" stop-opacity="0"/></linearGradient><linearGradient id="linear-gradient-6" x1="423.19" y1="181.65" x2="442.94" y2="181.65" gradientTransform="translate(-349.34 -62.84)" xlink:href="#linear-gradient-5"/><linearGradient id="linear-gradient-7" x1="-136.07" y1="-701.74" x2="-116.32" y2="-701.74" gradientTransform="translate(824.71 31.88) rotate(-90)" xlink:href="#linear-gradient-5"/><linearGradient id="linear-gradient-8" x1="811.56" y1="-250.35" x2="831.31" y2="-250.35" gradientTransform="translate(-600.47 -250.58) rotate(45)" xlink:href="#linear-gradient-5"/><linearGradient id="linear-gradient-9" x1="-239.3" y1="-1085.37" x2="-219.54" y2="-1085.37" gradientTransform="translate(693.8 -845.3) rotate(-135)" xlink:href="#linear-gradient-5"/><linearGradient id="linear-gradient-10" x1="1306.58" y1="-179.62" x2="1326.33" y2="-179.62" gradientTransform="translate(-56.64 -1236.89) rotate(90)" xlink:href="#linear-gradient-5"/><linearGradient id="linear-gradient-11" x1="766.48" y1="-1130.46" x2="786.23" y2="-1130.46" gradientTransform="translate(-161.83 -1195.08) rotate(135)" xlink:href="#linear-gradient-5"/><linearGradient id="linear-gradient-12" x1="-194.21" y1="-205.26" x2="-174.46" y2="-205.26" gradientTransform="translate(432.88 99.19) rotate(-45)" xlink:href="#linear-gradient-5"/><linearGradient id="linear-gradient-13" x1="-497.54" y1="-635.98" x2="-477.79" y2="-635.98" gradientTransform="translate(758.95 -319.01) rotate(-90)" xlink:href="#linear-gradient-5"/><linearGradient id="linear-gradient-14" x1="1296.11" y1="-179.62" x2="1315.87" y2="-179.62" gradientTransform="translate(-56.64 -1236.89) rotate(90)" xlink:href="#linear-gradient-5"/><linearGradient id="linear-gradient-16" x1="156.58" y1="-45.61" x2="176.34" y2="-45.61" gradientTransform="translate(-93.26 164.49)" xlink:href="#linear-gradient-5"/><linearGradient id="linear-gradient-17" x1="641.99" y1="-769.98" x2="661.74" y2="-769.98" gradientTransform="translate(824.62 -651.11) rotate(180)" xlink:href="#linear-gradient-5"/></defs><title>dg_btn</title><g id="Layer_2" data-name="Layer 2"><g id="Layer_1-2" data-name="Layer 1"><circle class="cls-1" cx="122.98" cy="122.98" r="118.58"/><g class="cls-2"><path class="cls-3" d="M193.15,148.74c-1.48,3.29-3.12,6.58-4.79,9.62-3.72,6.41-8.22,10.77-13.21,15.87a57.44,57.44,0,0,1-10.55,8.32,102,102,0,0,1-12.13,6.37,75.69,75.69,0,0,1-25.19,6.42,70,70,0,0,1-26.11-3c-31.57-9.94-52.93-38.76-53.22-70.1A77.94,77.94,0,0,1,67.22,69.72a72.16,72.16,0,0,1,9-8.62A76,76,0,0,1,88.65,53a89.12,89.12,0,0,1,24.47-8.3,81.39,81.39,0,0,0-23,7,78.72,78.72,0,0,0-19.77,13.5,75.22,75.22,0,0,1,46.55-21.54,77.24,77.24,0,0,1,49.62,12.69,77.79,77.79,0,0,0-89.64,2.11A79,79,0,0,0,49.4,95.83a80.63,80.63,0,0,0-2,45.64,79,79,0,0,1-2.65-27.35,77.69,77.69,0,0,1,7.47-27.75A78.46,78.46,0,0,1,152.75,47.82,80.48,80.48,0,0,1,176.49,62.9,81.88,81.88,0,0,1,193.09,84a91.14,91.14,0,0,1,6.35,14.32,83.88,83.88,0,0,0-12.27-23.84A81.29,81.29,0,0,0,167,55.14a79.7,79.7,0,0,0-55.77-12.73A78.9,78.9,0,0,0,47.25,97.07a78.19,78.19,0,0,0-3.4,27.9,79,79,0,0,0,62.93,72.88,81.71,81.71,0,0,0,28.61.89,79.8,79.8,0,0,0,58.52-41.4A74.79,74.79,0,0,0,200,141.95a64.23,64.23,0,0,0,2.26-14.28c.08-1,0-2,0-2.88s0-1.72-.11-2.47a22.58,22.58,0,0,0-.56-3.5,75.39,75.39,0,0,1-1.73,16.61c.16-1,.2-2.06.32-3.16l.16-1.68.11-1.73c-.12,1.1-.3,2.26-.52,3.39s-.36,2.26-.56,3.27a20.69,20.69,0,0,0,.35-4.12c-.48,2.61-1,6.35-1.49,8.4a50.94,50.94,0,0,1-2.3,8.22,62.84,62.84,0,0,0,2.66-12.66c-.35,1.39-.6,2.8-1.05,4.13l.3-1.51.3-1.75a13.14,13.14,0,0,0,.31-2.66,69,69,0,0,1-2.53,10.06c-.46,1.42-1,2.74-1.51,4s-1.09,2.57-1.61,3.9a55.11,55.11,0,0,0,3.17-9.84c-.6,1.45-1,3.06-1.6,4.56a.8.8,0,0,0,0-.37c-.26.67-.65,1.53-.91,2.23-.06,0-.16.13-.16,0l.09.08"/><path class="cls-3" d="M198.46,145.35a68.1,68.1,0,0,1-5,11.18"/><path class="cls-4" d="M44.21,121.16l0-2.18.09-2.63.07-1.67.17-1.9.19-2.12.32-2.32c.18-1.62.57-3.35.91-5.21a82.91,82.91,0,0,1,3.69-12.26A79.57,79.57,0,0,1,67.5,63.62a81.9,81.9,0,0,1,15-11.69,79.21,79.21,0,0,1,18.43-8.08l2.48-.7,2.52-.59c1.68-.43,3.4-.65,5.1-1a81.86,81.86,0,0,1,10.43-.89,79.33,79.33,0,0,1,56.36,21.6,83,83,0,0,1,20.28,29.63,89.06,89.06,0,0,1,4.43,14.49,115.58,115.58,0,0,1,1.85,12.41"/><path class="cls-4" d="M86,51.64a8,8,0,0,1,.71-.38l2.1-1.05a82.51,82.51,0,0,1,8.09-3.43,79.34,79.34,0,0,1,13-3.4,78.85,78.85,0,0,1,36.39,2.18,78.88,78.88,0,0,1,19.44,8.87,82.12,82.12,0,0,1,16.95,14.26,83.36,83.36,0,0,1,12.47,18.12"/></g><rect class="cls-5" x="96.25" y="101.84" width="7.9" height="23.77" transform="translate(90.64 264.99) rotate(-135)"/><rect class="cls-6" x="141.02" y="101.76" width="7.9" height="23.82" transform="translate(327.86 91.55) rotate(135)"/><rect class="cls-7" x="106" y="116.4" width="7.9" height="19.76" transform="translate(121.49 -40.76) rotate(45)"/><rect class="cls-8" x="131.16" y="116.36" width="7.9" height="19.76" transform="translate(-49.69 132.52) rotate(-45)"/><path class="cls-9" d="M139.3,102.49l-5.59-5.59-11.18,11.18L111.36,96.91l-5.59,5.59L117,113.67h0a7.9,7.9,0,0,1-11.18,0h0a7.9,7.9,0,0,0-11.18,0h0L83.43,124.85,89,130.43l11.18,11.18,5.59-5.59L94.6,124.85h0a7.9,7.9,0,0,1,11.18,0h0a7.9,7.9,0,0,0,11.18,0h0a7.9,7.9,0,0,1,11.18,0h0a7.9,7.9,0,0,0,11.18,0h0a7.9,7.9,0,0,1,11.18,0h0L139.3,136l5.59,5.59,11.18-11.18,5.59-5.59-5.59-5.59-5.59-5.59h0a7.9,7.9,0,0,0-11.18,0h0a7.9,7.9,0,0,1-11.18,0h0Z"/><path class="cls-10" d="M152.36,137.42a18.6,18.6,0,1,0,0-37.19"/><path class="cls-11" d="M93.6,100.22a18.6,18.6,0,0,0,0,37.19"/><path class="cls-12" d="M72,144.1"/><path class="cls-13" d="M104.38,148.2a18.6,18.6,0,1,0,37.19,0"/><path class="cls-14" d="M177.53,147.07a18.6,18.6,0,0,0-26.3,26.3"/><path class="cls-15" d="M68.42,90.56a18.6,18.6,0,0,0,26.3-26.3"/><path class="cls-16" d="M141.57,89.44a18.6,18.6,0,0,0-37.19,0"/><g class="cls-17"><path class="cls-18" d="M118.79,57.3l-2.29-.3-2.32-.19a10.78,10.78,0,0,1,3.26-.79c.84-.11,1.78-.26,2.73-.35s1.91-.17,2.81-.27c2.4-.55-.39-1.69-2.25-1.46a46,46,0,0,0-12.5,2.24A29,29,0,0,0,100,60.1c-.79.42.35.16,2.4-.29s5-1.07,7.84-1.59c1.68-.48,3.38-1,5.11-1.31"/><path class="cls-19" d="M72.69,162.57c.82.83,1.66,1.55,2.49,2.25a56.34,56.34,0,0,1-5.35-7.39A72.63,72.63,0,0,1,65,148.08c-1.27-2.74-1.32-.83-.64,1.54-2.2-3.71-3.53-6.31-4.7-8.57-.56-1.14-1.12-2.19-1.58-3.31a32.78,32.78,0,0,1-1.4-3.63,63.77,63.77,0,0,0,6,14.11,73.27,73.27,0,0,0,8.85,12.18C71.85,161.15,72.28,161.85,72.69,162.57Z"/><path class="cls-20" d="M183.15,136.47a60.43,60.43,0,0,1-6.08,12.63A64.08,64.08,0,0,1,139,177.86a66.9,66.9,0,0,1-23.46,2,68.74,68.74,0,0,1-21.84-5.69,4.73,4.73,0,0,1-1.27-.44A63.46,63.46,0,0,0,145,177a65.12,65.12,0,0,0,22.43-14.5,66.69,66.69,0,0,0,15-22.54,17.59,17.59,0,0,0,.87-2.33c.31-1.21.78-2.72,1.06-4.35C184,134.19,183.55,135.24,183.15,136.47Z"/><path class="cls-21" d="M168.19,71.38c.73,1,2,3,2,3a55.3,55.3,0,0,1,14.18,22.79A66.76,66.76,0,0,1,187.06,126c-.36,2.3-1.5,4-2.76,7.28-.29,1.63-.75,3.14-1.06,4.35a17.59,17.59,0,0,1-.87,2.33,66.69,66.69,0,0,1-15,22.54A65.12,65.12,0,0,1,145,177a63.46,63.46,0,0,1-52.56-3.24c-1.35-.61-2.93-1.55-1.83-1,0,0-.55-.3-1.41-.8L87.68,171l-1.73-1.17A26.56,26.56,0,0,1,80,164.47c1,1.06,2.08,1.94,3.09,2.85s2.09,1.71,3.22,2.46a51.53,51.53,0,0,0,7.51,4.41h-.14a68.74,68.74,0,0,0,21.84,5.69,66.9,66.9,0,0,0,23.46-2,64.08,64.08,0,0,0,38.09-28.75,64,64,0,0,1-28.27,24.36,66,66,0,0,1-38.48,4.4,52.81,52.81,0,0,1-11.88-3.43A55.13,55.13,0,0,1,88,168.63a73.16,73.16,0,0,1-11.44-10.44,45.4,45.4,0,0,1-8-12.7A43.06,43.06,0,0,1,65.67,132a133.1,133.1,0,0,1-.2-16.22c.07-1.07.07-2,0-2.74s0-1.47,0-2.17a16.43,16.43,0,0,1,0-2.18,16.82,16.82,0,0,1,.38-2.75c.11-.53.25-1.08.4-1.63s.37-1.08.57-1.61a28.46,28.46,0,0,1,1.35-3c.44-.94,1-1.76,1.31-2.46a18,18,0,0,0,.8-1.65,94.13,94.13,0,0,1,5.37-10.82A59.16,59.16,0,0,1,82.77,75a48.88,48.88,0,0,1,3.79-3.64,14.24,14.24,0,0,0,2.33-2.22c.27-.68-.12-.8.07-1.22a3.13,3.13,0,0,1,.87-.94,20.53,20.53,0,0,1,2.74-1.91,17.27,17.27,0,0,0-2.05.84L88.19,67.1c-1.44.83-2.58,1.47-2.44,1.13,2-2.21,6-4.77,8.12-6.25a57.44,57.44,0,0,0-8.41,4.63c-1,.68-2,1.38-2.82,1.94C81,69.71,79.51,70.88,78.12,72l-.69.79a45.24,45.24,0,0,0-5.64,5c-.42.62-1,1.31-1.55,2.07l-1.75,2.35c-.55.81-1.08,1.61-1.52,2.33a10.37,10.37,0,0,0-.9,1.93c0-.36-.14-.43-.37-.3-.44.75-.87,1.56-1.29,2.45s-.89,1.8-1.3,2.82c-.35.5-.92,1.24-1.41,2l-1.34,2.08c-.26.91-.58,2.29-.87,3.43l-.41,2.08a14,14,0,0,1-1.94,3.81,39.69,39.69,0,0,0-.7,6,13.6,13.6,0,0,0-.83,2.77c-.12.57-.25,1.18-.36,1.83L55,117.55c-.08,1.48,0,2.91,0,4.27l.09,3.82c.11,1.07.25,2.13.38,3.16s.37,2,.56,3c.16.78.41,1.55.63,2.32a32.78,32.78,0,0,0,1.4,3.63c.46,1.12,1,2.17,1.58,3.31,1.16,2.26,2.5,4.86,4.7,8.57-.68-2.38-.63-4.28.64-1.54a72.63,72.63,0,0,0,4.85,9.34,56.34,56.34,0,0,0,5.35,7.39c3.17,2.66,6.16,4.64,9.31,6.89l.66.7c.39.4.87,1,1.33,1.38l2.38,1.42c5.07,2.29,9.63,4.17,15,6.31a69.72,69.72,0,0,0,14.86,2.55c.9,0,1.81-.08,2.69-.13s1.74-.1,2.56-.2a17.19,17.19,0,0,1,3.76-.24c.69,0,1.37.05,2,.09s1.21,0,1.69.07c1.5-.15,3-.45,4.45-.7A75.88,75.88,0,0,0,149,178c.65-.42,1.27-.84,1.86-1.28s1.12-.93,1.63-1.4a5.38,5.38,0,0,1-2,2c4-2,7.4-3.94,9.94-4.82,1.43-1.17,2.77-2.45,2.77-2.45.46-.24,1.17-.56,1.86-1,5.35-4.88,9.61-11.06,12.92-16.51.42-.81-.42.8-1,2.1-.26.66-.5,1.2-.41,1.35s.49-.1,1.33-1.18a40.16,40.16,0,0,0,4.74-7.58,80.83,80.83,0,0,0,3.55-8.78l1-2.93.83-2.79a48.85,48.85,0,0,0,1.06-6.25,67.84,67.84,0,0,0-16.57-51.56A68.28,68.28,0,0,0,123,51.66,68.7,68.7,0,0,1,147,57,66.26,66.26,0,0,1,168.19,71.38Z"/></g><path class="cls-22" d="M94.72,173.37a18.6,18.6,0,0,0-26.3-26.3"/><path class="cls-23" d="M151.23,64.26a18.6,18.6,0,0,0,26.3,26.3"/><path class="cls-24" d="M104.38,158.78a18.6,18.6,0,1,0,37.19,0"/><path class="cls-25" d="M141.57,79a18.6,18.6,0,0,0-37.19,0"/><path class="cls-10" d="M152.36,137.42a18.6,18.6,0,1,0,0-37.19"/><path class="cls-26" d="M83.07,100.28a18.6,18.6,0,1,0,0,37.19"/><path class="cls-27" d="M162.88,137.47a18.6,18.6,0,1,0,0-37.19"/></g></g></svg>