<svg xmlns="http://www.w3.org/2000/svg" viewBox="0 0 245.96 245.96"><defs><style>.cls-1{fill:none;stroke:#fff;stroke-miterlimit:10;stroke-width:8.79px;}.cls-2{fill:#fff;}.cls-3{fill:#1a1a1a;}</style></defs><title>gd_btn</title><g id="Layer_2" data-name="Layer 2"><g id="Layer_1-2" data-name="Layer 1"><circle class="cls-1" cx="122.98" cy="122.98" r="118.58"/><path class="cls-2" d="M187.57,100.13H58.39A16.45,16.45,0,0,0,42,116.53v32.12a16.45,16.45,0,0,0,16.4,16.4H82.61v-6.53a5.62,5.62,0,0,1,5.6-5.6h67.87a5.62,5.62,0,0,1,5.6,5.6v6.53h25.88a16.45,16.45,0,0,0,16.4-16.4V116.53A16.45,16.45,0,0,0,187.57,100.13Z"/><rect class="cls-3" x="166.62" y="137.53" width="15.4" height="15.4" rx="7.7" ry="7.7"/><rect class="cls-3" x="166.62" y="112.26" width="15.4" height="15.4" rx="7.7" ry="7.7"/><rect class="cls-3" x="153.98" y="124.9" width="15.4" height="15.4" rx="7.7" ry="7.7"/><rect class="cls-3" x="103.85" y="128.75" width="15.4" height="7.7" rx="1.97" ry="1.97"/><rect class="cls-2" x="118.3" y="91.14" width="7.7" height="15.4" rx="1.97" ry="1.97" transform="translate(220.98 -23.31) rotate(90)"/><path class="cls-2" d="M126,50.68l1.79,8.54a66.79,66.79,0,0,1,0,27.48L126,95.23a3.62,3.62,0,0,1-3.61,3.61h-.48a3.62,3.62,0,0,1-3.61-3.61l1.79-8.54a66.79,66.79,0,0,0,0-27.48l-1.79-8.54C118.3,48.69,126,48.69,126,50.68Z"/><rect class="cls-2" x="68.98" y="86.71" width="7.7" height="24.26" rx="2.47" ry="2.47" transform="translate(171.67 26) rotate(90)"/><rect class="cls-2" x="170.47" y="86.2" width="7.7" height="25.27" rx="2.52" ry="2.52" transform="translate(273.15 -75.48) rotate(90)"/><rect class="cls-3" x="125.04" y="128.75" width="15.4" height="7.7" rx="1.97" ry="1.97"/><path class="cls-3" d="M64.55,127.58V117.17A1.32,1.32,0,0,1,66,116H70.8a1.32,1.32,0,0,1,1.45,1.13v10.41a1,1,0,0,1-.41.79l-2.39,1.94a1.75,1.75,0,0,1-2.1,0L65,128.37A1,1,0,0,1,64.55,127.58Z"/><rect class="cls-3" x="179.25" y="124.9" width="15.4" height="15.4" rx="7.7" ry="7.7"/><path class="cls-3" d="M72.25,137.61V148a1.32,1.32,0,0,1-1.45,1.13H66A1.32,1.32,0,0,1,64.55,148V137.61a1,1,0,0,1,.41-.79l2.39-1.94a1.75,1.75,0,0,1,2.1,0l2.39,1.94A1,1,0,0,1,72.25,137.61Z"/><path class="cls-3" d="M73.42,128.75H83.83A1.32,1.32,0,0,1,85,130.2V135a1.32,1.32,0,0,1-1.13,1.45H73.42a1,1,0,0,1-.79-.41l-1.94-2.39a1.75,1.75,0,0,1,0-2.1l1.94-2.39A1,1,0,0,1,73.42,128.75Z"/><path class="cls-3" d="M63.39,136.45H53A1.32,1.32,0,0,1,51.84,135V130.2A1.32,1.32,0,0,1,53,128.75H63.39a1,1,0,0,1,.79.41l1.94,2.39a1.75,1.75,0,0,1,0,2.1L64.17,136A1,1,0,0,1,63.39,136.45Z"/></g></g></svg>