<svg xmlns="http://www.w3.org/2000/svg" viewBox="0 0 245.96 245.96"><defs><style>.cls-1,.cls-2,.cls-5{fill:none;stroke:#fff;stroke-miterlimit:10;}.cls-1{stroke-width:8.79px;}.cls-2{stroke-width:2.44px;}.cls-3{fill:#fff;}.cls-4{fill:#1a1a1a;}.cls-5{stroke-width:1.73px;}</style></defs><title>ma_btn</title><g id="Layer_2" data-name="Layer 2"><g id="Layer_1-2" data-name="Layer 1"><circle class="cls-1" cx="122.98" cy="122.98" r="118.58"/><path class="cls-2" d="M72.74,128.82"/><path class="cls-3" d="M161.26,55.1V202.66c0,4.89-3.53,8.87-7.87,8.87H91.17c-4.34,0-7.87-4-7.87-8.87V55.1h78m1.67-1.67H81.62V202.66c0,5.8,4.29,10.54,9.54,10.54h62.21c5.25,0,9.54-4.74,9.54-10.54V53.43Z"/><path class="cls-3" d="M153.38,36.41H91.17c-5.25,0-9.54,4.74-9.54,10.54v7.42h81.3V47C162.93,41.16,158.63,36.41,153.38,36.41Z"/><path class="cls-3" d="M91.17,212.26h62.21c5.25,0,9.54-5,9.54-11.1v-7.81H81.62v7.81C81.62,207.26,85.92,212.26,91.17,212.26Z"/><rect class="cls-4" x="116.8" y="196.18" width="12.29" height="12.29" rx="6.14" ry="6.14"/><rect class="cls-4" x="131.92" y="42.09" width="7.56" height="7.56" rx="3.78" ry="3.78"/><rect class="cls-4" x="106.4" y="43.03" width="12.29" height="5.67" rx="2.84" ry="2.84"/><path class="cls-5" d="M58.67,39.57"/><path class="cls-5" d="M73,146.06"/></g></g></svg>