<svg xmlns="http://www.w3.org/2000/svg" viewBox="0 0 529.82 433.43"><defs><style>.cls-1{fill:#fff;}.cls-12,.cls-13,.cls-2,.cls-3,.cls-4,.cls-5,.cls-6,.cls-7,.cls-8,.cls-9{fill:none;stroke:#fff;}.cls-12,.cls-2,.cls-4,.cls-6,.cls-7,.cls-8{stroke-miterlimit:10;}.cls-2{stroke-width:8.62px;}.cls-12,.cls-13,.cls-3,.cls-5,.cls-9{stroke-linecap:round;}.cls-3,.cls-5{stroke-linejoin:bevel;}.cls-3,.cls-4{stroke-width:7.15px;}.cls-5,.cls-6{stroke-width:2.11px;}.cls-7{stroke-width:2.44px;}.cls-8,.cls-9{stroke-width:1.73px;}.cls-13,.cls-9{stroke-linejoin:round;}.cls-10{opacity:0.85;}.cls-11{fill:#662d91;}.cls-12{stroke-width:3.36px;}.cls-13{stroke-width:11.2px;}</style></defs><title>concept_logo</title><g id="Layer_2" data-name="Layer 2"><g id="Layer_1-2" data-name="Layer 1"><path class="cls-1" d="M113.52,7.12v.72c0,5.43,7.85,6.18,8.88.85l.14-.72a4.48,4.48,0,0,0-4.4-5.33H118A4.48,4.48,0,0,0,113.52,7.12Z"/><path class="cls-1" d="M143,17.54l-7,36.2a4.48,4.48,0,0,0,0,1.7l9,46.76a4.48,4.48,0,0,0,4.4,3.63h24.86a4.48,4.48,0,0,0,3.69-7l-24.17-35a4.48,4.48,0,0,1-.68-1.56Z"/><path class="cls-1" d="M118,105.82h0a4.48,4.48,0,0,0,4.4-5.33h0c-1-5.33-8.88-4.58-8.88.85h0A4.48,4.48,0,0,0,118,105.82Z"/><polygon class="cls-1" points="189.42 76.93 193.72 54.67 183.66 2.63 162 2.63 173.67 54.16 189.42 76.93"/><path class="cls-1" d="M323.69,96.46l-2.5.48c-5.33,1-4.58,8.88.85,8.88h.89a4.48,4.48,0,0,0,4.48-4.48S325.8,96.05,323.69,96.46Z"/><path class="cls-1" d="M206,8l8.87,45.86a4.48,4.48,0,0,1,0,1.7l-9.73,50.3h69.18l-48.41-9.36a4.48,4.48,0,0,1-3.63-4.4V78.92a4.48,4.48,0,0,1,5.33-4.4l45.86,8.87a4.48,4.48,0,0,0,1.7,0L309.87,76,281.7,59.38c-.56-.13-16.19,6.52-16.66,6.19L222.16,35.93l.11-.26-.11,0V17.11a4.48,4.48,0,0,1,3.63-4.4l47.56-9.2a4.48,4.48,0,0,1,1.7,0l47.56,9.2a4.48,4.48,0,0,1,3.63,4.4V30.26a4.48,4.48,0,0,1-5.33,4.4L273.53,24,247.7,32.21l21,13.5,16.5-3.17,35.73,13.59a4.48,4.48,0,0,0,5.47-4.37V7.12a4.48,4.48,0,0,0-4.48-4.48H210.36A4.48,4.48,0,0,0,206,8Z"/><path class="cls-2" d="M290.81,145.11v43.78a4.45,4.45,0,0,0,4.45,4.45h52.63"/><path class="cls-2" d="M295.3,140.64h52.49a4.45,4.45,0,0,1,4.45,4.45v28"/><path class="cls-2" d="M311.21,154.76,298.41,142a4.45,4.45,0,0,0-7.6,3.15V158a4.45,4.45,0,0,0,4.45,4.45h16"/><path class="cls-2" d="M332,179.22l12.8,12.8a4.45,4.45,0,0,0,7.6-3.15V174.48A4.45,4.45,0,0,0,348,170H332"/><rect class="cls-2" x="317.56" y="161.12" width="8.91" height="8.91" rx="4.45" ry="4.45" transform="translate(211.39 -179.2) rotate(45)"/><path class="cls-1" d="M176.2,147.7a37.66,37.66,0,0,1,2.8,9.64,60.25,60.25,0,0,1,.77,9.64,59.19,59.19,0,0,1-.76,9.64,37.25,37.25,0,0,1-2.81,9.64,37.26,37.26,0,0,1-2.81-9.64,59.18,59.18,0,0,1-.76-9.64,60.24,60.24,0,0,1,.77-9.64A37.66,37.66,0,0,1,176.2,147.7Z"/><polyline class="cls-3" points="249.18 147.7 249.18 166.99 249.18 186.28 212.69 166.99 176.2 147.7 176.2 166.99 176.2 186.28"/><path class="cls-1" d="M153.09,142.1A41,41,0,0,1,170,149.57a27.91,27.91,0,0,1,6.73,7.24,18.56,18.56,0,0,1,0,20.36,27.89,27.89,0,0,1-6.73,7.25,40.89,40.89,0,0,1-16.92,7.47c2.36-2,4.72-3.8,6.95-5.71a70.27,70.27,0,0,0,6.19-5.92,30.64,30.64,0,0,0,4.62-6.45c.28-.56.52-1.13.77-1.69a15.08,15.08,0,0,0,.54-1.71,12.64,12.64,0,0,0,0-6.84,15.09,15.09,0,0,0-.54-1.71c-.25-.56-.49-1.13-.77-1.69a30.6,30.6,0,0,0-4.62-6.45A69.73,69.73,0,0,0,160,147.8C157.81,145.89,155.45,144.07,153.09,142.1Z"/><path class="cls-1" d="M249.18,147.7a37.66,37.66,0,0,1,2.8,9.64,60.24,60.24,0,0,1,.77,9.64,59.18,59.18,0,0,1-.76,9.64,37.26,37.26,0,0,1-2.81,9.64,37.25,37.25,0,0,1-2.81-9.64,59.19,59.19,0,0,1-.76-9.64,60.25,60.25,0,0,1,.77-9.64A37.66,37.66,0,0,1,249.18,147.7Z"/><path class="cls-1" d="M272.29,142.1c-2.36,2-4.72,3.8-7,5.7a69.73,69.73,0,0,0-6.19,5.92,30.6,30.6,0,0,0-4.62,6.45c-.28.56-.52,1.13-.77,1.69a15.09,15.09,0,0,0-.54,1.71,12.64,12.64,0,0,0,0,6.84,15.08,15.08,0,0,0,.54,1.71c.25.56.49,1.12.77,1.69a30.64,30.64,0,0,0,4.62,6.45,70.27,70.27,0,0,0,6.19,5.92c2.23,1.91,4.59,3.73,6.95,5.71a40.89,40.89,0,0,1-16.92-7.47,27.89,27.89,0,0,1-6.73-7.25,18.56,18.56,0,0,1,0-20.36,27.91,27.91,0,0,1,6.73-7.24A41,41,0,0,1,272.29,142.1Z"/><path class="cls-1" d="M231.65,145.65c-3.55.11-6.67,0-9.79,0l-9.17,0-9.17,0c-3.12,0-6.24.05-9.79-.06a20.87,20.87,0,0,1,8.81-5.48,32,32,0,0,1,20.3,0A21,21,0,0,1,231.65,145.65Z"/><path class="cls-1" d="M193.73,188.34c3.55-.12,6.65-.12,9.77-.16l9.19,0,9.19,0c3.12,0,6.22,0,9.77.17a20.53,20.53,0,0,1-8.85,5.38,33,33,0,0,1-20.22,0A20.64,20.64,0,0,1,193.73,188.34Z"/><path class="cls-4" d="M249.18,147.7"/><path class="cls-4" d="M176.2,147.7"/><path class="cls-4" d="M176.2,147.7c0-3.1,16.34-5.6,36.49-5.6s36.49,2.51,36.49,5.6"/><path class="cls-4" d="M249.18,186.28c0,3.1-16.34,5.6-36.49,5.6s-36.49-2.51-36.49-5.6"/><path class="cls-1" d="M243.52,176.45c-6.61-1.66-12.9-3.91-19.12-6.13-3.1-1.11-6.2-2.27-9.17-3.19-.74-.21-1.47-.44-2.13-.59a8.15,8.15,0,0,0-.88-.17h-.28a.59.59,0,0,0,.21,0l.23,0a1.67,1.67,0,0,0,.32-.12,3.92,3.92,0,0,0,.48-.27,2.71,2.71,0,0,0,.49-.47,3,3,0,0,0,.65-1.29,2.68,2.68,0,0,0,.05-.53,1.47,1.47,0,0,0,0-.28c0-.24,0-.21-.05-.29s0,0,0,0l0,.07s0,.07.07.13c.25.44.69,1.08,1.17,1.76a27.15,27.15,0,0,1,1.54,2.43,6.79,6.79,0,0,1,.84,2.43,4.16,4.16,0,0,1,0,.66,4.29,4.29,0,0,1-.08.75,4.13,4.13,0,0,1-.9,1.87,4,4,0,0,1-.76.71,5.36,5.36,0,0,1-.72.41l-.37.16-.25.07-.51.12a7,7,0,0,1-2.41-.06c-.59-.1-1.07-.24-1.56-.37-.93-.28-1.8-.57-2.62-.9a81.83,81.83,0,0,1-9.25-4.47,114.71,114.71,0,0,1-16.8-11.25,199.9,199.9,0,0,1,19.13,6.12c3.1,1.09,6.2,2.28,9.17,3.19.74.22,1.46.44,2.13.6.32.06.65.14.87.16s.45,0,.07,0a2.61,2.61,0,0,0-1.53.93,2.92,2.92,0,0,0-.63,1.32,2.73,2.73,0,0,0-.06.44c0,.11,0,.33,0,.35.1.56.08.29-.05.11-.23-.43-.7-1.09-1.17-1.76s-1-1.42-1.53-2.43c-.07-.12-.14-.28-.21-.42s-.14-.3-.22-.5a5.32,5.32,0,0,1-.22-.63,4.75,4.75,0,0,1-.18-.9c0-.2,0-.39,0-.59a4.56,4.56,0,0,1,.1-.84,4.23,4.23,0,0,1,.9-1.85,4.37,4.37,0,0,1,.73-.66,3.52,3.52,0,0,1,.74-.43,6.09,6.09,0,0,1,.62-.22l.31-.08.22,0c.27,0,.56-.07.83-.08l.59,0,.29,0,.23,0,.46.07a15.14,15.14,0,0,1,1.55.37,26.44,26.44,0,0,1,2.63.9,82.4,82.4,0,0,1,9.24,4.47A115.63,115.63,0,0,1,243.52,176.45Z"/><path class="cls-1" d="M272.29,155.94a48.25,48.25,0,0,1-7.5,2q-1.87.37-3.75.63c-1.25.18-2.5.34-3.75.45l1.77-.56a17.32,17.32,0,0,0-3.71,4.1,7.85,7.85,0,0,0,0,8.8,17.43,17.43,0,0,0,3.71,4.1l-1.78-.56c1.25.11,2.5.28,3.75.45s2.5.39,3.75.63a47.91,47.91,0,0,1,7.5,2,47.91,47.91,0,0,1-7.5,2q-1.87.37-3.75.63c-1.25.17-2.5.34-3.75.45l-.76.07-1-.62a19.87,19.87,0,0,1-5.89-5.33,13.72,13.72,0,0,1,0-16.54,19.93,19.93,0,0,1,5.89-5.32l1-.62.75.07c1.25.11,2.5.27,3.75.45s2.5.39,3.75.63A48.26,48.26,0,0,1,272.29,155.94Z"/><path class="cls-1" d="M153.09,178a53.36,53.36,0,0,1,7.93-2q2-.37,4-.63c1.32-.18,2.64-.34,4-.45l-1.7.51a18.1,18.1,0,0,0,3.93-4.08,7.32,7.32,0,0,0,0-8.75,18.21,18.21,0,0,0-3.94-4.08l1.71.51c-1.32-.11-2.64-.28-4-.45s-2.64-.39-4-.63a53,53,0,0,1-7.93-2,53,53,0,0,1,7.93-2q2-.37,4-.63c1.32-.17,2.64-.34,4-.45l.72-.06,1,.57a20.48,20.48,0,0,1,6.12,5.22,14,14,0,0,1,3,8.42,13.69,13.69,0,0,1-.85,4.57,15,15,0,0,1-2.15,3.85,20.54,20.54,0,0,1-6.12,5.22l-1,.57-.72-.06c-1.32-.11-2.64-.27-4-.45s-2.64-.39-4-.63A53.36,53.36,0,0,1,153.09,178Z"/><path class="cls-1" d="M212.62,178a26.48,26.48,0,0,0-.88,5.12,22.64,22.64,0,0,0,.12,4.13,25.79,25.79,0,0,1,.26,3,9.48,9.48,0,0,1-.38,2.62l-3.41-4.62c.29,0,.69,0,.88,0h.25s.13,0-.07,0a.66.66,0,0,0-.17.08,1.6,1.6,0,0,0-.37.2,2.09,2.09,0,0,0-.56.6.74.74,0,0,0-.14.33.31.31,0,0,1,.05-.08,10.45,10.45,0,0,0,.4-1.51c.17-.62.29-1.29.48-2a28.54,28.54,0,0,1,1.35-4l.45-1,.25-.5c.08-.19.15-.19.26-.29a3.39,3.39,0,0,0,.73-.72A3.21,3.21,0,0,0,212.62,178Zm0,0a1.57,1.57,0,0,0,.31.61,4.93,4.93,0,0,1,.55,1.31c.08.23.12.57.17.73l.17.52.29,1a31.48,31.48,0,0,1,.78,4.13c.1.7.13,1.39.18,2.13a13.19,13.19,0,0,1-.14,2.54c-.07.3-.13.59-.22.9a6.75,6.75,0,0,1-.61,1.24,4.7,4.7,0,0,1-1.29,1.3,6,6,0,0,1-.8.46l-.66.23a5.35,5.35,0,0,1-1.07.21,7.62,7.62,0,0,1-.76.06c-.49,0-.78,0-1.17,0h-4.93l1.52-4.62a30.7,30.7,0,0,1,1.77-4.31,25.68,25.68,0,0,1,2.4-3.89c.85-1.14,1.66-2,2.27-2.79A10.28,10.28,0,0,0,212.62,178Z"/><path class="cls-1" d="M212.62,178a3.21,3.21,0,0,0,.49,1.42,3.42,3.42,0,0,0,.73.73c.11.11.18.11.26.29l.24.5.45,1a28.9,28.9,0,0,1,1.35,4c.19.66.32,1.33.48,2a10.43,10.43,0,0,0,.41,1.51.45.45,0,0,1,.06.08.74.74,0,0,0-.14-.33,2.12,2.12,0,0,0-.56-.6,1.59,1.59,0,0,0-.36-.2.65.65,0,0,0-.17-.08c-.19,0-.07,0-.07,0H216l.88,0-3.41,4.62a9.3,9.3,0,0,1-.38-2.62,25.38,25.38,0,0,1,.26-3,22.54,22.54,0,0,0,.13-4.14A26.43,26.43,0,0,0,212.62,178Zm0,0a10.29,10.29,0,0,0,1.26,1.8c.61.75,1.42,1.66,2.27,2.79a25.62,25.62,0,0,1,2.4,3.9,30.15,30.15,0,0,1,1.76,4.31l1.53,4.66-4.94,0c-.39,0-.67,0-1.17,0a7.62,7.62,0,0,1-.76-.06,5.28,5.28,0,0,1-1.07-.21l-.66-.23a6,6,0,0,1-.8-.46,4.73,4.73,0,0,1-1.29-1.3,6.74,6.74,0,0,1-.61-1.24c-.09-.31-.16-.6-.22-.9a13.12,13.12,0,0,1-.14-2.54c0-.74.08-1.43.18-2.13a32,32,0,0,1,.78-4.13l.28-1,.16-.52c.06-.15.1-.49.17-.72a5,5,0,0,1,.55-1.31A1.56,1.56,0,0,0,212.62,178Z"/><path class="cls-1" d="M212.62,155.94a26.48,26.48,0,0,0,.88-5.12,22.65,22.65,0,0,0-.12-4.13,25.79,25.79,0,0,1-.26-3,9.49,9.49,0,0,1,.38-2.62l3.41,4.62c-.29,0-.69,0-.88,0h-.25s-.13,0,.07,0a.66.66,0,0,0,.17-.08,1.6,1.6,0,0,0,.37-.2,2.1,2.1,0,0,0,.57-.6.74.74,0,0,0,.14-.33.3.3,0,0,1-.05.08,10.46,10.46,0,0,0-.4,1.51c-.17.62-.29,1.29-.48,2a28.54,28.54,0,0,1-1.35,4l-.45,1-.25.5c-.08.19-.15.19-.26.29a3.39,3.39,0,0,0-.73.72A3.21,3.21,0,0,0,212.62,155.94Zm0,0a1.57,1.57,0,0,0-.31-.61,4.93,4.93,0,0,1-.55-1.31c-.08-.23-.12-.57-.17-.73l-.17-.52-.29-1a31.49,31.49,0,0,1-.78-4.13c-.1-.7-.13-1.39-.18-2.13a13.2,13.2,0,0,1,.14-2.54c.07-.3.13-.59.22-.9a6.74,6.74,0,0,1,.61-1.24,4.7,4.7,0,0,1,1.29-1.3,6,6,0,0,1,.8-.46l.66-.23a5.35,5.35,0,0,1,1.07-.21,7.62,7.62,0,0,1,.76-.06c.49,0,.78,0,1.17,0h4.93l-1.52,4.62a30.7,30.7,0,0,1-1.77,4.31,25.68,25.68,0,0,1-2.4,3.89c-.85,1.14-1.66,2-2.27,2.79A10.28,10.28,0,0,0,212.62,155.94Z"/><path class="cls-1" d="M212.62,155.94a3.21,3.21,0,0,0-.49-1.42,3.42,3.42,0,0,0-.73-.73c-.11-.11-.18-.11-.26-.29l-.24-.5-.45-1a28.9,28.9,0,0,1-1.35-4c-.19-.66-.32-1.33-.48-2a10.42,10.42,0,0,0-.41-1.51.45.45,0,0,1-.06-.08.74.74,0,0,0,.14.33,2.12,2.12,0,0,0,.56.6,1.59,1.59,0,0,0,.36.2.65.65,0,0,0,.17.08c.19,0,.07,0,.07,0h-.25l-.88,0,3.41-4.62a9.3,9.3,0,0,1,.38,2.62,25.38,25.38,0,0,1-.26,3,22.53,22.53,0,0,0-.13,4.14A26.43,26.43,0,0,0,212.62,155.94Zm0,0a10.28,10.28,0,0,0-1.26-1.8c-.61-.75-1.42-1.66-2.27-2.79a25.61,25.61,0,0,1-2.4-3.9,30.14,30.14,0,0,1-1.76-4.31l-1.53-4.66,4.94,0c.39,0,.67,0,1.17,0a7.6,7.6,0,0,1,.76.06,5.29,5.29,0,0,1,1.07.21l.66.23a6,6,0,0,1,.8.46,4.73,4.73,0,0,1,1.29,1.3,6.74,6.74,0,0,1,.61,1.24c.09.31.16.6.22.9a13.11,13.11,0,0,1,.14,2.54c0,.74-.08,1.43-.18,2.13a31.94,31.94,0,0,1-.78,4.13l-.28,1-.16.52c-.06.15-.1.49-.17.72a5,5,0,0,1-.55,1.31A1.56,1.56,0,0,0,212.62,155.94Z"/><path class="cls-1" d="M377.8,140c.44,4.84.67,9.68.82,14.53s.21,9.68.23,14.53-.06,9.68-.23,14.53-.38,9.68-.83,14.53c-.44-4.84-.67-9.68-.83-14.53s-.21-9.68-.23-14.53.07-9.68.23-14.53S377.36,144.88,377.8,140Z"/><polyline class="cls-5" points="408.41 140.04 408.41 169.09 408.41 198.14 393.1 169.09 377.8 140.04 377.8 169.09 377.8 198.14"/><path class="cls-1" d="M368.1,131.6a59.35,59.35,0,0,1,8.13,17.89,74.74,74.74,0,0,1,0,39.2,59.26,59.26,0,0,1-8.14,17.89,77.83,77.83,0,0,0,6.54-18.29,88.81,88.81,0,0,0,0-38.4A77.67,77.67,0,0,0,368.1,131.6Z"/><path class="cls-1" d="M408.41,140c.44,4.84.67,9.68.82,14.53s.21,9.68.23,14.53-.06,9.68-.23,14.53-.38,9.68-.83,14.53c-.44-4.84-.67-9.68-.83-14.53s-.21-9.68-.23-14.53.07-9.68.23-14.53S408,144.88,408.41,140Z"/><path class="cls-1" d="M418.1,131.6a77.67,77.67,0,0,0-6.54,18.29,88.82,88.82,0,0,0,0,38.4,77.83,77.83,0,0,0,6.54,18.29A59.26,59.26,0,0,1,410,188.69a74.74,74.74,0,0,1,0-39.2A59.34,59.34,0,0,1,418.1,131.6Z"/><path class="cls-1" d="M401.06,136.94a25.79,25.79,0,0,0-3.83-3,7.33,7.33,0,0,0-8.25,0,26,26,0,0,0-3.83,3A10.08,10.08,0,0,1,388,132.6a7.35,7.35,0,0,1,10.21,0A10.12,10.12,0,0,1,401.06,136.94Z"/><path class="cls-1" d="M385.15,201.23a21.64,21.64,0,0,0,3.82,2.89,8,8,0,0,0,8.26,0,21.82,21.82,0,0,0,3.82-2.89,9.33,9.33,0,0,1-2.88,4.24,7.66,7.66,0,0,1-10.14,0A9.36,9.36,0,0,1,385.15,201.23Z"/><path class="cls-6" d="M408.41,140"/><path class="cls-6" d="M377.8,140"/><path class="cls-6" d="M377.8,140c0-4.66,6.85-8.44,15.31-8.44s15.31,3.78,15.31,8.44"/><path class="cls-6" d="M408.41,198.14c0,4.66-6.85,8.44-15.31,8.44s-15.31-3.78-15.31-8.44"/><path class="cls-1" d="M406,183.34c-2.9-4.31-5.64-8.72-8.47-13-.71-1.07-1.43-2.14-2.17-3.18a24.44,24.44,0,0,0-2.3-2.9,2.61,2.61,0,0,0-.47-.38h0a.36.36,0,0,0,.12,0c.06,0,.06,0,.17,0a.5.5,0,0,0,.25-.11c.06-.05.1-.06.14-.11s.06-.12.06-.1,0,0,0,0a6.49,6.49,0,0,0,.07,1.58c.17,1.22.42,2.49.67,3.76s.48,2.55.65,3.9c0,.34.07.68.09,1a4.72,4.72,0,0,1-.08,1.25,1.67,1.67,0,0,1-.16.46,2.73,2.73,0,0,1-.16.27,1.66,1.66,0,0,1-.35.31,1.39,1.39,0,0,1-.9.21,2.5,2.5,0,0,1-.56-.17,3.87,3.87,0,0,1-1-.82,24.29,24.29,0,0,1-2.41-3.27c-.72-1.1-1.39-2.22-2-3.36-2.59-4.52-4.93-9.15-7.07-13.89,2.9,4.31,5.64,8.72,8.47,13,.71,1.07,1.44,2.14,2.16,3.18a22.85,22.85,0,0,0,2.3,2.9,2.92,2.92,0,0,0,.48.4.12.12,0,0,0-.1,0,.66.66,0,0,0-.44.1.5.5,0,0,0-.16.16l0,.05c0,.07,0,0,0,0a3.11,3.11,0,0,0,0-.69c0-.28,0-.58-.09-.89-.16-1.22-.43-2.49-.67-3.75s-.48-2.56-.65-3.9a7.56,7.56,0,0,1,0-2.29,2.44,2.44,0,0,1,.16-.45,1.6,1.6,0,0,1,.49-.58,1.73,1.73,0,0,1,.48-.2,1.08,1.08,0,0,1,.41,0,1.74,1.74,0,0,1,.36.07l.21.1a3.74,3.74,0,0,1,1,.82,25.81,25.81,0,0,1,2.41,3.26c.72,1.1,1.39,2.22,2,3.36C401.56,174,403.9,178.6,406,183.34Z"/><path class="cls-1" d="M418.1,152.45A26.58,26.58,0,0,1,415,153c-.52.07-1,.14-1.57.19s-1,.11-1.57.14l.85-.57a40.12,40.12,0,0,0-2,8,55.25,55.25,0,0,0,0,16.58,40.34,40.34,0,0,0,2,8l-.85-.58c.52,0,1,.09,1.57.13s1,.12,1.57.19a26.33,26.33,0,0,1,3.15.59,26.33,26.33,0,0,1-3.15.59c-.52.07-1,.14-1.57.19s-1,.11-1.57.13l-.6,0-.25-.6a48.25,48.25,0,0,1,0-34l.25-.6.6,0c.52,0,1,.09,1.57.14s1,.12,1.57.19A26.58,26.58,0,0,1,418.1,152.45Z"/><path class="cls-1" d="M368.1,185.73a29.54,29.54,0,0,1,3.33-.59c.55-.07,1.11-.14,1.66-.19s1.11-.11,1.66-.14l-.84.56a38.27,38.27,0,0,0,2.16-8,52.07,52.07,0,0,0,0-16.59,38.46,38.46,0,0,0-2.16-8l.84.56c-.55,0-1.11-.09-1.66-.13s-1.11-.12-1.66-.19a29.27,29.27,0,0,1-3.33-.59,29.26,29.26,0,0,1,3.33-.59c.55-.07,1.11-.14,1.66-.19s1.11-.11,1.66-.13l.59,0,.25.58a46,46,0,0,1,0,34l-.25.58-.59,0c-.55,0-1.11-.09-1.66-.14s-1.11-.12-1.66-.19A29.54,29.54,0,0,1,368.1,185.73Z"/><path class="cls-1" d="M393.08,185.71c-.34,3.91-.38,7.63-.37,11.05,0,1.72,0,3.35-.07,5s-.19,3.26-.31,4.92l-1-1.14h.26s.1,0,0,0-.12.07-.16.13,0,0,0,0a5.61,5.61,0,0,0,.18-1.06c.09-.84.11-1.75.16-2.64.11-1.79.16-3.6.29-5.4s.25-3.61.42-5.41c.1-.9.17-1.83.31-2.6A16,16,0,0,0,393.08,185.71Zm0,0a19.17,19.17,0,0,0,.22,2.62c.09,1,.12,1.9.18,2.81.08,1.81.16,3.61.2,5.42s.05,3.61.06,5.43c0,.91,0,1.81-.11,2.77a6.93,6.93,0,0,1-.28,1.6,2.41,2.41,0,0,1-.3.57,1.63,1.63,0,0,1-.68.54,1.87,1.87,0,0,1-.67.16h-.42l-1.16,0,.11-1.17c.18-1.82.35-3.67.59-5.52s.51-3.69.83-5.44C392.26,192,392.81,188.76,393.08,185.71Z"/><path class="cls-1" d="M393.08,185.71a16,16,0,0,0,.35,2.8c.14.77.2,1.71.3,2.6.16,1.8.31,3.61.41,5.41s.18,3.61.29,5.4c0,.89.07,1.8.16,2.64a5.62,5.62,0,0,0,.18,1.06s0,.08,0,0-.1-.08-.16-.13,0,0,0,0h.26l-1.05,1.15c-.12-1.66-.25-3.28-.31-4.92s-.09-3.27-.07-5C393.46,193.35,393.41,189.62,393.08,185.71Zm0,0c.26,3,.82,6.28,1.43,9.82.32,1.76.58,3.61.83,5.44s.41,3.7.59,5.52l.11,1.17-1.17,0h-.42a1.93,1.93,0,0,1-.67-.16,1.62,1.62,0,0,1-.68-.54,2.41,2.41,0,0,1-.3-.57,6.93,6.93,0,0,1-.28-1.6c-.08-1-.09-1.86-.11-2.77,0-1.82,0-3.62.06-5.43s.12-3.61.2-5.42c.06-.91.09-1.78.18-2.81A19.26,19.26,0,0,0,393.08,185.71Z"/><path class="cls-1" d="M393.08,152.45c.34-3.91.38-7.63.37-11.05,0-1.72,0-3.35.07-5s.19-3.26.31-4.92l1,1.14h-.26s-.1,0,0,0,.12-.07.16-.13,0,0,0,0a5.62,5.62,0,0,0-.18,1.06c-.09.84-.11,1.75-.16,2.64-.11,1.79-.16,3.6-.29,5.4s-.25,3.61-.42,5.41c-.1.9-.17,1.83-.31,2.6A16,16,0,0,0,393.08,152.45Zm0,0a19.17,19.17,0,0,0-.22-2.62c-.09-1-.12-1.9-.18-2.81-.08-1.81-.16-3.61-.2-5.42s-.05-3.61-.06-5.43c0-.91,0-1.81.11-2.77a6.93,6.93,0,0,1,.28-1.6,2.41,2.41,0,0,1,.3-.57,1.63,1.63,0,0,1,.68-.54,1.87,1.87,0,0,1,.67-.16h.42l1.16,0-.11,1.17c-.18,1.82-.35,3.67-.59,5.52s-.51,3.69-.83,5.44C393.89,146.17,393.34,149.4,393.08,152.45Z"/><path class="cls-1" d="M393.08,152.45a16,16,0,0,0-.35-2.8c-.14-.77-.2-1.71-.3-2.6-.16-1.8-.31-3.61-.41-5.41s-.18-3.61-.29-5.4c0-.89-.07-1.8-.16-2.64a5.62,5.62,0,0,0-.18-1.06s0-.08,0,0,.1.08.16.13,0,0,0,0h-.26l1.05-1.14c.12,1.66.25,3.28.31,4.92s.09,3.27.07,5C392.69,144.81,392.74,148.54,393.08,152.45Zm0,0c-.26-3-.82-6.28-1.43-9.82-.32-1.76-.58-3.61-.83-5.44s-.41-3.7-.59-5.52l-.11-1.17,1.17,0h.42a1.93,1.93,0,0,1,.67.16,1.62,1.62,0,0,1,.68.54,2.41,2.41,0,0,1,.3.57,6.92,6.92,0,0,1,.28,1.6c.08,1,.09,1.86.11,2.77,0,1.82,0,3.62-.06,5.43s-.12,3.61-.2,5.42c-.06.91-.09,1.78-.18,2.81A19.25,19.25,0,0,0,393.08,152.45Z"/><path class="cls-7" d="M477.13,130.36"/><rect class="cls-1" x="461.84" y="130.36" width="2.44" height="77.47"/><rect class="cls-1" x="431.23" y="130.36" width="2.44" height="77.47"/><path class="cls-7" d="M432.45,130.36"/><path class="cls-1" d="M464.28,130.36h-2.44c0-5.53-6.32-10-14.08-10s-14.09,4.5-14.09,10h-2.44c0-6.88,7.41-12.47,16.53-12.47S464.28,123.48,464.28,130.36Z"/><path class="cls-1" d="M447.76,220.3c-9.11,0-16.53-5.6-16.53-12.47h2.44c0,5.53,6.32,10,14.09,10s14.08-4.5,14.08-10h2.44C464.28,214.7,456.87,220.3,447.76,220.3Z"/><path class="cls-1" d="M433.69,193.07c5.33-4.83,10.89-9.39,16-14.27,1.27-1.22,2.48-2.48,3.59-3.75a16.64,16.64,0,0,0,1.48-1.94,3.84,3.84,0,0,0,.67-1.56c0-.13,0,.06,0,.06a1.3,1.3,0,0,0-.38-.19,8.69,8.69,0,0,0-2.11-.38c-1.63-.12-3.39-.07-5.18,0s-3.61,0-5.56-.13a11.56,11.56,0,0,1-3.14-.66,4.65,4.65,0,0,1-1.84-1.24,3.6,3.6,0,0,1-.82-2.57,6.86,6.86,0,0,1,1.41-3.3,20.44,20.44,0,0,1,1.88-2.25,43.93,43.93,0,0,1,4.1-3.73,126.9,126.9,0,0,1,18-12c-5.34,4.83-10.87,9.4-16,14.27-1.25,1.23-2.48,2.48-3.59,3.75a17.07,17.07,0,0,0-1.47,1.94,3.74,3.74,0,0,0-.69,1.58c0,.08,0,0,0-.07a1.76,1.76,0,0,0,.4.19,8.29,8.29,0,0,0,2.11.38c1.62.12,3.39.07,5.17,0s3.62,0,5.56.13a11.94,11.94,0,0,1,3.14.66,4.53,4.53,0,0,1,1.84,1.26,3.4,3.4,0,0,1,.68,1.23,3.68,3.68,0,0,1,.12,1.3,6.92,6.92,0,0,1-1.4,3.32,20,20,0,0,1-1.88,2.24,41.38,41.38,0,0,1-4.1,3.73A126.9,126.9,0,0,1,433.69,193.07Z"/><rect class="cls-1" x="446.54" y="127.44" width="2.44" height="83.3" transform="translate(-30.81 176.39) rotate(-21.56)"/><path class="cls-1" d="M73.17,53.53a8.69,8.69,0,0,0-2.11-.38c-1-.07-2.05-.08-3.12-.07l2.17,5.48c.43-.46.87-.93,1.28-1.4a16.64,16.64,0,0,0,1.48-1.94,4,4,0,0,0,.66-1.53A2.33,2.33,0,0,0,73.17,53.53Z"/><path class="cls-1" d="M79.9,27.2C74.56,32,69,36.6,63.92,41.47l-.41.41,2.92,7.39c1.6,0,3.23,0,5,.14a11.94,11.94,0,0,1,3.14.66,4.53,4.53,0,0,1,1.84,1.26A3.4,3.4,0,0,1,77,52.56a3.68,3.68,0,0,1,.12,1.3,6.92,6.92,0,0,1-1.4,3.32,20,20,0,0,1-1.88,2.24c-.8.85-1.64,1.63-2.5,2.38L80,83.53V12.47c0-5.53-6.32-10-14.08-10S52,6.84,51.81,12.28L62.33,38.9A127.8,127.8,0,0,1,79.9,27.2Z"/><path class="cls-1" d="M49.36,89.94V12.47C49.36,5.6,56.77,0,65.88,0H50.76a12,12,0,0,0-12,12V90.42a12,12,0,0,0,12,12H65.88C56.77,102.42,49.36,96.82,49.36,89.94Z"/><path class="cls-1" d="M60.65,49.24c1,.08,2.08.08,3.17.07L61.64,43.8c-.45.47-.9.95-1.32,1.43a17.07,17.07,0,0,0-1.47,1.94,3.94,3.94,0,0,0-.68,1.52,1,1,0,0,0,.37.18A8.29,8.29,0,0,0,60.65,49.24Z"/><path class="cls-1" d="M58.17,48.74c0,.05,0,0,0,0Z"/><path class="cls-1" d="M81,0H65.88C75,0,82.41,5.6,82.41,12.47V89.94c0,6.88-7.41,12.47-16.53,12.47H81a12,12,0,0,0,12-12V12A12,12,0,0,0,81,0Z"/><path class="cls-1" d="M69.41,63.46a127.83,127.83,0,0,1-17.6,11.73c5.33-4.83,10.89-9.39,16-14.27l.44-.44-2.91-7.36c-1.62,0-3.26,0-5-.14a11.56,11.56,0,0,1-3.14-.66,4.65,4.65,0,0,1-1.84-1.24,3.6,3.6,0,0,1-.82-2.57,6.86,6.86,0,0,1,1.41-3.3A20.44,20.44,0,0,1,57.82,43c.82-.86,1.67-1.65,2.54-2.41L51.8,18.89V89.94c0,5.53,6.32,10,14.09,10S79.81,95.58,80,90.14Z"/><path class="cls-8" d="M508,147.59"/><path class="cls-8" d="M477.4,147.59"/><path class="cls-1" d="M480.85,184.5c3-1.41,6.1-2.69,9.1-4.08,1.51-.68,3-1.36,4.46-2.1s2.91-1.46,4.26-2.29a18.62,18.62,0,0,0,1.91-1.3,7.17,7.17,0,0,0,1.43-1.36c0-.1.14-.21.17-.29s.07-.15,0-.17,0,0,0,0,0,0,0,0a3.28,3.28,0,0,0-1.12-.89,24.52,24.52,0,0,0-4.23-1.7c-1.53-.5-3.1-1-4.69-1.41s-3.2-.95-4.82-1.5a24.75,24.75,0,0,1-4.91-2.2,6.23,6.23,0,0,1-2.41-2.51,4.06,4.06,0,0,1-.32-1.14,4,4,0,0,1,.1-1.19,4.53,4.53,0,0,1,.89-1.74,13.27,13.27,0,0,1,4.58-3.26,61.23,61.23,0,0,1,9.52-3.52c3.22-.9,6.46-1.71,9.75-2.3-3,1.41-6.09,2.69-9.1,4.08a89.78,89.78,0,0,0-8.73,4.39,12.53,12.53,0,0,0-3.33,2.66,1.12,1.12,0,0,0-.22.46c0,.05,0,0,0,0s0,0,0,0a3.54,3.54,0,0,0,1.13.88,23.8,23.8,0,0,0,4.22,1.7c1.53.5,3.1,1,4.7,1.41s3.2.95,4.82,1.5a24.82,24.82,0,0,1,4.91,2.19l.63.43c.21.16.42.35.63.52s.42.44.62.66a5.29,5.29,0,0,1,.54.9,3.58,3.58,0,0,1,.22,2.33,4.46,4.46,0,0,1-.38,1,7.39,7.39,0,0,1-.51.75,13.6,13.6,0,0,1-4.58,3.25,60.23,60.23,0,0,1-9.52,3.53C487.38,183.09,484.14,183.9,480.85,184.5Z"/><polyline class="cls-9" points="477.4 186.38 477.4 166.99 477.4 147.59 508.02 186.38 508.02 166.99 508.02 147.59"/><path class="cls-1" d="M422.27,57.38a29.12,29.12,0,0,1,4.05,1.71V41.3c-2.23,1-4.47,2-6.68,3s-4.57,2.1-6.73,3.27L419,56.34C420.08,56.67,421.17,57,422.27,57.38Z"/><path class="cls-1" d="M425.29,62.68a20.14,20.14,0,0,0-2.73-1.18l2.57,3.72a6.75,6.75,0,0,0,1.1-1.1l.08-.14v-.54A4.23,4.23,0,0,0,425.29,62.68Z"/><path class="cls-1" d="M411.31,54l-2.6-3.76a6.79,6.79,0,0,0-1.12,1.13l0,.06v.65a4.4,4.4,0,0,0,1,.71A18.21,18.21,0,0,0,411.31,54Z"/><path class="cls-1" d="M411.54,58.08a30.51,30.51,0,0,1-4-1.68V74.13c2.22-1,4.44-2,6.62-3,1.51-.68,3-1.36,4.46-2.1.78-.39,1.55-.78,2.31-1.18l-6.06-8.75C413.77,58.8,412.66,58.46,411.54,58.08Z"/><path class="cls-1" d="M399.39,42.68V72.78A7.18,7.18,0,0,0,406.57,80h20.72a7.18,7.18,0,0,0,7.18-7.18V42.68a7.18,7.18,0,0,0-7.18-7.18H406.57A7.18,7.18,0,0,0,399.39,42.68Zm31.89,32.06a2.6,2.6,0,0,1-1.42,2.38,2.48,2.48,0,0,1-3.1-.83l-4.2-6.07a70.56,70.56,0,0,1-7.73,2.72c-2.41.68-4.83,1.3-7.28,1.82v.05a2.52,2.52,0,0,1-1.82,2.46,2.49,2.49,0,0,1-3.15-2.4V40.73a2.61,2.61,0,0,1,1.29-2.32,2.49,2.49,0,0,1,3.23.77l4.18,6a70.25,70.25,0,0,1,7.7-2.7c2.43-.68,4.87-1.31,7.33-1.83v0a2.52,2.52,0,0,1,1.82-2.46,2.49,2.49,0,0,1,3.15,2.4Z"/><path class="cls-1" d="M485.13,41a2.52,2.52,0,0,0-1.82,2.46v0c-2.46.52-4.9,1.15-7.33,1.83a70.24,70.24,0,0,0-7.7,2.7l-4.18-6a2.49,2.49,0,0,0-3.23-.77,2.61,2.61,0,0,0-1.29,2.32V77.64a2.49,2.49,0,0,0,3.15,2.4,2.52,2.52,0,0,0,1.82-2.46v-.05c2.44-.52,4.86-1.14,7.28-1.82A70.57,70.57,0,0,0,479.55,73l4.2,6.07a2.48,2.48,0,0,0,3.1.83,2.6,2.6,0,0,0,1.42-2.38V43.36A2.49,2.49,0,0,0,485.13,41ZM464.54,54.17l0-.06A6.79,6.79,0,0,1,465.7,53l2.6,3.76a18.21,18.21,0,0,1-2.78-1.21,4.4,4.4,0,0,1-1-.71Zm11.09,17.67c-1.46.74-3,1.42-4.46,2.1-2.19,1-4.41,2-6.62,3V59.16a30.51,30.51,0,0,0,4,1.68c1.12.38,2.23.72,3.34,1.05l6.06,8.75C477.18,71.05,476.41,71.45,475.63,71.83Zm7.69-5.09-.08.14a6.76,6.76,0,0,1-1.1,1.1l-2.57-3.72a20.14,20.14,0,0,1,2.73,1.18,4.23,4.23,0,0,1,1,.76Zm0-4.89a29.12,29.12,0,0,0-4.05-1.71c-1.1-.38-2.19-.71-3.28-1l-6.08-8.78c2.17-1.16,4.44-2.23,6.73-3.27s4.44-2,6.68-3Z"/><path class="cls-1" d="M473.93,29.76A29.67,29.67,0,1,0,503.6,59.43,29.67,29.67,0,0,0,473.93,29.76Zm17.54,45.78a7.18,7.18,0,0,1-7.18,7.18H463.57a7.18,7.18,0,0,1-7.18-7.18V45.45a7.18,7.18,0,0,1,7.18-7.18h20.72a7.18,7.18,0,0,1,7.18,7.18Z"/><g class="cls-10"><path class="cls-1" d="M61.87,183.49l0-.93a1.64,1.64,0,0,1-.2.47C61.63,183.23,61.76,183.34,61.87,183.49Z"/><path class="cls-1" d="M61.93,181.7v-.17l-.05-.14Z"/><path class="cls-1" d="M61.78,180.07a3.33,3.33,0,0,0,0,.83A2.11,2.11,0,0,0,61.78,180.07Z"/><path class="cls-1" d="M61.64,181.37c.09-.1.17-.15.24,0h0l-.08-.49A1.61,1.61,0,0,1,61.64,181.37Z"/><path class="cls-1" d="M61.64,181.37c-.08.1-.16.25-.21.3A1.71,1.71,0,0,0,61.64,181.37Z"/><path class="cls-1" d="M59.62,181c-.06-.16.51-.13.38-.45a10.62,10.62,0,0,1-.42-2.12c-.13-.32.51-.84.38-1.16-.16-.76-.93-2.71-.9-1.56.09,1.72.24,2.85.35,4.4.23,1.26.5,2.47.71,3.75a5.38,5.38,0,0,1-.06,1l.26-1.4C60.49,182.79,59.75,182,59.62,181Z"/><path class="cls-1" d="M61.53,190.37l-.19-.49a3,3,0,0,0,.09-2.25l-.29.34c0,.44.19.49.32.1a5.74,5.74,0,0,0-.34,2.58C61.27,190.6,61.45,190.61,61.53,190.37Z"/><path class="cls-1" d="M61.16,191.15l0-.5,0,0,.08.5Z"/><path class="cls-1" d="M61.26,176.62c0-2.16,0-4.19.06-6.18-.11-.15-.24-.26-.17-.46a1.64,1.64,0,0,0,.2-.47l0-.86,0-.3h0c-.06-.16-.15-.12-.24,0a1.83,1.83,0,0,1-.22.3c.05-.06.13-.2.22-.3a1.59,1.59,0,0,0,.18-.46,3.12,3.12,0,0,1,0-.82,2.12,2.12,0,0,1,0,.82l.06.49,0,.14c0-.65.12-1.3.22-1.94v-.41c0-.48,0-1,.32-1.19l.09-.33-.06.05.08-.12c.12-.47.28-.94.43-1.36a4.88,4.88,0,0,1,0-1s.24-.08.36-.09a1.12,1.12,0,0,1,0-.67,2.2,2.2,0,0,0-.68.33c-.19.08-.14.36-.12.6s0,.46-.27.56c.32-.1.3-.31.27-.56s-.07-.52.12-.6a2.2,2.2,0,0,1,.68-.33c.12-.48.52-.92.95-.9a1.17,1.17,0,0,1-.95.9,1.12,1.12,0,0,0,0,.67c-.11,0-.36.09-.36.09a4.88,4.88,0,0,0,0,1,7.85,7.85,0,0,1,1.15-2.11,2.3,2.3,0,0,1,1.54-.93,1.91,1.91,0,0,1,1.52.91,5.28,5.28,0,0,1,.46.77l.47,1,1,2,4.14,8.71c.81,1.77,1.6,3.53,2.37,5.31a6,6,0,0,0,2.38,2.54,3.32,3.32,0,0,0,1.69.38,4,4,0,0,0,1.65-.46,6.5,6.5,0,0,0,2.51-2.53,14.42,14.42,0,0,0,1.36-3.37,24.32,24.32,0,0,0,.76-5.4,55.11,55.11,0,0,1,1-10.1c.51-2.66.23-7.6.17-10.16-1-3.44-3.41-1.65-3.55-1.49-2.09,2.11-.93,3.76-2.16,8.07.7-2.93,1.35,2.16-.09,4.93-1.09,2-1.2,4.43-1.11,7a33.44,33.44,0,0,1,.07,3.53,10.6,10.6,0,0,1-.21,1.63,5.05,5.05,0,0,1-.44,1.3c-.16.05-.12.21-.25.27a.37.37,0,0,1-.16-.26.3.3,0,0,1,0-.09c0-.07.1.14-.16-.37-.69-1.41-1.42-2.75-2.17-4.12l-2.69-4.85c-1.06-1.93-2.1-3.9-3.13-6a8.93,8.93,0,0,0-.45-.8,7.87,7.87,0,0,0-.87-1,5.34,5.34,0,0,0-1.93-1.17,4.47,4.47,0,0,0-4,.56,8.45,8.45,0,0,0-2.19,1.91,9.52,9.52,0,0,0-1.48,2.55c-.11.32-.26.72-.32,1s-.14.51-.18.74a12.57,12.57,0,0,0-.19,1.3,15,15,0,0,0,0,2.4c0-.84.07-1.59.15-2.36,0-.39.1-.78.18-1.2a11.13,11.13,0,0,1,.42-1.62c.34-.92.35-.49.31.25l0,.59V163c0,.35,0,.63,0,.84,0,.37-.69.79-.62,1.18a8,8,0,0,0,.14,2.32c.1.35-.47.28-.41.46.07,1.14.82,2,.66,2.61l-.26,1.4a4.47,4.47,0,0,0,0,.85l.14.56a1.35,1.35,0,0,1,.6-.26c0,.27-.16.66-.19.93,0-.27.16-.66.19-.93a1.35,1.35,0,0,0-.6.26c.34,1.36.64,2.94.88,4.4l.05,0a5.73,5.73,0,0,1,.34-2.58c-.13.38-.29.34-.32-.1l.29-.34a3,3,0,0,1-.09,2.25l.19.49c-.08.24-.26.23-.41.28l0,.5A7.15,7.15,0,0,0,61.26,176.62Z"/><path class="cls-1" d="M61.32,167.84c0,.12,0,.26,0,.41,0-.55.12-1.09.2-1.63C61.24,166.88,61.28,167.36,61.32,167.84Z"/></g><g class="cls-10"><path class="cls-1" d="M123.75,150.16l-.78.4a1.33,1.33,0,0,1,.52,0C123.71,150.58,123.7,150.37,123.75,150.16Z"/><path class="cls-1" d="M122.24,150.92l-.14.07-.08.13Z"/><path class="cls-1" d="M121,151.83a2.08,2.08,0,0,0,.66-.4A1.32,1.32,0,0,0,121,151.83Z"/><path class="cls-1" d="M122.17,151.42c-.14-.06-.24-.15-.15-.3h0l-.35.32A1.23,1.23,0,0,1,122.17,151.42Z"/><path class="cls-1" d="M122.17,151.42c.14.06.32.08.39.12A1.81,1.81,0,0,0,122.17,151.42Z"/><path class="cls-1" d="M123.21,154.11c-.09.15-.45-.57-.64-.27a7.24,7.24,0,0,1-1.5,1.49c-.19.3-1-.27-1.24,0-.54.53-1.72,2.36-.76,1.81,1.43-.87,2.3-1.54,3.52-2.4.91-.86,1.73-1.75,2.64-2.63a3.48,3.48,0,0,1,.89-.43c-.43.1-.86.21-1.34.35C124.15,152.2,124,153.48,123.21,154.11Z"/><path class="cls-1" d="M129.53,147.26l-.25.47c-.89-.14-1.37.43-1.87,1l.48.18c.33-.25.25-.47-.15-.43a3.77,3.77,0,0,0,2.33-.86C129.91,147.46,129.78,147.24,129.53,147.26Z"/><path class="cls-1" d="M130.44,147.31l-.37.3.05.05.34-.35Z"/><path class="cls-1" d="M118.49,154c-.89.49-1.78.92-2.66,1.32s-1.75.78-2.62,1.12c-.07.2-.08.41-.3.4a1.35,1.35,0,0,0-.52-.08l-.77.28-.24.17h0c-.1.14,0,.24.12.31a1.83,1.83,0,0,1,.38.16c-.08,0-.25-.09-.38-.16a1.22,1.22,0,0,0-.49,0,2.08,2.08,0,0,1-.7.33,1.33,1.33,0,0,1,.7-.33l.38-.28.09-.12-1.76.62-.34.21c-.38.27-.75.54-1.15.28l-.32.1.09,0-.14,0-1.35.42c-.27.27-.51.57-.75.8l-.55-.21a.81.81,0,0,1-.28.55c.41.08.79.22,1.07.29s.28-.11.38-.32.24-.39.54-.1c-.31-.29-.46-.11-.54.1s-.13.44-.38.32-.66-.21-1.07-.29a2.78,2.78,0,0,1-1.78.41c.25-.54,1.11-.54,1.78-.41a.81.81,0,0,0,.28-.55l.55.21c.25-.22.48-.52.75-.8-1,.33-2.07.68-3.14,1.12a6.27,6.27,0,0,0-3.82,3.38,4.5,4.5,0,0,0-.17,2.55,4.37,4.37,0,0,0,1.34,2.1c2.28,2.21,7.54,3.12,9.13,3.9a3.73,3.73,0,0,1,2.21,1.79,1.54,1.54,0,0,1-.22,1.33,2.73,2.73,0,0,1-1,.93,6.59,6.59,0,0,1-1.09.41c-.35.11-.56.16-.95.29-1.41.55-2.88,1.15-4.35,1.76a50.66,50.66,0,0,1-9.38,3.11c-2.62.62-6.62,3.35-8.65,4.76-2.11,2.89,1.22,4.91,1.44,5,3.25,1.47,3.7-.77,8-1.27-2.86.52.82-2.7,4-2.08,2.35.49,4.36-.34,6.4-1.44,1-.54,2-1.16,3.12-1.7.52-.27,1.09-.53,1.65-.76l2.4-.91a10.91,10.91,0,0,0,5.21-4.06,8.7,8.7,0,0,0,1.72-4.11,7.32,7.32,0,0,0-.7-4.31,8.44,8.44,0,0,0-3-3.22,16.28,16.28,0,0,0-4.62-2c-.41-.12-.84-.24-1.25-.34l-.72-.16-1.32-.28-.16,0h-.16l-.13,0c-.18,0-.46,0-.42-.24s-.32-.16-.59-.37a1,1,0,0,1-.45-.74.83.83,0,0,1,.59-.19,2.23,2.23,0,0,0,.55,0l.77-.36c.34-.17.65-.34,1-.53a19.55,19.55,0,0,0,1.74-1.2c-.66.35-1.22.68-1.81,1l-1.71.93c-.13.08-.23-.16-.2-.49,0-.14.18-.4.37-.62a4.8,4.8,0,0,1,.53-.53c.22-.28,1,.37,1.23.08a6.91,6.91,0,0,0,1.66-1.32c.22-.29.5.47.61.33.85-.56,1.14-1.82,1.8-1.88.49-.09.94-.15,1.38-.21a2.74,2.74,0,0,0,.76-.31l.4-.42a2.43,2.43,0,0,1-.59-.67c.25-.07.66-.07.92-.14-.26.07-.67.07-.92.14a2.43,2.43,0,0,0,.59.67c1-1,2.13-2,3.2-3l0-.06a3.79,3.79,0,0,1-2.39.68c.4,0,.46.22.11.45l-.47-.23c.55-.51,1.08-1.06,2-.84l.29-.45c.25,0,.36.23.51.4l.4-.27A6.05,6.05,0,0,0,118.49,154Z"/><path class="cls-1" d="M111,157.48l.33-.21-1.48.51C110.24,158,110.61,157.75,111,157.48Z"/></g><g class="cls-10"><path class="cls-1" d="M137.76,185.26c-.64.6-1.28,1.22-2,1.79.37-.26.71-.54,1.09-.79A3.69,3.69,0,0,0,137.76,185.26Z"/><path class="cls-1" d="M133.88,188.58l-.38.28-.3.27Z"/><path class="cls-1" d="M130.14,191.31a17.75,17.75,0,0,0,2-1.32C131.54,190.36,130.9,190.79,130.14,191.31Z"/><path class="cls-1" d="M133.26,189.32c-.26.13-.41.16-.06-.16h0c-.35.3-.72.57-1.1.86C132.52,189.72,132.93,189.52,133.26,189.32Z"/><path class="cls-1" d="M133.26,189.32l.77-.41C133.8,189,133.54,189.15,133.26,189.32Z"/><path class="cls-1" d="M133.13,191.17c-.37.31-.51-.08-1.24.53a39,39,0,0,1-5.23,3.38c-.81.52-2.36.75-3.18,1.21l-3.93,2c-1.17.55-1.69.87-.09.31a58.19,58.19,0,0,0,6.11-2.68,55.63,55.63,0,0,0,5.44-3.14,45.42,45.42,0,0,0,8.28-7.29c.74-.76,1.38-1.51,2.05-2.25-.44.48-.9,1-1.37,1.45s-1,1-1.53,1.46C137,187.37,135.58,189.33,133.13,191.17Z"/><path class="cls-1" d="M146.7,168.35v.87c0,.29,0,.53,0,.53-.61,2-1.12,4.07-1.9,6.11l.57-.81c.42-1.18.34-1.36-.1-.35a17.67,17.67,0,0,0,1.82-7.14C146.94,167.71,146.84,167.67,146.7,168.35Z"/><path class="cls-1" d="M147.08,166.11l0,1.45,0,0v-1.4Z"/><path class="cls-1" d="M121.52,196.13a68.76,68.76,0,0,1-17.17,4.45,4.3,4.3,0,0,1-1.31.28c-.45,0-.9,0-1.35,0l-2.49.19-.88.08h0c-.47.07-.32.12,0,.17s.63.06.88.1l-.88-.1c-.4,0-.84,0-1.35,0-.76.06-1.56.07-2.38.07.91-.07,1.7-.06,2.38-.07l1.4-.13.4-.06c-1.9.09-3.79.13-5.69.09H91.85a13.83,13.83,0,0,1-3.58-.25l-1-.1.19.05-.38-.07c-1.42-.12-2.84-.33-4.26-.53-.93-.08-1.89-.1-2.85-.23l-.91-.38a6.86,6.86,0,0,1-1.61-.12c.73.3,1.4.54,2,.75.92.4,2.2,0,3.27.52-1.07-.55-2.35-.12-3.27-.52-.63-.21-1.31-.45-2-.75a19.43,19.43,0,0,1-4.35-1.28,22.55,22.55,0,0,1,4.35,1.28,6.86,6.86,0,0,0,1.61.12L80,200c1,.13,1.92.15,2.85.23a72.67,72.67,0,0,1-8.33-1.79C65.56,196,57.3,192,50.77,185.85A31.06,31.06,0,0,1,43.11,175a23.65,23.65,0,0,1-1.61-6.58,16.61,16.61,0,0,1-.1-1.71,6.3,6.3,0,0,1,.1-1.6A9.79,9.79,0,0,1,42.77,162a26.94,26.94,0,0,1,4.84-5.76,52.16,52.16,0,0,1,5.88-4.7,71.48,71.48,0,0,1,13-7.07c8.94-3.74,18.09-6,27.29-6a60.49,60.49,0,0,1,27.05,6.91,95.9,95.9,0,0,1,12.27,7.23c4.27,3,8.06,6.59,9.85,9.31a25.36,25.36,0,0,1,2.27,3.39c.34.6.63.83.9.79s.48-.37.64-.77a3.34,3.34,0,0,0,.15-.94,9.8,9.8,0,0,0-1.34-4.4,20.2,20.2,0,0,0-2.95-4,72.44,72.44,0,0,0-10.88-9.25c1.76,1.25,2.24,1.76,1.93,1.65s-1.45-.77-3-1.7-3.62-2.08-5.72-3.24l-6.09-3.25a50.16,50.16,0,0,0-19.87-5.6,59.4,59.4,0,0,0-11.58.28A89.58,89.58,0,0,0,76.21,137,70.89,70.89,0,0,0,65,141a71,71,0,0,0-14.65,8.31,50.42,50.42,0,0,0-6.37,5.59,24.43,24.43,0,0,0-5.1,7.39c-.14.4-.29.79-.41,1.19s-.2.87-.28,1.31-.09,1-.09,1.4l.05,1.12a26.43,26.43,0,0,0,.62,4.44A28.51,28.51,0,0,0,42.1,180,41.59,41.59,0,0,0,54.59,192.8a53.65,53.65,0,0,0,15.85,6.88,88.1,88.1,0,0,0,10.84,2.67,62.35,62.35,0,0,0,13.24.65,74.84,74.84,0,0,1-12.92-.68c-3.35-.5,2.41-.11,4.63-.06,1,0,2.41.57,3.38.51a26.86,26.86,0,0,0,3.05,0c1,0,2-.13,3.16-.2.95-.1.85.3,1.33.23,3-.2,5.31-1,7.24-1.12,1.46-.15,2.78-.27,4.06-.47.81-.13,1.61-.26,2.45-.48l1.58-.47a1.38,1.38,0,0,1-.83-.25c.78-.14,1.89-.37,2.67-.54-.78.17-1.88.4-2.67.54a1.38,1.38,0,0,0,.83.25,74.82,74.82,0,0,0,11.89-4.8h-.07a32.51,32.51,0,0,1-7,2.5c1.08-.27,1-.12-.21.31l-1,.09c2.08-.75,4.09-1.6,6.12-2.14l1.24-.68c.66-.23.68-.11.86-.08l1.31-.66c-.51.12-1.52.5-2.42.79Z"/><path class="cls-1" d="M96.86,201.25l1.18-.09c-1.59.08-3.18.08-4.78.06A13.75,13.75,0,0,0,96.86,201.25Z"/></g><rect class="cls-1" x="347.61" y="35.51" width="35.08" height="44.45" rx="12" ry="12"/><path class="cls-8" d="M380.45,38.34"/><path class="cls-11" d="M370.48,57.38a29.12,29.12,0,0,1,4.05,1.71V41.3c-2.23,1-4.47,2-6.68,3s-4.57,2.1-6.73,3.27l6.08,8.78C368.29,56.67,369.38,57,370.48,57.38Z"/><path class="cls-11" d="M373.5,62.68a20.14,20.14,0,0,0-2.73-1.18l2.57,3.72a6.75,6.75,0,0,0,1.1-1.1l.08-.14v-.54A4.23,4.23,0,0,0,373.5,62.68Z"/><path class="cls-11" d="M359.52,54l-2.6-3.76a6.79,6.79,0,0,0-1.12,1.13l0,.06v.65a4.4,4.4,0,0,0,1,.71A18.21,18.21,0,0,0,359.52,54Z"/><path class="cls-11" d="M359.76,58.08a30.51,30.51,0,0,1-4-1.68V74.13c2.22-1,4.44-2,6.62-3,1.51-.68,3-1.36,4.46-2.1.78-.39,1.55-.78,2.31-1.18l-6.06-8.75C362,58.8,360.88,58.46,359.76,58.08Z"/><path class="cls-11" d="M347.61,42.68V72.78A7.18,7.18,0,0,0,354.78,80h20.72a7.18,7.18,0,0,0,7.18-7.18V42.68a7.18,7.18,0,0,0-7.18-7.18H354.78A7.18,7.18,0,0,0,347.61,42.68ZM379.5,74.74a2.6,2.6,0,0,1-1.42,2.38,2.48,2.48,0,0,1-3.1-.83l-4.2-6.07A70.56,70.56,0,0,1,363,72.93c-2.41.68-4.83,1.3-7.28,1.82v.05a2.52,2.52,0,0,1-1.82,2.46,2.49,2.49,0,0,1-3.15-2.4V40.73a2.61,2.61,0,0,1,1.29-2.32,2.49,2.49,0,0,1,3.23.77l4.18,6a70.25,70.25,0,0,1,7.7-2.7c2.43-.68,4.87-1.31,7.33-1.83v0a2.52,2.52,0,0,1,1.82-2.46,2.49,2.49,0,0,1,3.15,2.4Z"/><circle class="cls-11" cx="375.58" cy="28.33" r="4.29"/><circle class="cls-11" cx="363.24" cy="30.56" r="3.01"/><circle class="cls-11" cx="361.12" cy="22.58" r="3.03" transform="translate(25.35 157.39) rotate(-25.45)"/><circle class="cls-11" cx="353.25" cy="61.12" r="2.06"/><circle class="cls-11" cx="354.32" cy="67.04" r="1.44"/><circle class="cls-11" cx="350.49" cy="68.05" r="1.45" transform="translate(4.77 157.24) rotate(-25.45)"/><circle class="cls-11" cx="376.24" cy="49.47" r="2.06"/><circle class="cls-11" cx="375.17" cy="43.55" r="1.44"/><circle class="cls-11" cx="379" cy="42.54" r="1.45" transform="translate(18.51 167.01) rotate(-25.45)"/><circle class="cls-11" cx="369.62" cy="14.08" r="1.23" transform="translate(29.82 160.22) rotate(-25.45)"/><circle class="cls-11" cx="355.31" cy="85.25" r="4.29" transform="translate(-4.15 150.85) rotate(-23.83)"/><circle class="cls-11" cx="370.86" cy="84.67" r="3.03" transform="translate(64.79 310.55) rotate(-49.29)"/><circle class="cls-11" cx="366.52" cy="95.87" r="2.93" transform="translate(54.78 311.16) rotate(-49.29)"/><circle class="cls-11" cx="364.35" cy="88.17" r="1.68" transform="matrix(0.65, -0.76, 0.76, 0.65, 59.87, 306.84)"/><path class="cls-12" d="M22.25,427.67s-43.14-28.48-4.48-47.8l21.29,23.53S50.26,373,41.3,357.27s-5.23-33.8,12-41.92,0-26.37,0-26.37,19,18.62,16.81,26.37-36.6,18.21-18.67,33.71,31.75,11,29.88,22.78-50.42,10.08-19.42,23.34,27.64-5.6,24.28-8.22a61.22,61.22,0,0,1,8,6.58c12.84,12,4.73,27-18.43,34.13h0"/><path class="cls-13" d="M138.84,420.38s-43.14-28.48-4.48-47.8l21.29,23.53s11.2-30.44,2.24-46.12-5.23-33.8,12-41.92,0-26.37,0-26.37,19,18.62,16.81,26.37S150,326.27,168,341.77s31.75,11,29.88,22.78-50.42,10.08-19.42,23.34,27.64-5.6,24.28-8.22a61.22,61.22,0,0,1,8,6.58c12.84,12,4.73,27-18.43,34.13h0"/><path class="cls-1" d="M317.7,364.83c-1.2-2.25-2.3-4.07-3-5.19-1.49-2.36-2.39-3.79-3.89-2.78-1,.66-1.69,2.34-1.87,4.37a9.38,9.38,0,0,0,.94,5.2,6.51,6.51,0,0,1,.07,2.57s-1.66,2.85-9.19-3.58c-.71-.61-1.29-1.14-1.76-1.61.81-.53,1.71-1,2.43-1.47,4.7-2.74,10-5.84,10.7-14.23.86-10.89-3-14-6.38-16.81a35.77,35.77,0,0,1-9.5-11.09,10.51,10.51,0,0,1-1.61-4.83c.1-3.46,3.68-8.39,6.05-11.65,2.86-3.92,5.11-7,5.75-11.44.75-5.2-.61-11.92-4.28-21.14-2.32-5.83-4.75-10.59-4.85-10.8-1.09-2.13-2.83-2.13-3.92,0a10,10,0,0,0-.08,7.84c1.11,2.36,3.41,8.92,3,13.09a6.62,6.62,0,0,1-2.17,4.38C289.56,290,286.38,297,285,305.92a70.1,70.1,0,0,0,2,29.51c2.28,8,1.31,22.1.06,32.22l-7.31-16.16c-.84-1.87-2.2-2.38-3.33-1.25-6.07,6.07-9.3,13.88-9.57,23.19-.54,17.84,10.29,32.67,11.52,34.3s3,1,3.88-1.58.5-6.05-.79-7.76c-2.61-3.46-9.32-14.58-9-24.29A19.32,19.32,0,0,1,277,362.29l9.16,20.24c.66,1.45,1.65,2.12,2.61,1.74s1.76-1.72,2.1-3.56c0-.26,1-5.28,1.78-12.32a19.59,19.59,0,0,0,5.88,7.32c4.18,3.57,7.51,5.25,10.19,5.12,3.62-.17,5.29-3.74,6-6a15.77,15.77,0,0,1,1.2,7.91c-.66,5.75-4.56,11.48-10.19,15-1.48.91-2.3,4.05-1.85,7,.37,2.4,1.48,3.95,2.67,3.95a1.57,1.57,0,0,0,.83-.25c7.75-4.8,12.85-13.24,14-23.16A35.16,35.16,0,0,0,317.7,364.83Zm-25.88-35a52.26,52.26,0,0,1-1.27-5.62,26.8,26.8,0,0,0,2.05,4.42,42.07,42.07,0,0,0,11,13,12.7,12.7,0,0,1,2.91,2.84c0,.09.16.3.07,1.62-.71,1.93-4.78,4.29-6.75,5.44-2.41,1.4-4.64,2.7-6.16,4.74C294.31,345.23,293.67,336.36,291.82,329.87Zm27.66,54.5a27.29,27.29,0,0,1-12.66,20.29.47.47,0,0,1-.25.08c-.36,0-.69-.46-.8-1.18a2.29,2.29,0,0,1,.55-2.1,24.55,24.55,0,0,0,11.52-17.83,22.92,22.92,0,0,0-2.63-13.47c-.54-1-1.06-1.93-1.54-2.75a17.15,17.15,0,0,1-.57,5.23c-1.21,4.1-4.58,7.34-13.78-.53-4.11-3.52-5.76-6.17-5.67-9.13.11-3.77,3-5.48,6.76-7.64,3.48-2,7.82-4.55,8.12-8.38.39-5-.61-6-4.16-8.92a40,40,0,0,1-10.5-12.33A20.13,20.13,0,0,1,291,315c.2-7,4.14-12.46,7.63-17.25,2-2.73,4-5.55,4.31-7.46.4-2.77-1.1-8-3.13-13.3a28.18,28.18,0,0,1,.08,5.68c-.39,4.12-1.8,7.35-4.19,9.61-3.67,3.47-6.18,9-7.27,15.86a56.39,56.39,0,0,0,1.66,23.71c4.62,16.18-.83,46.27-1.06,47.54l-.48,2.61-11.14-24.63a24.5,24.5,0,0,0-7,16.53c-.42,14,9.79,27.66,9.9,27.79a2.86,2.86,0,0,1,.24,2.33c-.26.77-.78,1-1.16.48s-11.13-14.88-10.65-30.79a28.49,28.49,0,0,1,8.49-19.92l.57-.57,10.11,22.34c1.21-7.66,4.22-29.84.73-42a62.71,62.71,0,0,1-1.81-26.39c1.23-7.82,4.05-14,8.15-17.89a11,11,0,0,0,3.26-7.19c.7-7.42-3.47-16.42-3.51-16.51l1.2-2.35c1,2,9.85,19.57,8.62,28-.44,3.06-2.44,5.81-5,9.29-3,4.13-6.75,9.28-6.9,14.67a15,15,0,0,0,2.28,8,38.27,38.27,0,0,0,10,11.76c3.37,2.75,5.8,4.74,5.18,12.56-.47,5.94-5,8.55-9.31,11.08a28.74,28.74,0,0,0-4.15,2.72c-1.34,1.16-1.4,1.89-1.4,1.89s0,1.86,4.65,5.84c6.21,5.31,10.46,6,11.67,1.92a12.87,12.87,0,0,0-.38-7.26,21.36,21.36,0,0,1-.33-2.78s4.26,4.64,5.41,6.8A28.33,28.33,0,0,1,319.48,384.37ZM291.57,304.1a20,20,0,0,1,5-8.3l.08-.08A48.76,48.76,0,0,0,291.57,304.1Zm8.18-12.74a20.17,20.17,0,0,0,1.19-3.13c.07.41.1.7.11.89A15,15,0,0,1,299.75,291.35Z"/><path class="cls-1" d="M191.57,243.31c2.18,2-1.56,2.61-3,8.51-.52,2.16-6.67-5.08-5-7.49,2.48-3.63,3.57-3.85,3.29-6.08-.26-2.06.16.28.91-4.1C193.44,246.81,187,239,191.57,243.31Z"/><path class="cls-1" d="M186,278.1c2.18,2-1.56,2.61-3,8.51-.52,2.16-6.67-5.08-5-7.49,2.48-3.63,3.57-3.85,3.29-6.08-.26-2.06.16.28.91-4.1C187.84,281.59,181.36,273.81,186,278.1Z"/><path class="cls-1" d="M282.73,378.93c2.74,1.18-.59,3,0,9,.23,2.21-8-2.55-7.24-5.38,1.12-4.25,2.07-4.83,1.06-6.83s.25.21-.52-4.17C285.66,381.6,276.95,376.44,282.73,378.93Z"/><path class="cls-1" d="M298.79,392c2.69,3.52-2.93,3.43-6.5,11.72-1.31,3-8.5-9.11-5.48-12.23,4.55-4.69,6.19-4.76,6.33-8.08.13-3.08.17.45,2.36-5.78C300.65,397.6,293.11,384.57,298.79,392Z"/><path class="cls-1" d="M304.89,386.56c-2.49.14-.39,2.51-2.62,7.07-.82,1.67,7,.29,7.22-2.14.34-3.66-.24-4.38,1.13-5.66s-.25.09,1.6-3.12C301.83,387.82,310.14,386.26,304.89,386.56Z"/><path class="cls-1" d="M196.44,256.33c1.28,2.14-.67,2.5-1.08,8.27-.15,2.12-3.86-5.44-3.12-7.73,1.11-3.45,1.67-3.61,1.39-5.84-.26-2.06.1.28.24-4C197.64,259.91,193.73,251.8,196.44,256.33Z"/><path class="cls-1" d="M284.49,347.15c1.47,2-.12,2.53.57,8.24.25,2.1-4.22-4.88-4-7.22.31-3.52.76-3.74.12-5.89-.59-2,.14.27-.52-4C286.14,350.52,281.39,343,284.49,347.15Z"/><path class="cls-1" d="M304.15,311.22c.38,2.44-1.41,2.13-3.68,7.43-.83,1.94-1.48-6.37-.09-8.29,2.1-2.89,2.64-2.86,3.14-5,.46-2,0,.3,1.55-3.7C304,315,303.34,306.08,304.15,311.22Z"/><rect class="cls-1" x="250.29" y="416.31" width="81.6" height="6.73" rx="3.37" ry="3.37" transform="translate(650.6 782.46) rotate(170.01)"/><path class="cls-1" d="M256.21,408.88a4.57,4.57,0,1,0-1.59,9l10.11,1.78L291.09,415Zm-.54,5.36c2.59,1.12,18.93,2.45,19.1,2.46l0,.56c-.68-.05-16.6-1.35-19.28-2.51-.93-.41-1.38-.84-1.35-1.33,0-.73,1.15-1.12,1.38-1.19l.07,0h.07l19.19,3.36-.1.55-19.12-3.35c-.4.14-.91.43-.92.67S254.92,413.91,255.68,414.24ZM255,411c-.32.12-1.78.72-2,1.79-.15.66.19,1.4,1,2.21,1.75,1.73,4.77,1.9,7.69,2.06a16.79,16.79,0,0,1,5.61.9l-.23.51a16.47,16.47,0,0,0-5.41-.85c-3-.17-6.14-.34-8-2.22a3,3,0,0,1-1.16-2.73c.35-1.5,2.37-2.19,2.46-2.21l.07,0h.07l25.7,4.48-.1.55Z"/><path class="cls-1" d="M327.56,421.45l-10.11-1.78-26.36,4.65L326,430.46a4.57,4.57,0,1,0,1.59-9Zm-.61,3.89c-2.59-1.12-18.93-2.45-19.1-2.46l0-.56c.68.05,16.6,1.35,19.28,2.51.93.41,1.38.84,1.35,1.33,0,.73-1.15,1.12-1.38,1.19l-.07,0H327L307.83,424l.1-.55L327,426.79c.4-.14.91-.43.92-.67S327.71,425.67,327,425.34Zm3.22,1.54c-.35,1.5-2.37,2.19-2.46,2.21l-.07,0h-.07l-25.7-4.48.1-.55,25.63,4.47c.32-.12,1.78-.72,2-1.79.15-.66-.19-1.4-1-2.21-1.75-1.73-4.77-1.9-7.69-2.06a16.79,16.79,0,0,1-5.61-.9l.23-.51a16.47,16.47,0,0,0,5.41.85c3,.17,6.14.34,8,2.22A3,3,0,0,1,330.17,426.88Z"/><path d="M324.44,412.95c-2.71-.07-18.68,3.56-18.84,3.59l-.07-.4c.66-.15,16.22-3.68,19-3.61,1,0,1.49.21,1.57.55.11.53-.88,1.11-1.08,1.22l-.06,0h-.07l-19.11,3,0-.41,19-3c.35-.21.79-.56.75-.73S325.24,413,324.44,412.95Z"/><path d="M327.85,413.14c0,1.15-1.83,2.19-1.91,2.24l-.06,0h-.07l-25.59,4,0-.41,25.52-4c.29-.18,1.56-1,1.58-1.82,0-.5-.46-.93-1.41-1.27-2-.73-5,0-7.8.7a22.48,22.48,0,0,1-5.57.93l.11-.42a22.06,22.06,0,0,0,5.37-.91c2.93-.73,6-1.47,8.18-.69C327.3,411.94,327.86,412.48,327.85,413.14Z"/><path d="M256.13,425.92c2.71.07,18.68-3.56,18.84-3.59l.07.4c-.66.15-16.22,3.68-19,3.61-1,0-1.49-.21-1.57-.55-.11-.53.88-1.11,1.08-1.22l.06,0h.07l19.11-3,0,.41-19,3c-.35.21-.79.56-.75.73S255.33,425.9,256.13,425.92Z"/><path d="M252.73,425.74c0-1.15,1.83-2.19,1.91-2.24l.06,0h.07l57.93-10.36,0,.41-57.85,10.35c-.29.18-1.56,1-1.58,1.82,0,.5.46.93,1.41,1.27,2,.73,5,0,7.8-.7a22.48,22.48,0,0,1,5.57-.93l-.11.42a22.06,22.06,0,0,0-5.37.91c-2.93.73-6,1.47-8.18.69C253.27,426.93,252.71,426.39,252.73,425.74Z"/><path class="cls-1" d="M456.63,380.9c-1.2-2.25-2.3-4.07-3-5.19-1.49-2.36-2.39-3.79-3.89-2.78-1,.66-1.69,2.34-1.87,4.37a9.38,9.38,0,0,0,.94,5.2,6.51,6.51,0,0,1,.07,2.57s-1.66,2.85-9.19-3.58c-.71-.61-1.29-1.14-1.76-1.61.81-.53,1.71-1,2.43-1.47,4.7-2.74,10-5.84,10.7-14.23.86-10.89-3-14-6.38-16.81a35.77,35.77,0,0,1-9.5-11.09,10.51,10.51,0,0,1-1.61-4.83c.1-3.46,3.68-8.39,6.05-11.65,2.86-3.92,5.11-7,5.75-11.44.75-5.2-.61-11.92-4.28-21.14-2.32-5.83-4.75-10.59-4.85-10.8-1.09-2.13-2.83-2.13-3.92,0a10,10,0,0,0-.08,7.84c1.11,2.36,3.41,8.92,3,13.09a6.62,6.62,0,0,1-2.17,4.38c-4.61,4.36-7.78,11.36-9.18,20.25a70.1,70.1,0,0,0,2,29.51c2.28,8,1.31,22.1.06,32.22l-7.31-16.16c-.84-1.87-2.2-2.38-3.33-1.25-6.07,6.07-9.3,13.88-9.57,23.19-.54,17.84,10.29,32.67,11.52,34.3s3,1,3.88-1.58.5-6.05-.79-7.76c-2.61-3.46-9.32-14.58-9-24.29A19.32,19.32,0,0,1,416,378.36l9.16,20.24c.66,1.45,1.65,2.12,2.61,1.74s1.76-1.72,2.1-3.56c0-.26,1-5.28,1.78-12.32a19.59,19.59,0,0,0,5.88,7.32c4.18,3.57,7.51,5.25,10.19,5.12,3.62-.17,5.29-3.74,6-6a15.77,15.77,0,0,1,1.2,7.91c-.66,5.75-4.56,11.48-10.19,15-1.48.91-2.3,4.05-1.85,7,.37,2.4,1.48,3.95,2.67,3.95a1.57,1.57,0,0,0,.83-.25c7.75-4.8,12.85-13.24,14-23.16A35.16,35.16,0,0,0,456.63,380.9Zm-25.88-35a52.26,52.26,0,0,1-1.27-5.62,26.8,26.8,0,0,0,2.05,4.42,42.07,42.07,0,0,0,11,13,12.7,12.7,0,0,1,2.91,2.84c0,.09.16.3.07,1.62-.71,1.93-4.78,4.29-6.75,5.44-2.41,1.4-4.64,2.7-6.16,4.74C433.24,361.3,432.61,352.43,430.75,345.94Zm27.66,54.5a27.29,27.29,0,0,1-12.66,20.29.47.47,0,0,1-.25.08c-.36,0-.69-.46-.8-1.18a2.29,2.29,0,0,1,.55-2.1,24.55,24.55,0,0,0,11.52-17.83,22.92,22.92,0,0,0-2.63-13.47c-.54-1-1.06-1.93-1.54-2.75a17.15,17.15,0,0,1-.57,5.23c-1.21,4.1-4.58,7.34-13.78-.53-4.11-3.52-5.76-6.17-5.67-9.13.11-3.77,3-5.48,6.76-7.64,3.48-2,7.82-4.55,8.12-8.38.39-5-.61-6-4.16-8.92a40,40,0,0,1-10.5-12.33A20.13,20.13,0,0,1,429.95,331c.2-7,4.14-12.46,7.63-17.25,2-2.73,4-5.55,4.31-7.46.4-2.77-1.1-8-3.13-13.3a28.18,28.18,0,0,1,.08,5.68c-.39,4.12-1.8,7.35-4.19,9.61-3.67,3.47-6.18,9-7.27,15.86A56.39,56.39,0,0,0,429,347.89c4.62,16.18-.83,46.27-1.06,47.54l-.48,2.61L416.37,373.4a24.5,24.5,0,0,0-7,16.53c-.42,14,9.79,27.66,9.9,27.79a2.86,2.86,0,0,1,.24,2.33c-.26.77-.78,1-1.16.48s-11.13-14.88-10.65-30.79a28.49,28.49,0,0,1,8.49-19.92l.57-.57,10.11,22.34c1.21-7.66,4.22-29.84.73-42a62.71,62.71,0,0,1-1.81-26.39c1.23-7.82,4.05-14,8.15-17.89a11,11,0,0,0,3.26-7.19c.7-7.42-3.47-16.42-3.51-16.51l1.2-2.35c1,2,9.85,19.57,8.62,28-.44,3.06-2.44,5.81-5,9.29-3,4.13-6.75,9.28-6.9,14.67a15,15,0,0,0,2.28,8A38.27,38.27,0,0,0,444,351c3.37,2.75,5.8,4.74,5.18,12.56-.47,5.94-5,8.55-9.31,11.08a28.74,28.74,0,0,0-4.15,2.72c-1.34,1.16-1.4,1.89-1.4,1.89s0,1.86,4.65,5.84c6.21,5.31,10.46,6,11.67,1.92a12.87,12.87,0,0,0-.38-7.26,21.36,21.36,0,0,1-.33-2.78s4.26,4.64,5.41,6.8A28.33,28.33,0,0,1,458.41,400.44ZM430.5,320.16a20,20,0,0,1,5-8.3l.08-.08A48.76,48.76,0,0,0,430.5,320.16Zm8.18-12.74a20.17,20.17,0,0,0,1.19-3.13c.07.41.1.7.11.89A15,15,0,0,1,438.68,307.42Z"/><path class="cls-1" d="M438.31,259.38c2.18,2-1.56,2.61-3,8.51-.52,2.16-6.67-5.08-5-7.49,2.48-3.63,3.57-3.85,3.29-6.08-.26-2.06.16.28.91-4.1C440.18,262.87,433.7,255.09,438.31,259.38Z"/><path class="cls-1" d="M432.71,294.16c2.18,2-1.56,2.61-3,8.51-.52,2.16-6.67-5.08-5-7.49,2.48-3.63,3.57-3.85,3.29-6.08-.26-2.06.16.28.91-4.1C434.58,297.66,428.1,289.88,432.71,294.16Z"/><path class="cls-1" d="M421.66,395c2.74,1.18-.59,3,0,9,.23,2.21-8-2.55-7.24-5.38,1.12-4.25,2.07-4.83,1.06-6.83s.25.21-.52-4.17C424.59,397.66,415.88,392.5,421.66,395Z"/><path class="cls-1" d="M437.72,408.07a21.05,21.05,0,0,0-2.12-2.51c.46.22,1.9,0-1.17-11.86-2.19,6.23-2.23,2.7-2.36,5.78-.14,3.33-1.79,3.39-6.33,8.08-3,3.12,4.17,15.27,5.48,12.23C434.79,411.5,440.42,411.59,437.72,408.07Z"/><path class="cls-1" d="M443.83,402.63c-2.49.14-.39,2.51-2.62,7.07-.82,1.67,7,.29,7.22-2.14.34-3.66-.24-4.38,1.13-5.66s-.25.09,1.6-3.12C440.76,403.88,449.08,402.33,443.83,402.63Z"/><path class="cls-1" d="M443.18,272.4c1.28,2.14-.67,2.5-1.08,8.27-.15,2.12-3.86-5.44-3.12-7.73,1.11-3.45,1.67-3.61,1.39-5.84-.26-2.06.1.28.24-4C444.38,276,440.47,267.87,443.18,272.4Z"/><path class="cls-1" d="M423.42,363.22c1.47,2-.12,2.53.57,8.24.25,2.1-4.22-4.88-4-7.22.31-3.52.76-3.74.12-5.89-.59-2,.14.27-.52-4C425.08,366.59,420.32,359.1,423.42,363.22Z"/><path class="cls-1" d="M443.08,327.29c.38,2.44-1.41,2.13-3.68,7.43-.83,1.94-1.48-6.37-.09-8.29,2.1-2.89,2.64-2.86,3.14-5,.46-2,0,.3,1.55-3.7C442.91,331.05,442.27,322.15,443.08,327.29Z"/><path class="cls-1" d="M434.7,245.63A92.68,92.68,0,1,1,342,338.31a92.78,92.78,0,0,1,92.68-92.68m0-2.45a95.13,95.13,0,1,0,95.13,95.13,95.13,95.13,0,0,0-95.13-95.13Z"/></g></g></svg>