<svg xmlns="http://www.w3.org/2000/svg" viewBox="0 0 441.92 391.36"><defs><style>.cls-1{fill:#fff;}.cls-12,.cls-13,.cls-2,.cls-3,.cls-4,.cls-5,.cls-6,.cls-7,.cls-8,.cls-9{fill:none;stroke:#fff;}.cls-12,.cls-2,.cls-4,.cls-6,.cls-7,.cls-8{stroke-miterlimit:10;}.cls-2{stroke-width:8.62px;}.cls-12,.cls-13,.cls-3,.cls-5,.cls-9{stroke-linecap:round;}.cls-3,.cls-5{stroke-linejoin:bevel;}.cls-3,.cls-4{stroke-width:7.15px;}.cls-5,.cls-6{stroke-width:2.11px;}.cls-7{stroke-width:2.44px;}.cls-8,.cls-9{stroke-width:1.73px;}.cls-13,.cls-9{stroke-linejoin:round;}.cls-10{opacity:0.85;}.cls-11{fill:#662d91;}.cls-12{stroke-width:3.27px;}.cls-13{stroke-width:10.91px;}</style></defs><title>concept_logo_1</title><g id="Layer_2" data-name="Layer 2"><g id="Layer_1-2" data-name="Layer 1"><path class="cls-1" d="M84.15,39.88v.33a2.06,2.06,0,0,0,4.07.39l.06-.33a2.06,2.06,0,0,0-2-2.45h-.06A2.06,2.06,0,0,0,84.15,39.88Z"/><path class="cls-1" d="M97.65,44.66,94.44,61.27a2.06,2.06,0,0,0,0,.78L98.59,83.5a2.06,2.06,0,0,0,2,1.66H112a2.06,2.06,0,0,0,1.69-3.22l-11.09-16a2.06,2.06,0,0,1-.31-.71Z"/><path class="cls-1" d="M86.21,85.17h0a2.06,2.06,0,0,0,2-2.45h0a2.06,2.06,0,0,0-4.07.39h0A2.06,2.06,0,0,0,86.21,85.17Z"/><polygon class="cls-1" points="118.97 71.91 120.94 61.7 116.32 37.83 106.39 37.83 111.74 61.46 118.97 71.91"/><path class="cls-1" d="M180.56,80.87l-1.15.22a2.06,2.06,0,0,0,.39,4.07h.41a2.06,2.06,0,0,0,2.06-2.06S181.53,80.68,180.56,80.87Z"/><path class="cls-1" d="M126.56,40.27l4.07,21a2.06,2.06,0,0,1,0,.78l-4.46,23.07H157.9l-22.21-4.3a2.06,2.06,0,0,1-1.66-2v-6a2.06,2.06,0,0,1,2.45-2l21,4.07a2.06,2.06,0,0,0,.78,0l15.94-3.37L161.3,63.86c-.26-.06-7.43,3-7.64,2.84L134,53.1,134,53H134V44.47a2.06,2.06,0,0,1,1.66-2l21.82-4.22a2.06,2.06,0,0,1,.78,0l21.82,4.22a2.06,2.06,0,0,1,1.66,2v6a2.06,2.06,0,0,1-2.45,2l-21.73-4.87L145.7,51.4l9.63,6.19,7.57-1.45,16.39,6.24a2.06,2.06,0,0,0,2.51-2V39.88a2.06,2.06,0,0,0-2.06-2.06H128.57A2.06,2.06,0,0,0,126.56,40.27Z"/><path class="cls-2" d="M260.79,145.11v43.78a4.45,4.45,0,0,0,4.45,4.45h52.63"/><path class="cls-2" d="M265.28,140.64h52.49a4.45,4.45,0,0,1,4.45,4.45v28"/><path class="cls-2" d="M281.19,154.76,268.39,142a4.45,4.45,0,0,0-7.6,3.15V158a4.45,4.45,0,0,0,4.45,4.45h16"/><path class="cls-2" d="M302,179.22l12.8,12.8a4.45,4.45,0,0,0,7.6-3.15V174.48A4.45,4.45,0,0,0,318,170H302"/><rect class="cls-2" x="287.54" y="161.12" width="8.91" height="8.91" rx="4.45" ry="4.45" transform="translate(202.6 -157.97) rotate(45)"/><path class="cls-1" d="M146.18,147.7a37.66,37.66,0,0,1,2.8,9.64,60.25,60.25,0,0,1,.77,9.64,59.19,59.19,0,0,1-.76,9.64,37.25,37.25,0,0,1-2.81,9.64,37.26,37.26,0,0,1-2.81-9.64,59.18,59.18,0,0,1-.76-9.64,60.24,60.24,0,0,1,.77-9.64A37.66,37.66,0,0,1,146.18,147.7Z"/><polyline class="cls-3" points="219.16 147.7 219.16 166.99 219.16 186.28 182.67 166.99 146.18 147.7 146.18 166.99 146.18 186.28"/><path class="cls-1" d="M123.07,142.1A41,41,0,0,1,140,149.57a27.91,27.91,0,0,1,6.73,7.24,18.56,18.56,0,0,1,0,20.36,27.89,27.89,0,0,1-6.73,7.25,40.89,40.89,0,0,1-16.92,7.47c2.36-2,4.72-3.8,6.95-5.71a70.27,70.27,0,0,0,6.19-5.92,30.64,30.64,0,0,0,4.62-6.45c.28-.56.52-1.13.77-1.69a15.08,15.08,0,0,0,.54-1.71,12.64,12.64,0,0,0,0-6.84,15.09,15.09,0,0,0-.54-1.71c-.25-.56-.49-1.13-.77-1.69a30.6,30.6,0,0,0-4.62-6.45A69.73,69.73,0,0,0,130,147.8C127.79,145.89,125.43,144.07,123.07,142.1Z"/><path class="cls-1" d="M219.16,147.7a37.66,37.66,0,0,1,2.8,9.64,60.24,60.24,0,0,1,.77,9.64,59.18,59.18,0,0,1-.76,9.64,37.26,37.26,0,0,1-2.81,9.64,37.25,37.25,0,0,1-2.81-9.64,59.19,59.19,0,0,1-.76-9.64,60.25,60.25,0,0,1,.77-9.64A37.66,37.66,0,0,1,219.16,147.7Z"/><path class="cls-1" d="M242.27,142.1c-2.36,2-4.72,3.8-7,5.7a69.73,69.73,0,0,0-6.19,5.92,30.6,30.6,0,0,0-4.62,6.45c-.28.56-.52,1.13-.77,1.69a15.09,15.09,0,0,0-.54,1.71,12.64,12.64,0,0,0,0,6.84,15.08,15.08,0,0,0,.54,1.71c.25.56.49,1.12.77,1.69a30.64,30.64,0,0,0,4.62,6.45,70.27,70.27,0,0,0,6.19,5.92c2.23,1.91,4.59,3.73,6.95,5.71a40.89,40.89,0,0,1-16.92-7.47,27.89,27.89,0,0,1-6.73-7.25,18.56,18.56,0,0,1,0-20.36,27.91,27.91,0,0,1,6.73-7.24A41,41,0,0,1,242.27,142.1Z"/><path class="cls-1" d="M201.63,145.65c-3.55.11-6.67,0-9.79,0l-9.17,0-9.17,0c-3.12,0-6.24.05-9.79-.06a20.87,20.87,0,0,1,8.81-5.48,32,32,0,0,1,20.3,0A21,21,0,0,1,201.63,145.65Z"/><path class="cls-1" d="M163.71,188.34c3.55-.12,6.65-.12,9.77-.16l9.19,0,9.19,0c3.12,0,6.22,0,9.77.17a20.53,20.53,0,0,1-8.85,5.38,33,33,0,0,1-20.22,0A20.64,20.64,0,0,1,163.71,188.34Z"/><path class="cls-4" d="M219.16,147.7"/><path class="cls-4" d="M146.18,147.7"/><path class="cls-4" d="M146.18,147.7c0-3.1,16.34-5.6,36.49-5.6s36.49,2.51,36.49,5.6"/><path class="cls-4" d="M219.16,186.28c0,3.1-16.34,5.6-36.49,5.6s-36.49-2.51-36.49-5.6"/><path class="cls-1" d="M213.5,176.45c-6.61-1.66-12.9-3.91-19.12-6.13-3.1-1.11-6.2-2.27-9.17-3.19-.74-.21-1.47-.44-2.13-.59a8.15,8.15,0,0,0-.88-.17h-.28a.59.59,0,0,0,.21,0l.23,0a1.67,1.67,0,0,0,.32-.12,3.92,3.92,0,0,0,.48-.27,2.71,2.71,0,0,0,.49-.47,3,3,0,0,0,.65-1.29,2.68,2.68,0,0,0,.05-.53,1.47,1.47,0,0,0,0-.28c0-.24,0-.21-.05-.29s0,0,0,0l0,.07s0,.07.07.13c.25.44.69,1.08,1.17,1.76a27.15,27.15,0,0,1,1.54,2.43,6.79,6.79,0,0,1,.84,2.43,4.16,4.16,0,0,1,0,.66,4.29,4.29,0,0,1-.08.75,4.13,4.13,0,0,1-.9,1.87,4,4,0,0,1-.76.71,5.36,5.36,0,0,1-.72.41l-.37.16-.25.07-.51.12a7,7,0,0,1-2.41-.06c-.59-.1-1.07-.24-1.56-.37-.93-.28-1.8-.57-2.62-.9a81.83,81.83,0,0,1-9.25-4.47,114.71,114.71,0,0,1-16.8-11.25,199.9,199.9,0,0,1,19.13,6.12c3.1,1.09,6.2,2.28,9.17,3.19.74.22,1.46.44,2.13.6.32.06.65.14.87.16s.45,0,.07,0a2.61,2.61,0,0,0-1.53.93,2.92,2.92,0,0,0-.63,1.32,2.73,2.73,0,0,0-.06.44c0,.11,0,.33,0,.35.1.56.08.29-.05.11-.23-.43-.7-1.09-1.17-1.76s-1-1.42-1.53-2.43c-.07-.12-.14-.28-.21-.42s-.14-.3-.22-.5a5.32,5.32,0,0,1-.22-.63,4.75,4.75,0,0,1-.18-.9c0-.2,0-.39,0-.59a4.56,4.56,0,0,1,.1-.84,4.23,4.23,0,0,1,.9-1.85,4.37,4.37,0,0,1,.73-.66,3.52,3.52,0,0,1,.74-.43,6.09,6.09,0,0,1,.62-.22l.31-.08.22,0c.27,0,.56-.07.83-.08l.59,0,.29,0,.23,0,.46.07a15.14,15.14,0,0,1,1.55.37,26.44,26.44,0,0,1,2.63.9,82.4,82.4,0,0,1,9.24,4.47A115.63,115.63,0,0,1,213.5,176.45Z"/><path class="cls-1" d="M242.27,155.94a48.25,48.25,0,0,1-7.5,2q-1.87.37-3.75.63c-1.25.18-2.5.34-3.75.45l1.77-.56a17.32,17.32,0,0,0-3.71,4.1,7.85,7.85,0,0,0,0,8.8,17.43,17.43,0,0,0,3.71,4.1l-1.78-.56c1.25.11,2.5.28,3.75.45s2.5.39,3.75.63a47.91,47.91,0,0,1,7.5,2,47.91,47.91,0,0,1-7.5,2q-1.87.37-3.75.63c-1.25.17-2.5.34-3.75.45l-.76.07-1-.62a19.87,19.87,0,0,1-5.89-5.33,13.72,13.72,0,0,1,0-16.54,19.93,19.93,0,0,1,5.89-5.32l1-.62.75.07c1.25.11,2.5.27,3.75.45s2.5.39,3.75.63A48.26,48.26,0,0,1,242.27,155.94Z"/><path class="cls-1" d="M123.07,178a53.36,53.36,0,0,1,7.93-2q2-.37,4-.63c1.32-.18,2.64-.34,4-.45l-1.7.51a18.1,18.1,0,0,0,3.93-4.08,7.32,7.32,0,0,0,0-8.75,18.21,18.21,0,0,0-3.94-4.08l1.71.51c-1.32-.11-2.64-.28-4-.45s-2.64-.39-4-.63a53,53,0,0,1-7.93-2,53,53,0,0,1,7.93-2q2-.37,4-.63c1.32-.17,2.64-.34,4-.45l.72-.06,1,.57a20.48,20.48,0,0,1,6.12,5.22,14,14,0,0,1,3,8.42,13.69,13.69,0,0,1-.85,4.57,15,15,0,0,1-2.15,3.85,20.54,20.54,0,0,1-6.12,5.22l-1,.57-.72-.06c-1.32-.11-2.64-.27-4-.45s-2.64-.39-4-.63A53.36,53.36,0,0,1,123.07,178Z"/><path class="cls-1" d="M182.6,178a26.48,26.48,0,0,0-.88,5.12,22.64,22.64,0,0,0,.12,4.13,25.79,25.79,0,0,1,.26,3,9.48,9.48,0,0,1-.38,2.62l-3.41-4.62c.29,0,.69,0,.88,0h.25s.13,0-.07,0a.66.66,0,0,0-.17.08,1.6,1.6,0,0,0-.37.2,2.09,2.09,0,0,0-.56.6.74.74,0,0,0-.14.33.31.31,0,0,1,.05-.08,10.45,10.45,0,0,0,.4-1.51c.17-.62.29-1.29.48-2a28.54,28.54,0,0,1,1.35-4l.45-1,.25-.5c.08-.19.15-.19.26-.29a3.39,3.39,0,0,0,.73-.72A3.21,3.21,0,0,0,182.6,178Zm0,0a1.57,1.57,0,0,0,.31.61,4.93,4.93,0,0,1,.55,1.31c.08.23.12.57.17.73l.17.52.29,1a31.48,31.48,0,0,1,.78,4.13c.1.7.13,1.39.18,2.13a13.19,13.19,0,0,1-.14,2.54c-.07.3-.13.59-.22.9a6.75,6.75,0,0,1-.61,1.24,4.7,4.7,0,0,1-1.29,1.3,6,6,0,0,1-.8.46l-.66.23a5.35,5.35,0,0,1-1.07.21,7.62,7.62,0,0,1-.76.06c-.49,0-.78,0-1.17,0h-4.93l1.52-4.62a30.7,30.7,0,0,1,1.77-4.31,25.68,25.68,0,0,1,2.4-3.89c.85-1.14,1.66-2,2.27-2.79A10.28,10.28,0,0,0,182.6,178Z"/><path class="cls-1" d="M182.6,178a3.21,3.21,0,0,0,.49,1.42,3.42,3.42,0,0,0,.73.73c.11.11.18.11.26.29l.24.5.45,1a28.9,28.9,0,0,1,1.35,4c.19.66.32,1.33.48,2a10.43,10.43,0,0,0,.41,1.51.45.45,0,0,1,.06.08.74.74,0,0,0-.14-.33,2.12,2.12,0,0,0-.56-.6,1.59,1.59,0,0,0-.36-.2.65.65,0,0,0-.17-.08c-.19,0-.07,0-.07,0H186l.88,0-3.41,4.62a9.3,9.3,0,0,1-.38-2.62,25.38,25.38,0,0,1,.26-3,22.54,22.54,0,0,0,.13-4.14A26.43,26.43,0,0,0,182.6,178Zm0,0a10.29,10.29,0,0,0,1.26,1.8c.61.75,1.42,1.66,2.27,2.79a25.62,25.62,0,0,1,2.4,3.9,30.15,30.15,0,0,1,1.76,4.31l1.53,4.66-4.94,0c-.39,0-.67,0-1.17,0a7.62,7.62,0,0,1-.76-.06,5.28,5.28,0,0,1-1.07-.21l-.66-.23a6,6,0,0,1-.8-.46,4.73,4.73,0,0,1-1.29-1.3,6.74,6.74,0,0,1-.61-1.24c-.09-.31-.16-.6-.22-.9a13.12,13.12,0,0,1-.14-2.54c0-.74.08-1.43.18-2.13a32,32,0,0,1,.78-4.13l.28-1,.16-.52c.06-.15.1-.49.17-.72a5,5,0,0,1,.55-1.31A1.56,1.56,0,0,0,182.6,178Z"/><path class="cls-1" d="M182.6,155.94a26.48,26.48,0,0,0,.88-5.12,22.65,22.65,0,0,0-.12-4.13,25.79,25.79,0,0,1-.26-3,9.49,9.49,0,0,1,.38-2.62l3.41,4.62c-.29,0-.69,0-.88,0h-.25s-.13,0,.07,0a.66.66,0,0,0,.17-.08,1.6,1.6,0,0,0,.37-.2,2.1,2.1,0,0,0,.57-.6.74.74,0,0,0,.14-.33.3.3,0,0,1-.05.08,10.46,10.46,0,0,0-.4,1.51c-.17.62-.29,1.29-.48,2a28.54,28.54,0,0,1-1.35,4l-.45,1-.25.5c-.08.19-.15.19-.26.29a3.39,3.39,0,0,0-.73.72A3.21,3.21,0,0,0,182.6,155.94Zm0,0a1.57,1.57,0,0,0-.31-.61,4.93,4.93,0,0,1-.55-1.31c-.08-.23-.12-.57-.17-.73l-.17-.52-.29-1a31.49,31.49,0,0,1-.78-4.13c-.1-.7-.13-1.39-.18-2.13a13.2,13.2,0,0,1,.14-2.54c.07-.3.13-.59.22-.9a6.74,6.74,0,0,1,.61-1.24,4.7,4.7,0,0,1,1.29-1.3,6,6,0,0,1,.8-.46l.66-.23a5.35,5.35,0,0,1,1.07-.21,7.62,7.62,0,0,1,.76-.06c.49,0,.78,0,1.17,0h4.93l-1.52,4.62a30.7,30.7,0,0,1-1.77,4.31,25.68,25.68,0,0,1-2.4,3.89c-.85,1.14-1.66,2-2.27,2.79A10.28,10.28,0,0,0,182.6,155.94Z"/><path class="cls-1" d="M182.6,155.94a3.21,3.21,0,0,0-.49-1.42,3.42,3.42,0,0,0-.73-.73c-.11-.11-.18-.11-.26-.29l-.24-.5-.45-1a28.9,28.9,0,0,1-1.35-4c-.19-.66-.32-1.33-.48-2a10.42,10.42,0,0,0-.41-1.51.45.45,0,0,1-.06-.08.74.74,0,0,0,.14.33,2.12,2.12,0,0,0,.56.6,1.59,1.59,0,0,0,.36.2.65.65,0,0,0,.17.08c.19,0,.07,0,.07,0h-.25l-.88,0,3.41-4.62a9.3,9.3,0,0,1,.38,2.62,25.38,25.38,0,0,1-.26,3,22.53,22.53,0,0,0-.13,4.14A26.43,26.43,0,0,0,182.6,155.94Zm0,0a10.28,10.28,0,0,0-1.26-1.8c-.61-.75-1.42-1.66-2.27-2.79a25.61,25.61,0,0,1-2.4-3.9,30.14,30.14,0,0,1-1.76-4.31l-1.53-4.66,4.94,0c.39,0,.67,0,1.17,0a7.6,7.6,0,0,1,.76.06,5.29,5.29,0,0,1,1.07.21l.66.23a6,6,0,0,1,.8.46,4.73,4.73,0,0,1,1.29,1.3,6.74,6.74,0,0,1,.61,1.24c.09.31.16.6.22.9a13.11,13.11,0,0,1,.14,2.54c0,.74-.08,1.43-.18,2.13a31.94,31.94,0,0,1-.78,4.13l-.28,1-.16.52c-.06.15-.1.49-.17.72a5,5,0,0,1-.55,1.31A1.56,1.56,0,0,0,182.6,155.94Z"/><path class="cls-1" d="M347.78,140c.44,4.84.67,9.68.82,14.53s.21,9.68.23,14.53-.06,9.68-.23,14.53-.38,9.68-.83,14.53c-.44-4.84-.67-9.68-.83-14.53s-.21-9.68-.23-14.53.07-9.68.23-14.53S347.34,144.88,347.78,140Z"/><polyline class="cls-5" points="378.39 140.04 378.39 169.09 378.39 198.14 363.08 169.09 347.78 140.04 347.78 169.09 347.78 198.14"/><path class="cls-1" d="M338.08,131.6a59.35,59.35,0,0,1,8.13,17.89,74.74,74.74,0,0,1,0,39.2,59.26,59.26,0,0,1-8.14,17.89,77.83,77.83,0,0,0,6.54-18.29,88.81,88.81,0,0,0,0-38.4A77.67,77.67,0,0,0,338.08,131.6Z"/><path class="cls-1" d="M378.39,140c.44,4.84.67,9.68.82,14.53s.21,9.68.23,14.53-.06,9.68-.23,14.53-.38,9.68-.83,14.53c-.44-4.84-.67-9.68-.83-14.53s-.21-9.68-.23-14.53.07-9.68.23-14.53S378,144.88,378.39,140Z"/><path class="cls-1" d="M388.08,131.6a77.67,77.67,0,0,0-6.54,18.29,88.82,88.82,0,0,0,0,38.4,77.83,77.83,0,0,0,6.54,18.29,59.26,59.26,0,0,1-8.14-17.89,74.74,74.74,0,0,1,0-39.2A59.34,59.34,0,0,1,388.08,131.6Z"/><path class="cls-1" d="M371,136.94a25.79,25.79,0,0,0-3.83-3,7.33,7.33,0,0,0-8.25,0,26,26,0,0,0-3.83,3A10.08,10.08,0,0,1,358,132.6a7.35,7.35,0,0,1,10.21,0A10.12,10.12,0,0,1,371,136.94Z"/><path class="cls-1" d="M355.13,201.23a21.64,21.64,0,0,0,3.82,2.89,8,8,0,0,0,8.26,0,21.82,21.82,0,0,0,3.82-2.89,9.33,9.33,0,0,1-2.88,4.24,7.66,7.66,0,0,1-10.14,0A9.36,9.36,0,0,1,355.13,201.23Z"/><path class="cls-6" d="M378.39,140"/><path class="cls-6" d="M347.78,140"/><path class="cls-6" d="M347.78,140c0-4.66,6.85-8.44,15.31-8.44s15.31,3.78,15.31,8.44"/><path class="cls-6" d="M378.39,198.14c0,4.66-6.85,8.44-15.31,8.44s-15.31-3.78-15.31-8.44"/><path class="cls-1" d="M376,183.34c-2.9-4.31-5.64-8.72-8.47-13-.71-1.07-1.43-2.14-2.17-3.18a24.44,24.44,0,0,0-2.3-2.9,2.61,2.61,0,0,0-.47-.38h0a.36.36,0,0,0,.12,0c.06,0,.06,0,.17,0a.5.5,0,0,0,.25-.11c.06-.05.1-.06.14-.11s.06-.12.06-.1,0,0,0,0a6.49,6.49,0,0,0,.07,1.58c.17,1.22.42,2.49.67,3.76s.48,2.55.65,3.9c0,.34.07.68.09,1a4.72,4.72,0,0,1-.08,1.25,1.67,1.67,0,0,1-.16.46,2.73,2.73,0,0,1-.16.27,1.66,1.66,0,0,1-.35.31,1.39,1.39,0,0,1-.9.21,2.5,2.5,0,0,1-.56-.17,3.87,3.87,0,0,1-1-.82,24.29,24.29,0,0,1-2.41-3.27c-.72-1.1-1.39-2.22-2-3.36-2.59-4.52-4.93-9.15-7.07-13.89,2.9,4.31,5.64,8.72,8.47,13,.71,1.07,1.44,2.14,2.16,3.18a22.85,22.85,0,0,0,2.3,2.9,2.92,2.92,0,0,0,.48.4.12.12,0,0,0-.1,0,.66.66,0,0,0-.44.1.5.5,0,0,0-.16.16l0,.05c0,.07,0,0,0,0a3.11,3.11,0,0,0,0-.69c0-.28,0-.58-.09-.89-.16-1.22-.43-2.49-.67-3.75s-.48-2.56-.65-3.9a7.56,7.56,0,0,1,0-2.29,2.44,2.44,0,0,1,.16-.45,1.6,1.6,0,0,1,.49-.58,1.73,1.73,0,0,1,.48-.2,1.08,1.08,0,0,1,.41,0,1.74,1.74,0,0,1,.36.07l.21.1a3.74,3.74,0,0,1,1,.82,25.81,25.81,0,0,1,2.41,3.26c.72,1.1,1.39,2.22,2,3.36C371.54,174,373.88,178.6,376,183.34Z"/><path class="cls-1" d="M388.08,152.45a26.58,26.58,0,0,1-3.15.59c-.52.07-1,.14-1.57.19s-1,.11-1.57.14l.85-.57a40.12,40.12,0,0,0-2,8,55.25,55.25,0,0,0,0,16.58,40.34,40.34,0,0,0,2,8l-.85-.58c.52,0,1,.09,1.57.13s1,.12,1.57.19a26.33,26.33,0,0,1,3.15.59,26.33,26.33,0,0,1-3.15.59c-.52.07-1,.14-1.57.19s-1,.11-1.57.13l-.6,0-.25-.6a48.25,48.25,0,0,1,0-34l.25-.6.6,0c.52,0,1,.09,1.57.14s1,.12,1.57.19A26.58,26.58,0,0,1,388.08,152.45Z"/><path class="cls-1" d="M338.08,185.73a29.54,29.54,0,0,1,3.33-.59c.55-.07,1.11-.14,1.66-.19s1.11-.11,1.66-.14l-.84.56a38.27,38.27,0,0,0,2.16-8,52.07,52.07,0,0,0,0-16.59,38.46,38.46,0,0,0-2.16-8l.84.56c-.55,0-1.11-.09-1.66-.13s-1.11-.12-1.66-.19a29.27,29.27,0,0,1-3.33-.59,29.26,29.26,0,0,1,3.33-.59c.55-.07,1.11-.14,1.66-.19s1.11-.11,1.66-.13l.59,0,.25.58a46,46,0,0,1,0,34l-.25.58-.59,0c-.55,0-1.11-.09-1.66-.14s-1.11-.12-1.66-.19A29.54,29.54,0,0,1,338.08,185.73Z"/><path class="cls-1" d="M363.06,185.71c-.34,3.91-.38,7.63-.37,11.05,0,1.72,0,3.35-.07,5s-.19,3.26-.31,4.92l-1-1.14h.26s.1,0,0,0-.12.07-.16.13,0,0,0,0a5.61,5.61,0,0,0,.18-1.06c.09-.84.11-1.75.16-2.64.11-1.79.16-3.6.29-5.4s.25-3.61.42-5.41c.1-.9.17-1.83.31-2.6A16,16,0,0,0,363.06,185.71Zm0,0a19.17,19.17,0,0,0,.22,2.62c.09,1,.12,1.9.18,2.81.08,1.81.16,3.61.2,5.42s.05,3.61.06,5.43c0,.91,0,1.81-.11,2.77a6.93,6.93,0,0,1-.28,1.6,2.41,2.41,0,0,1-.3.57,1.63,1.63,0,0,1-.68.54,1.87,1.87,0,0,1-.67.16h-.42l-1.16,0,.11-1.17c.18-1.82.35-3.67.59-5.52s.51-3.69.83-5.44C362.24,192,362.79,188.76,363.06,185.71Z"/><path class="cls-1" d="M363.06,185.71a16,16,0,0,0,.35,2.8c.14.77.2,1.71.3,2.6.16,1.8.31,3.61.41,5.41s.18,3.61.29,5.4c0,.89.07,1.8.16,2.64a5.62,5.62,0,0,0,.18,1.06s0,.08,0,0-.1-.08-.16-.13,0,0,0,0h.26l-1.05,1.15c-.12-1.66-.25-3.28-.31-4.92s-.09-3.27-.07-5C363.44,193.35,363.39,189.62,363.06,185.71Zm0,0c.26,3,.82,6.28,1.43,9.82.32,1.76.58,3.61.83,5.44s.41,3.7.59,5.52l.11,1.17-1.17,0h-.42a1.93,1.93,0,0,1-.67-.16,1.62,1.62,0,0,1-.68-.54,2.41,2.41,0,0,1-.3-.57,6.93,6.93,0,0,1-.28-1.6c-.08-1-.09-1.86-.11-2.77,0-1.82,0-3.62.06-5.43s.12-3.61.2-5.42c.06-.91.09-1.78.18-2.81A19.26,19.26,0,0,0,363.06,185.71Z"/><path class="cls-1" d="M363.06,152.45c.34-3.91.38-7.63.37-11.05,0-1.72,0-3.35.07-5s.19-3.26.31-4.92l1,1.14h-.26s-.1,0,0,0,.12-.07.16-.13,0,0,0,0a5.62,5.62,0,0,0-.18,1.06c-.09.84-.11,1.75-.16,2.64-.11,1.79-.16,3.6-.29,5.4s-.25,3.61-.42,5.41c-.1.9-.17,1.83-.31,2.6A16,16,0,0,0,363.06,152.45Zm0,0a19.17,19.17,0,0,0-.22-2.62c-.09-1-.12-1.9-.18-2.81-.08-1.81-.16-3.61-.2-5.42s-.05-3.61-.06-5.43c0-.91,0-1.81.11-2.77a6.93,6.93,0,0,1,.28-1.6,2.41,2.41,0,0,1,.3-.57,1.63,1.63,0,0,1,.68-.54,1.87,1.87,0,0,1,.67-.16h.42l1.16,0-.11,1.17c-.18,1.82-.35,3.67-.59,5.52s-.51,3.69-.83,5.44C363.87,146.17,363.32,149.4,363.06,152.45Z"/><path class="cls-1" d="M363.06,152.45a16,16,0,0,0-.35-2.8c-.14-.77-.2-1.71-.3-2.6-.16-1.8-.31-3.61-.41-5.41s-.18-3.61-.29-5.4c0-.89-.07-1.8-.16-2.64a5.62,5.62,0,0,0-.18-1.06s0-.08,0,0,.1.08.16.13,0,0,0,0h-.26l1.05-1.14c.12,1.66.25,3.28.31,4.92s.09,3.27.07,5C362.68,144.81,362.72,148.54,363.06,152.45Zm0,0c-.26-3-.82-6.28-1.43-9.82-.32-1.76-.58-3.61-.83-5.44s-.41-3.7-.59-5.52l-.11-1.17,1.17,0h.42a1.93,1.93,0,0,1,.67.16,1.62,1.62,0,0,1,.68.54,2.41,2.41,0,0,1,.3.57,6.92,6.92,0,0,1,.28,1.6c.08,1,.09,1.86.11,2.77,0,1.82,0,3.62-.06,5.43s-.12,3.61-.2,5.42c-.06.91-.09,1.78-.18,2.81A19.25,19.25,0,0,0,363.06,152.45Z"/><rect class="cls-1" x="431.82" y="130.36" width="2.44" height="77.47"/><rect class="cls-1" x="401.21" y="130.36" width="2.44" height="77.47"/><path class="cls-7" d="M402.43,130.36"/><path class="cls-1" d="M434.26,130.36h-2.44c0-5.53-6.32-10-14.08-10s-14.09,4.5-14.09,10h-2.44c0-6.88,7.41-12.47,16.53-12.47S434.26,123.48,434.26,130.36Z"/><path class="cls-1" d="M417.74,220.3c-9.11,0-16.53-5.6-16.53-12.47h2.44c0,5.53,6.32,10,14.09,10s14.08-4.5,14.08-10h2.44C434.26,214.7,426.85,220.3,417.74,220.3Z"/><path class="cls-1" d="M403.67,193.07c5.33-4.83,10.89-9.39,16-14.27,1.27-1.22,2.48-2.48,3.59-3.75a16.64,16.64,0,0,0,1.48-1.94,3.84,3.84,0,0,0,.67-1.56c0-.13,0,.06,0,.06a1.3,1.3,0,0,0-.38-.19,8.69,8.69,0,0,0-2.11-.38c-1.63-.12-3.39-.07-5.18,0s-3.61,0-5.56-.13a11.56,11.56,0,0,1-3.14-.66A4.65,4.65,0,0,1,407.2,169a3.6,3.6,0,0,1-.82-2.57,6.86,6.86,0,0,1,1.41-3.3,20.44,20.44,0,0,1,1.88-2.25,43.93,43.93,0,0,1,4.1-3.73,126.9,126.9,0,0,1,18-12c-5.34,4.83-10.87,9.4-16,14.27-1.25,1.23-2.48,2.48-3.59,3.75a17.07,17.07,0,0,0-1.47,1.94,3.74,3.74,0,0,0-.69,1.58c0,.08,0,0,0-.07a1.76,1.76,0,0,0,.4.19,8.29,8.29,0,0,0,2.11.38c1.62.12,3.39.07,5.17,0s3.62,0,5.56.13a11.94,11.94,0,0,1,3.14.66,4.53,4.53,0,0,1,1.84,1.26,3.4,3.4,0,0,1,.68,1.23,3.68,3.68,0,0,1,.12,1.3,6.92,6.92,0,0,1-1.4,3.32,20,20,0,0,1-1.88,2.24,41.38,41.38,0,0,1-4.1,3.73A126.9,126.9,0,0,1,403.67,193.07Z"/><rect class="cls-1" x="416.52" y="127.44" width="2.44" height="83.3" transform="translate(-32.91 165.35) rotate(-21.56)"/><path class="cls-1" d="M43.15,53.53A8.69,8.69,0,0,0,41,53.15c-1-.07-2.05-.08-3.12-.07l2.17,5.48c.43-.46.87-.93,1.28-1.4a16.64,16.64,0,0,0,1.48-1.94,4,4,0,0,0,.66-1.53A2.33,2.33,0,0,0,43.15,53.53Z"/><path class="cls-1" d="M49.88,27.2C44.54,32,39,36.6,33.9,41.47l-.41.41,2.92,7.39c1.6,0,3.23,0,5,.14a11.94,11.94,0,0,1,3.14.66,4.53,4.53,0,0,1,1.84,1.26A3.4,3.4,0,0,1,47,52.56a3.68,3.68,0,0,1,.12,1.3,6.92,6.92,0,0,1-1.4,3.32,20,20,0,0,1-1.88,2.24c-.8.85-1.64,1.63-2.5,2.38l8.58,21.72V12.47c0-5.53-6.32-10-14.08-10S21.94,6.84,21.79,12.28L32.31,38.9A127.8,127.8,0,0,1,49.88,27.2Z"/><path class="cls-1" d="M19.34,89.94V12.47C19.34,5.6,26.75,0,35.86,0H20.74a12,12,0,0,0-12,12V90.42a12,12,0,0,0,12,12H35.86C26.75,102.42,19.34,96.82,19.34,89.94Z"/><path class="cls-1" d="M30.63,49.24c1,.08,2.08.08,3.17.07L31.62,43.8c-.45.47-.9.95-1.32,1.43a17.07,17.07,0,0,0-1.47,1.94,3.94,3.94,0,0,0-.68,1.52,1,1,0,0,0,.37.18A8.29,8.29,0,0,0,30.63,49.24Z"/><path class="cls-1" d="M28.15,48.74c0,.05,0,0,0,0Z"/><path class="cls-1" d="M51,0H35.86C45,0,52.39,5.6,52.39,12.47V89.94c0,6.88-7.41,12.47-16.53,12.47H51a12,12,0,0,0,12-12V12A12,12,0,0,0,51,0Z"/><path class="cls-1" d="M39.39,63.46a127.83,127.83,0,0,1-17.6,11.73c5.33-4.83,10.89-9.39,16-14.27l.44-.44-2.91-7.36c-1.62,0-3.26,0-5-.14a11.56,11.56,0,0,1-3.14-.66,4.65,4.65,0,0,1-1.84-1.24,3.6,3.6,0,0,1-.82-2.57,6.86,6.86,0,0,1,1.41-3.3A20.44,20.44,0,0,1,27.8,43c.82-.86,1.67-1.65,2.54-2.41L21.78,18.89V89.94c0,5.53,6.32,10,14.09,10s13.92-4.39,14.07-9.84Z"/><path class="cls-8" d="M433,41.1"/><path class="cls-1" d="M405.88,78c3-1.41,6.1-2.69,9.1-4.08,1.51-.68,3-1.36,4.46-2.1s2.91-1.46,4.26-2.29a18.62,18.62,0,0,0,1.91-1.3A7.17,7.17,0,0,0,427,66.88c0-.1.14-.21.17-.29s.07-.15,0-.17,0,0,0,0,0,0,0,0a3.28,3.28,0,0,0-1.12-.89,24.52,24.52,0,0,0-4.23-1.7c-1.53-.5-3.1-1-4.69-1.41s-3.2-.95-4.82-1.5a24.75,24.75,0,0,1-4.91-2.2A6.23,6.23,0,0,1,405,56.14,4.06,4.06,0,0,1,404.7,55a4,4,0,0,1,.1-1.19,4.53,4.53,0,0,1,.89-1.74,13.27,13.27,0,0,1,4.58-3.26,61.23,61.23,0,0,1,9.52-3.52c3.22-.9,6.46-1.71,9.75-2.3-3,1.41-6.09,2.69-9.1,4.08a89.78,89.78,0,0,0-8.73,4.39,12.53,12.53,0,0,0-3.33,2.66,1.12,1.12,0,0,0-.22.46c0,.05,0,0,0,0s0,0,0,0a3.54,3.54,0,0,0,1.13.88,23.8,23.8,0,0,0,4.22,1.7c1.53.5,3.1,1,4.7,1.41s3.2.95,4.82,1.5A24.82,24.82,0,0,1,428,62.33l.63.43c.21.16.42.35.63.52s.42.44.62.66a5.29,5.29,0,0,1,.54.9,3.58,3.58,0,0,1,.22,2.33,4.46,4.46,0,0,1-.38,1,7.39,7.39,0,0,1-.51.75,13.6,13.6,0,0,1-4.58,3.25,60.23,60.23,0,0,1-9.52,3.53C412.4,76.61,409.17,77.41,405.88,78Z"/><polyline class="cls-9" points="402.43 79.89 402.43 60.5 402.43 41.1 433.04 79.89 433.04 60.5 433.04 41.1"/><path class="cls-1" d="M279.88,57.38a29.12,29.12,0,0,1,4.05,1.71V41.3c-2.23,1-4.47,2-6.68,3s-4.57,2.1-6.73,3.27l6.08,8.78C277.69,56.67,278.78,57,279.88,57.38Z"/><path class="cls-1" d="M282.9,62.68a20.14,20.14,0,0,0-2.73-1.18l2.57,3.72a6.75,6.75,0,0,0,1.1-1.1l.08-.14v-.54A4.23,4.23,0,0,0,282.9,62.68Z"/><path class="cls-1" d="M268.92,54l-2.6-3.76a6.79,6.79,0,0,0-1.12,1.13l0,.06v.65a4.4,4.4,0,0,0,1,.71A18.21,18.21,0,0,0,268.92,54Z"/><path class="cls-1" d="M269.16,58.08a30.51,30.51,0,0,1-4-1.68V74.13c2.22-1,4.44-2,6.62-3,1.51-.68,3-1.36,4.46-2.1.78-.39,1.55-.78,2.31-1.18l-6.06-8.75C271.39,58.8,270.28,58.46,269.16,58.08Z"/><path class="cls-1" d="M257,42.68V72.78A7.18,7.18,0,0,0,264.19,80h20.72a7.18,7.18,0,0,0,7.18-7.18V42.68a7.18,7.18,0,0,0-7.18-7.18H264.19A7.18,7.18,0,0,0,257,42.68ZM288.9,74.74a2.6,2.6,0,0,1-1.42,2.38,2.48,2.48,0,0,1-3.1-.83l-4.2-6.07a70.56,70.56,0,0,1-7.73,2.72c-2.41.68-4.83,1.3-7.28,1.82v.05a2.52,2.52,0,0,1-1.82,2.46,2.49,2.49,0,0,1-3.15-2.4V40.73a2.61,2.61,0,0,1,1.29-2.32,2.49,2.49,0,0,1,3.23.77l4.18,6a70.25,70.25,0,0,1,7.7-2.7c2.43-.68,4.87-1.31,7.33-1.83v0a2.52,2.52,0,0,1,1.82-2.46,2.49,2.49,0,0,1,3.15,2.4Z"/><path class="cls-1" d="M355.53,41a2.52,2.52,0,0,0-1.82,2.46v0c-2.46.52-4.9,1.15-7.33,1.83a70.24,70.24,0,0,0-7.7,2.7l-4.18-6a2.49,2.49,0,0,0-3.23-.77A2.61,2.61,0,0,0,330,43.5V77.64a2.49,2.49,0,0,0,3.15,2.4,2.52,2.52,0,0,0,1.82-2.46v-.05c2.44-.52,4.86-1.14,7.28-1.82A70.57,70.57,0,0,0,349.95,73l4.2,6.07a2.48,2.48,0,0,0,3.1.83,2.6,2.6,0,0,0,1.42-2.38V43.36A2.49,2.49,0,0,0,355.53,41ZM334.94,54.17l0-.06A6.79,6.79,0,0,1,336.1,53l2.6,3.76a18.21,18.21,0,0,1-2.78-1.21,4.4,4.4,0,0,1-1-.71ZM346,71.83c-1.46.74-3,1.42-4.46,2.1-2.19,1-4.41,2-6.62,3V59.16a30.51,30.51,0,0,0,4,1.68c1.12.38,2.23.72,3.34,1.05l6.06,8.75C347.58,71.05,346.81,71.45,346,71.83Zm7.69-5.09-.08.14a6.76,6.76,0,0,1-1.1,1.1L350,64.26a20.14,20.14,0,0,1,2.73,1.18,4.23,4.23,0,0,1,1,.76Zm0-4.89a29.12,29.12,0,0,0-4.05-1.71c-1.1-.38-2.19-.71-3.28-1l-6.08-8.78c2.17-1.16,4.44-2.23,6.73-3.27s4.44-2,6.68-3Z"/><path class="cls-1" d="M344.33,29.76A29.67,29.67,0,1,0,374,59.43,29.67,29.67,0,0,0,344.33,29.76Zm17.54,45.78a7.18,7.18,0,0,1-7.18,7.18H334a7.18,7.18,0,0,1-7.18-7.18V45.45A7.18,7.18,0,0,1,334,38.27h20.72a7.18,7.18,0,0,1,7.18,7.18Z"/><g class="cls-10"><path class="cls-1" d="M31.85,183.49l0-.93a1.64,1.64,0,0,1-.2.47C31.61,183.23,31.74,183.34,31.85,183.49Z"/><path class="cls-1" d="M31.91,181.7v-.17l-.05-.14Z"/><path class="cls-1" d="M31.76,180.07a3.33,3.33,0,0,0,0,.83A2.11,2.11,0,0,0,31.76,180.07Z"/><path class="cls-1" d="M31.62,181.37c.09-.1.17-.15.24,0h0l-.08-.49A1.61,1.61,0,0,1,31.62,181.37Z"/><path class="cls-1" d="M31.62,181.37c-.08.1-.16.25-.21.3A1.71,1.71,0,0,0,31.62,181.37Z"/><path class="cls-1" d="M29.6,181c-.06-.16.51-.13.38-.45a10.62,10.62,0,0,1-.42-2.12c-.13-.32.51-.84.38-1.16-.16-.76-.93-2.71-.9-1.56.09,1.72.24,2.85.35,4.4.23,1.26.5,2.47.71,3.75a5.38,5.38,0,0,1-.06,1l.26-1.4C30.47,182.79,29.73,182,29.6,181Z"/><path class="cls-1" d="M31.51,190.37l-.19-.49a3,3,0,0,0,.09-2.25l-.29.34c0,.44.19.49.32.1a5.74,5.74,0,0,0-.34,2.58C31.25,190.6,31.43,190.61,31.51,190.37Z"/><path class="cls-1" d="M31.14,191.15l0-.5,0,0,.08.5Z"/><path class="cls-1" d="M31.24,176.62c0-2.16,0-4.19.06-6.18-.11-.15-.24-.26-.17-.46a1.64,1.64,0,0,0,.2-.47l0-.86,0-.3h0c-.06-.16-.15-.12-.24,0a1.83,1.83,0,0,1-.22.3c.05-.06.13-.2.22-.3a1.59,1.59,0,0,0,.18-.46,3.12,3.12,0,0,1,0-.82,2.12,2.12,0,0,1,0,.82l.06.49,0,.14c0-.65.12-1.3.22-1.94v-.41c0-.48,0-1,.32-1.19l.09-.33-.06.05.08-.12c.12-.47.28-.94.43-1.36a4.88,4.88,0,0,1,0-1s.24-.08.36-.09a1.12,1.12,0,0,1,0-.67,2.2,2.2,0,0,0-.68.33c-.19.08-.14.36-.12.6s0,.46-.27.56c.32-.1.3-.31.27-.56s-.07-.52.12-.6a2.2,2.2,0,0,1,.68-.33c.12-.48.52-.92.95-.9a1.17,1.17,0,0,1-.95.9,1.12,1.12,0,0,0,0,.67c-.11,0-.36.09-.36.09a4.88,4.88,0,0,0,0,1,7.85,7.85,0,0,1,1.15-2.11,2.3,2.3,0,0,1,1.54-.93,1.91,1.91,0,0,1,1.52.91,5.28,5.28,0,0,1,.46.77l.47,1,1,2,4.14,8.71c.81,1.77,1.6,3.53,2.37,5.31a6,6,0,0,0,2.38,2.54,3.32,3.32,0,0,0,1.69.38,4,4,0,0,0,1.65-.46,6.5,6.5,0,0,0,2.51-2.53,14.42,14.42,0,0,0,1.36-3.37,24.32,24.32,0,0,0,.76-5.4,55.11,55.11,0,0,1,1-10.1c.51-2.66.23-7.6.17-10.16-1-3.44-3.41-1.65-3.55-1.49-2.09,2.11-.93,3.76-2.16,8.07.7-2.93,1.35,2.16-.09,4.93-1.09,2-1.2,4.43-1.11,7a33.44,33.44,0,0,1,.07,3.53,10.6,10.6,0,0,1-.21,1.63,5.05,5.05,0,0,1-.44,1.3c-.16.05-.12.21-.25.27a.37.37,0,0,1-.16-.26.3.3,0,0,1,0-.09c0-.07.1.14-.16-.37-.69-1.41-1.42-2.75-2.17-4.12l-2.69-4.85c-1.06-1.93-2.1-3.9-3.13-6a8.93,8.93,0,0,0-.45-.8,7.87,7.87,0,0,0-.87-1,5.34,5.34,0,0,0-1.93-1.17,4.47,4.47,0,0,0-4,.56,8.45,8.45,0,0,0-2.19,1.91,9.52,9.52,0,0,0-1.48,2.55c-.11.32-.26.72-.32,1s-.14.51-.18.74a12.57,12.57,0,0,0-.19,1.3,15,15,0,0,0,0,2.4c0-.84.07-1.59.15-2.36,0-.39.1-.78.18-1.2a11.13,11.13,0,0,1,.42-1.62c.34-.92.35-.49.31.25l0,.59V163c0,.35,0,.63,0,.84,0,.37-.69.79-.62,1.18a8,8,0,0,0,.14,2.32c.1.35-.47.28-.41.46.07,1.14.82,2,.66,2.61l-.26,1.4a4.47,4.47,0,0,0,0,.85l.14.56a1.35,1.35,0,0,1,.6-.26c0,.27-.16.66-.19.93,0-.27.16-.66.19-.93a1.35,1.35,0,0,0-.6.26c.34,1.36.64,2.94.88,4.4l.05,0a5.73,5.73,0,0,1,.34-2.58c-.13.38-.29.34-.32-.1l.29-.34a3,3,0,0,1-.09,2.25l.19.49c-.08.24-.26.23-.41.28l0,.5A7.15,7.15,0,0,0,31.24,176.62Z"/><path class="cls-1" d="M31.3,167.84c0,.12,0,.26,0,.41,0-.55.12-1.09.2-1.63C31.22,166.88,31.26,167.36,31.3,167.84Z"/></g><g class="cls-10"><path class="cls-1" d="M93.73,150.16l-.78.4a1.33,1.33,0,0,1,.52,0C93.69,150.58,93.68,150.37,93.73,150.16Z"/><path class="cls-1" d="M92.22,150.92l-.14.07-.08.13Z"/><path class="cls-1" d="M91,151.83a2.08,2.08,0,0,0,.66-.4A1.32,1.32,0,0,0,91,151.83Z"/><path class="cls-1" d="M92.15,151.42c-.14-.06-.24-.15-.15-.3h0l-.35.32A1.23,1.23,0,0,1,92.15,151.42Z"/><path class="cls-1" d="M92.15,151.42c.14.06.32.08.39.12A1.81,1.81,0,0,0,92.15,151.42Z"/><path class="cls-1" d="M93.19,154.11c-.09.15-.45-.57-.64-.27a7.24,7.24,0,0,1-1.5,1.49c-.19.3-1-.27-1.24,0-.54.53-1.72,2.36-.76,1.81,1.43-.87,2.3-1.54,3.52-2.4.91-.86,1.73-1.75,2.64-2.63a3.48,3.48,0,0,1,.89-.43c-.43.1-.86.21-1.34.35C94.13,152.2,94,153.48,93.19,154.11Z"/><path class="cls-1" d="M99.51,147.26l-.25.47c-.89-.14-1.37.43-1.87,1l.48.18c.33-.25.25-.47-.15-.43a3.77,3.77,0,0,0,2.33-.86C99.89,147.46,99.76,147.24,99.51,147.26Z"/><path class="cls-1" d="M100.42,147.31l-.37.3.05.05.34-.35Z"/><path class="cls-1" d="M88.47,154c-.89.49-1.78.92-2.66,1.32s-1.75.78-2.62,1.12c-.07.2-.08.41-.3.4a1.35,1.35,0,0,0-.52-.08l-.77.28-.24.17h0c-.1.14,0,.24.12.31a1.83,1.83,0,0,1,.38.16c-.08,0-.25-.09-.38-.16a1.22,1.22,0,0,0-.49,0,2.08,2.08,0,0,1-.7.33,1.33,1.33,0,0,1,.7-.33l.38-.28.09-.12-1.76.62-.34.21c-.38.27-.75.54-1.15.28l-.32.1.09,0-.14,0-1.35.42c-.27.27-.51.57-.75.8l-.55-.21a.81.81,0,0,1-.28.55c.41.08.79.22,1.07.29s.28-.11.38-.32.24-.39.54-.1c-.31-.29-.46-.11-.54.1s-.13.44-.38.32-.66-.21-1.07-.29a2.78,2.78,0,0,1-1.78.41c.25-.54,1.11-.54,1.78-.41a.81.81,0,0,0,.28-.55l.55.21c.25-.22.48-.52.75-.8-1,.33-2.07.68-3.14,1.12a6.27,6.27,0,0,0-3.82,3.38,4.5,4.5,0,0,0-.17,2.55,4.37,4.37,0,0,0,1.34,2.1c2.28,2.21,7.54,3.12,9.13,3.9A3.73,3.73,0,0,1,82,173.58a1.54,1.54,0,0,1-.22,1.33,2.73,2.73,0,0,1-1,.93,6.59,6.59,0,0,1-1.09.41c-.35.11-.56.16-.95.29-1.41.55-2.88,1.15-4.35,1.76a50.66,50.66,0,0,1-9.38,3.11c-2.62.62-6.62,3.35-8.65,4.76-2.11,2.89,1.22,4.91,1.44,5,3.25,1.47,3.7-.77,8-1.27-2.86.52.82-2.7,4-2.08,2.35.49,4.36-.34,6.4-1.44,1-.54,2-1.16,3.12-1.7.52-.27,1.09-.53,1.65-.76l2.4-.91A10.91,10.91,0,0,0,88.73,179a8.7,8.7,0,0,0,1.72-4.11,7.32,7.32,0,0,0-.7-4.31,8.44,8.44,0,0,0-3-3.22,16.28,16.28,0,0,0-4.62-2c-.41-.12-.84-.24-1.25-.34l-.72-.16-1.32-.28-.16,0h-.16l-.13,0c-.18,0-.46,0-.42-.24s-.32-.16-.59-.37a1,1,0,0,1-.45-.74.83.83,0,0,1,.59-.19,2.23,2.23,0,0,0,.55,0l.77-.36c.34-.17.65-.34,1-.53a19.55,19.55,0,0,0,1.74-1.2c-.66.35-1.22.68-1.81,1l-1.71.93c-.13.08-.23-.16-.2-.49,0-.14.18-.4.37-.62a4.8,4.8,0,0,1,.53-.53c.22-.28,1,.37,1.23.08A6.91,6.91,0,0,0,81.63,160c.22-.29.5.47.61.33.85-.56,1.14-1.82,1.8-1.88.49-.09.94-.15,1.38-.21a2.74,2.74,0,0,0,.76-.31l.4-.42a2.43,2.43,0,0,1-.59-.67c.25-.07.66-.07.92-.14-.26.07-.67.07-.92.14a2.43,2.43,0,0,0,.59.67c1-1,2.13-2,3.2-3l0-.06a3.79,3.79,0,0,1-2.39.68c.4,0,.46.22.11.45l-.47-.23c.55-.51,1.08-1.06,2-.84l.29-.45c.25,0,.36.23.51.4l.4-.27A6.05,6.05,0,0,0,88.47,154Z"/><path class="cls-1" d="M81,157.48l.33-.21-1.48.51C80.22,158,80.59,157.75,81,157.48Z"/></g><g class="cls-10"><path class="cls-1" d="M107.74,185.26c-.64.6-1.28,1.22-2,1.79.37-.26.71-.54,1.09-.79A3.69,3.69,0,0,0,107.74,185.26Z"/><path class="cls-1" d="M103.86,188.58l-.38.28-.3.27Z"/><path class="cls-1" d="M100.12,191.31a17.75,17.75,0,0,0,2-1.32C101.52,190.36,100.88,190.79,100.12,191.31Z"/><path class="cls-1" d="M103.24,189.32c-.26.13-.41.16-.06-.16h0c-.35.3-.72.57-1.1.86C102.5,189.72,102.91,189.52,103.24,189.32Z"/><path class="cls-1" d="M103.24,189.32l.77-.41C103.78,189,103.52,189.15,103.24,189.32Z"/><path class="cls-1" d="M103.11,191.17c-.37.31-.51-.08-1.24.53a39,39,0,0,1-5.23,3.38c-.81.52-2.36.75-3.18,1.21l-3.93,2c-1.17.55-1.69.87-.09.31a58.19,58.19,0,0,0,6.11-2.68,55.63,55.63,0,0,0,5.44-3.14,45.42,45.42,0,0,0,8.28-7.29c.74-.76,1.38-1.51,2.05-2.25-.44.48-.9,1-1.37,1.45s-1,1-1.53,1.46C107,187.37,105.56,189.33,103.11,191.17Z"/><path class="cls-1" d="M116.68,168.35v.87c0,.29,0,.53,0,.53-.61,2-1.12,4.07-1.9,6.11l.57-.81c.42-1.18.34-1.36-.1-.35a17.67,17.67,0,0,0,1.82-7.14C116.92,167.71,116.82,167.67,116.68,168.35Z"/><path class="cls-1" d="M117.06,166.11l0,1.45,0,0v-1.4Z"/><path class="cls-1" d="M91.5,196.13a68.76,68.76,0,0,1-17.17,4.45,4.3,4.3,0,0,1-1.31.28c-.45,0-.9,0-1.35,0l-2.49.19-.88.08h0c-.47.07-.32.12,0,.17s.63.06.88.1l-.88-.1c-.4,0-.84,0-1.35,0-.76.06-1.56.07-2.38.07.91-.07,1.7-.06,2.38-.07l1.4-.13.4-.06c-1.9.09-3.79.13-5.69.09H61.83a13.83,13.83,0,0,1-3.58-.25l-1-.1.19.05-.38-.07c-1.42-.12-2.84-.33-4.26-.53-.93-.08-1.89-.1-2.85-.23l-.91-.38a6.86,6.86,0,0,1-1.61-.12c.73.3,1.4.54,2,.75.92.4,2.2,0,3.27.52-1.07-.55-2.35-.12-3.27-.52-.63-.21-1.31-.45-2-.75a19.43,19.43,0,0,1-4.35-1.28,22.55,22.55,0,0,1,4.35,1.28,6.86,6.86,0,0,0,1.61.12l.91.38c1,.13,1.92.15,2.85.23a72.67,72.67,0,0,1-8.33-1.79c-8.92-2.5-17.18-6.51-23.7-12.64A31.06,31.06,0,0,1,13.09,175a23.65,23.65,0,0,1-1.61-6.58,16.61,16.61,0,0,1-.1-1.71,6.3,6.3,0,0,1,.1-1.6A9.79,9.79,0,0,1,12.75,162a26.94,26.94,0,0,1,4.84-5.76,52.16,52.16,0,0,1,5.88-4.7,71.48,71.48,0,0,1,13-7.07c8.94-3.74,18.09-6,27.29-6a60.49,60.49,0,0,1,27.05,6.91,95.9,95.9,0,0,1,12.27,7.23c4.27,3,8.06,6.59,9.85,9.31a25.36,25.36,0,0,1,2.27,3.39c.34.6.63.83.9.79s.48-.37.64-.77a3.34,3.34,0,0,0,.15-.94,9.8,9.8,0,0,0-1.34-4.4,20.2,20.2,0,0,0-2.95-4,72.44,72.44,0,0,0-10.88-9.25c1.76,1.25,2.24,1.76,1.93,1.65s-1.45-.77-3-1.7-3.62-2.08-5.72-3.24l-6.09-3.25a50.16,50.16,0,0,0-19.87-5.6,59.4,59.4,0,0,0-11.58.28A89.58,89.58,0,0,0,46.19,137a70.89,70.89,0,0,0-11.24,4A71,71,0,0,0,20.3,149.3a50.42,50.42,0,0,0-6.37,5.59,24.43,24.43,0,0,0-5.1,7.39c-.14.4-.29.79-.41,1.19s-.2.87-.28,1.31-.09,1-.09,1.4l.05,1.12a26.43,26.43,0,0,0,.62,4.44A28.51,28.51,0,0,0,12.08,180,41.59,41.59,0,0,0,24.57,192.8a53.65,53.65,0,0,0,15.85,6.88,88.1,88.1,0,0,0,10.84,2.67A62.35,62.35,0,0,0,64.5,203a74.84,74.84,0,0,1-12.92-.68c-3.35-.5,2.41-.11,4.63-.06,1,0,2.41.57,3.38.51a26.86,26.86,0,0,0,3.05,0c1,0,2-.13,3.16-.2.95-.1.85.3,1.33.23,3-.2,5.31-1,7.24-1.12,1.46-.15,2.78-.27,4.06-.47.81-.13,1.61-.26,2.45-.48l1.58-.47a1.38,1.38,0,0,1-.83-.25c.78-.14,1.89-.37,2.67-.54-.78.17-1.88.4-2.67.54a1.38,1.38,0,0,0,.83.25,74.82,74.82,0,0,0,11.89-4.8h-.07a32.51,32.51,0,0,1-7,2.5c1.08-.27,1-.12-.21.31l-1,.09c2.08-.75,4.09-1.6,6.12-2.14l1.24-.68c.66-.23.68-.11.86-.08l1.31-.66c-.51.12-1.52.5-2.42.79Z"/><path class="cls-1" d="M66.84,201.25l1.18-.09c-1.59.08-3.18.08-4.78.06A13.75,13.75,0,0,0,66.84,201.25Z"/></g><rect class="cls-1" x="199.36" y="35.51" width="35.08" height="44.45" rx="12" ry="12"/><path class="cls-8" d="M232.2,38.34"/><path class="cls-11" d="M222.23,57.38a29.12,29.12,0,0,1,4.05,1.71V41.3c-2.23,1-4.47,2-6.68,3s-4.57,2.1-6.73,3.27L219,56.34C220,56.67,221.13,57,222.23,57.38Z"/><path class="cls-11" d="M225.25,62.68a20.14,20.14,0,0,0-2.73-1.18l2.57,3.72a6.75,6.75,0,0,0,1.1-1.1l.08-.14v-.54A4.23,4.23,0,0,0,225.25,62.68Z"/><path class="cls-11" d="M211.27,54l-2.6-3.76a6.79,6.79,0,0,0-1.12,1.13l0,.06v.65a4.4,4.4,0,0,0,1,.71A18.21,18.21,0,0,0,211.27,54Z"/><path class="cls-11" d="M211.51,58.08a30.51,30.51,0,0,1-4-1.68V74.13c2.22-1,4.44-2,6.62-3,1.51-.68,3-1.36,4.46-2.1.78-.39,1.55-.78,2.31-1.18l-6.06-8.75C213.74,58.8,212.63,58.46,211.51,58.08Z"/><path class="cls-11" d="M199.36,42.68V72.78A7.18,7.18,0,0,0,206.54,80h20.72a7.18,7.18,0,0,0,7.18-7.18V42.68a7.18,7.18,0,0,0-7.18-7.18H206.54A7.18,7.18,0,0,0,199.36,42.68Zm31.89,32.06a2.6,2.6,0,0,1-1.42,2.38,2.48,2.48,0,0,1-3.1-.83l-4.2-6.07a70.56,70.56,0,0,1-7.73,2.72c-2.41.68-4.83,1.3-7.28,1.82v.05a2.52,2.52,0,0,1-1.82,2.46,2.49,2.49,0,0,1-3.15-2.4V40.73a2.61,2.61,0,0,1,1.29-2.32,2.49,2.49,0,0,1,3.23.77l4.18,6a70.25,70.25,0,0,1,7.7-2.7c2.43-.68,4.87-1.31,7.33-1.83v0a2.52,2.52,0,0,1,1.82-2.46,2.49,2.49,0,0,1,3.15,2.4Z"/><circle class="cls-11" cx="227.33" cy="28.33" r="4.29"/><circle class="cls-11" cx="214.99" cy="30.56" r="3.01"/><circle class="cls-11" cx="212.87" cy="22.58" r="3.03" transform="translate(10.96 93.68) rotate(-25.45)"/><circle class="cls-11" cx="221.37" cy="14.08" r="1.23" transform="translate(15.43 96.51) rotate(-25.45)"/><circle class="cls-11" cx="207.06" cy="85.25" r="4.29" transform="translate(-16.79 90.94) rotate(-23.83)"/><circle class="cls-11" cx="222.61" cy="84.67" r="3.03" transform="translate(13.23 198.18) rotate(-49.29)"/><circle class="cls-11" cx="218.27" cy="95.87" r="2.93" transform="translate(3.23 198.78) rotate(-49.29)"/><circle class="cls-11" cx="216.1" cy="88.17" r="1.68" transform="matrix(0.65, -0.76, 0.76, 0.65, 8.31, 194.47)"/><path class="cls-12" d="M21.68,388.19s-42-27.74-4.37-46.57L38,364.54S49,334.89,40.23,319.61s-5.09-32.92,11.64-40.84,0-25.69,0-25.69,18.55,18.14,16.37,25.69-35.65,17.74-18.19,32.83S81,322.34,79.16,333.8,30,343.63,60.24,356.54s26.92-5.46,23.65-8a59.64,59.64,0,0,1,7.77,6.41c12.51,11.7,4.61,26.26-18,33.24h0"/><path class="cls-13" d="M135.24,381.09s-42-27.74-4.37-46.57l20.74,22.92s10.91-29.65,2.18-44.93-5.09-32.92,11.64-40.84,0-25.69,0-25.69S184,264.13,181.8,271.68s-35.65,17.74-18.19,32.83,30.92,10.73,29.1,22.19-49.11,9.82-18.92,22.74,26.92-5.46,23.65-8a59.64,59.64,0,0,1,7.77,6.41c12.51,11.7,4.61,26.26-18,33.24h0"/><path class="cls-1" d="M276.29,337.8c-.94-1.76-1.8-3.18-2.35-4.06-1.17-1.85-1.87-3-3-2.17a4.69,4.69,0,0,0-1.46,3.41,7.32,7.32,0,0,0,.74,4.06,5.08,5.08,0,0,1,.06,2s-1.3,2.23-7.17-2.8c-.55-.47-1-.89-1.37-1.26.64-.41,1.33-.82,1.9-1.15,3.67-2.14,7.83-4.56,8.35-11.11.68-8.51-2.33-11-5-13.12a27.93,27.93,0,0,1-7.42-8.66,8.21,8.21,0,0,1-1.26-3.77c.08-2.71,2.87-6.55,4.73-9.1,2.23-3.06,4-5.48,4.49-8.93.59-4.06-.48-9.31-3.34-16.51-1.81-4.55-3.71-8.27-3.79-8.43-.85-1.66-2.21-1.66-3.06,0a7.81,7.81,0,0,0-.06,6.12c.87,1.84,2.66,7,2.35,10.22a5.17,5.17,0,0,1-1.69,3.42c-3.6,3.4-6.08,8.87-7.17,15.81a54.73,54.73,0,0,0,1.54,23c1.78,6.22,1,17.25,0,25.16l-5.71-12.62c-.66-1.46-1.72-1.86-2.6-1a25.8,25.8,0,0,0-7.48,18.11c-.42,13.93,8,25.51,9,26.78s2.36.77,3-1.24A7.44,7.44,0,0,0,248,364c-2-2.71-7.28-11.39-7-19a15.08,15.08,0,0,1,3.63-9.21l7.15,15.81c.51,1.14,1.29,1.65,2,1.36s1.37-1.35,1.64-2.78c0-.2.75-4.12,1.39-9.62a15.3,15.3,0,0,0,4.59,5.72c3.26,2.79,5.86,4.1,8,4,2.82-.13,4.13-2.92,4.68-4.69a12.32,12.32,0,0,1,.93,6.17c-.52,4.49-3.56,9-8,11.68-1.15.71-1.8,3.16-1.44,5.47.29,1.88,1.16,3.08,2.09,3.08a1.22,1.22,0,0,0,.65-.2c6.05-3.75,10-10.34,10.93-18.08A27.45,27.45,0,0,0,276.29,337.8Zm-20.21-27.3a40.8,40.8,0,0,1-1-4.39,20.93,20.93,0,0,0,1.6,3.45,32.85,32.85,0,0,0,8.62,10.14,9.92,9.92,0,0,1,2.27,2.22c0,.07.12.23.05,1.27-.56,1.51-3.73,3.35-5.27,4.25a15.15,15.15,0,0,0-4.81,3.7C258,322.5,257.53,315.57,256.09,310.5Zm21.6,42.55a21.3,21.3,0,0,1-9.89,15.84.37.37,0,0,1-.19.06c-.28,0-.54-.36-.63-.92a1.79,1.79,0,0,1,.43-1.64,19.16,19.16,0,0,0,9-13.92A17.9,17.9,0,0,0,274.35,342c-.42-.79-.83-1.51-1.2-2.14a13.39,13.39,0,0,1-.44,4.09c-.94,3.2-3.58,5.73-10.76-.42-3.21-2.75-4.49-4.81-4.42-7.13.09-2.94,2.38-4.28,5.28-6,2.72-1.58,6.1-3.55,6.34-6.54.31-3.88-.48-4.7-3.25-7a31.25,31.25,0,0,1-8.2-9.62,15.72,15.72,0,0,1-2.24-8.39c.15-5.5,3.24-9.73,6-13.47,1.55-2.13,3.15-4.33,3.37-5.82.31-2.16-.86-6.25-2.44-10.39a22,22,0,0,1,.06,4.43,11.44,11.44,0,0,1-3.27,7.5c-2.86,2.71-4.83,7-5.67,12.38a44,44,0,0,0,1.3,18.51c3.61,12.63-.65,36.12-.83,37.12l-.37,2-8.7-19.23a19.13,19.13,0,0,0-5.47,12.9c-.33,10.91,7.65,21.59,7.73,21.7a2.23,2.23,0,0,1,.19,1.82c-.2.6-.61.77-.91.37s-8.69-11.62-8.31-24a22.24,22.24,0,0,1,6.63-15.55l.45-.45L253,346.14c.94-6,3.29-23.3.57-32.82a49,49,0,0,1-1.41-20.6c1-6.11,3.16-10.94,6.36-14a8.57,8.57,0,0,0,2.54-5.62c.55-5.8-2.71-12.82-2.74-12.89l.94-1.84c.79,1.54,7.69,15.28,6.73,21.89-.35,2.39-1.91,4.54-3.89,7.26-2.35,3.23-5.27,7.24-5.39,11.45a11.7,11.7,0,0,0,1.78,6.25,29.88,29.88,0,0,0,7.84,9.18c2.63,2.15,4.53,3.7,4,9.81-.37,4.63-3.88,6.68-7.27,8.65a22.44,22.44,0,0,0-3.24,2.12c-1,.9-1.09,1.47-1.09,1.48s0,1.45,3.63,4.56c4.85,4.15,8.17,4.69,9.11,1.5a10,10,0,0,0-.29-5.67,16.68,16.68,0,0,1-.26-2.17,42.7,42.7,0,0,1,4.23,5.31A22.12,22.12,0,0,1,277.68,353.06Zm-21.79-62.68a15.58,15.58,0,0,1,3.9-6.48l.07-.06A38.07,38.07,0,0,0,255.89,290.38Zm6.39-9.95a15.75,15.75,0,0,0,.93-2.45c.05.32.07.55.09.69A11.71,11.71,0,0,1,262.28,280.43Z"/><path class="cls-1" d="M262.06,242.92c1.71,1.58-1.22,2-2.33,6.64-.41,1.69-5.21-4-3.92-5.85,1.94-2.83,2.79-3,2.57-4.75s.13.22.71-3.2C263.52,245.65,258.46,239.57,262.06,242.92Z"/><path class="cls-1" d="M257.69,270.08c1.71,1.58-1.22,2-2.33,6.64-.41,1.69-5.21-4-3.92-5.85,1.94-2.83,2.79-3,2.57-4.75s.13.22.71-3.2C259.15,272.81,254.09,266.73,257.69,270.08Z"/><path class="cls-1" d="M249,348.81c2.14.92-.46,2.33,0,7,.18,1.73-6.24-2-5.65-4.2.88-3.32,1.62-3.77.83-5.33s.19.16-.41-3.26C251.28,350.89,244.47,346.86,249,348.81Z"/><path class="cls-1" d="M261.53,359c2.1,2.75-2.29,2.68-5.07,9.15-1,2.37-6.64-7.11-4.28-9.55,3.55-3.67,4.84-3.71,4.95-6.31.1-2.41.13.35,1.84-4.52C263,363.38,257.09,353.21,261.53,359Z"/><path class="cls-1" d="M266.29,354.77c-1.94.11-.3,2-2,5.52-.64,1.31,5.47.22,5.64-1.67.26-2.86-.19-3.42.88-4.42s-.2.07,1.25-2.44C263.9,355.75,270.39,354.53,266.29,354.77Z"/><path class="cls-1" d="M265.86,253.08c1,1.67-.53,1.95-.85,6.46-.12,1.65-3-4.25-2.44-6,.86-2.7,1.31-2.82,1.09-4.56s.08.22.19-3.14C266.8,255.88,263.75,249.55,265.86,253.08Z"/><path class="cls-1" d="M250.36,324c1.14,1.52-.09,2,.45,6.44.2,1.64-3.3-3.81-3.14-5.64.24-2.75.59-2.92.09-4.6s.11.21-.41-3.1C251.65,326.63,247.94,320.78,250.36,324Z"/><path class="cls-1" d="M265.71,295.94c.3,1.9-1.1,1.66-2.88,5.8-.65,1.52-1.16-5-.07-6.48,1.64-2.26,2.06-2.23,2.45-3.94s0,.24,1.21-2.89C265.58,298.88,265.08,291.93,265.71,295.94Z"/><path class="cls-1" d="M228.28,372.19a3.57,3.57,0,1,0-1.24,7l7.89,1.39L255.52,377Zm-.42,4.19c2,.88,14.78,1.91,14.91,1.92l0,.44c-.53,0-13-1.05-15.05-2-.73-.32-1.07-.66-1.05-1,0-.57.9-.88,1.08-.93l.05,0h.05l15,2.62-.08.43-14.93-2.61c-.31.11-.71.34-.72.52S227.27,376.12,227.87,376.38Zm-.5-2.5c-.25.09-1.39.57-1.58,1.4-.12.51.15,1.09.78,1.72,1.37,1.35,3.72,1.48,6,1.61a13.11,13.11,0,0,1,4.38.7l-.18.4a12.86,12.86,0,0,0-4.22-.66c-2.36-.13-4.8-.26-6.28-1.73a2.32,2.32,0,0,1-.9-2.13c.27-1.17,1.85-1.71,1.92-1.73l.05,0h.05l20.07,3.5-.08.43Z"/><path class="cls-1" d="M284,382l-7.89-1.39-20.58,3.63,27.24,4.8a3.57,3.57,0,1,0,1.24-7Zm-.48,3c-2-.88-14.78-1.91-14.91-1.92l0-.44c.53,0,13,1.05,15.05,2,.73.32,1.07.66,1.05,1,0,.57-.9.88-1.08.93l-.05,0h-.05l-15-2.62.08-.43,14.93,2.61c.31-.11.71-.34.72-.52S284.11,385.31,283.52,385Zm2.51,1.2c-.27,1.17-1.85,1.71-1.92,1.73l-.05,0H284l-20.07-3.5.08-.43,20,3.49c.25-.09,1.39-.57,1.58-1.4.12-.51-.15-1.09-.78-1.72-1.37-1.35-3.72-1.48-6-1.61a13.11,13.11,0,0,1-4.38-.7l.18-.4a12.86,12.86,0,0,0,4.22.66c2.36.13,4.8.26,6.28,1.73A2.32,2.32,0,0,1,286,386.25Z"/><path class="cls-1" d="M286.89,375.09a2.64,2.64,0,0,0-3-2.13L226.28,383.1a2.64,2.64,0,0,0-2.13,3h0a2.64,2.64,0,0,0,3,2.13l57.57-10.14A2.64,2.64,0,0,0,286.89,375.09Zm-4.17,2.17,0,0h-.05l-45.18,8.05.09-.34,45-8c.22-.14,1.22-.78,1.23-1.42,0-.39-.36-.73-1.1-1-1.59-.57-3.88,0-6.09.55a17.55,17.55,0,0,1-4.35.73h0l-45,8.05c-.22.14-1.22.78-1.23,1.42,0,.39.36.73,1.1,1,1.59.57,3.88,0,6.09-.55a17.55,17.55,0,0,1,4.35-.73l-.09.33a17.23,17.23,0,0,0-4.19.71c-2.29.57-4.66,1.15-6.39.54-.88-.31-1.32-.73-1.3-1.25,0-.9,1.43-1.71,1.49-1.75l0,0h.05l45.23-8.09v0a17.54,17.54,0,0,0,4.14-.71c2.29-.57,4.66-1.15,6.39-.54.88.31,1.32.73,1.3,1.25C284.19,376.41,282.79,377.23,282.73,377.26Zm-1.17-1.89c-2.12-.05-14.59,2.78-14.71,2.81l-.06-.32c.52-.12,12.66-2.87,14.85-2.82.76,0,1.16.16,1.22.43s-.69.87-.84,1l0,0h-.05L267,378.79l0-.32,14.87-2.33c.28-.16.61-.44.59-.57S282.18,375.39,281.56,375.37Zm-52.1,9.88c2.12.05,37.41-6.75,37.53-6.78l0,.32c-.52.12-35.44,6.84-37.63,6.78-.76,0-1.16-.16-1.22-.43s.69-.87.84-1l0,0h.05l37.7-6.29.05.31-37.69,6.29c-.28.16-.61.44-.59.57S228.83,385.23,229.46,385.25Z"/><path class="cls-1" d="M384.77,350.35c-.94-1.76-1.8-3.18-2.35-4.06-1.17-1.85-1.87-3-3-2.17a4.69,4.69,0,0,0-1.46,3.41,7.32,7.32,0,0,0,.74,4.06,5.08,5.08,0,0,1,.06,2s-1.3,2.23-7.17-2.8c-.55-.47-1-.89-1.37-1.26.64-.41,1.33-.82,1.9-1.15,3.67-2.14,7.83-4.56,8.35-11.11.68-8.51-2.33-11-5-13.12A27.93,27.93,0,0,1,368,315.5a8.21,8.21,0,0,1-1.26-3.77c.08-2.71,2.87-6.55,4.73-9.1,2.23-3.06,4-5.48,4.49-8.93.59-4.06-.48-9.31-3.34-16.51-1.81-4.55-3.71-8.27-3.79-8.43-.85-1.66-2.21-1.66-3.06,0a7.81,7.81,0,0,0-.06,6.12c.87,1.84,2.66,7,2.35,10.22a5.17,5.17,0,0,1-1.69,3.42c-3.6,3.4-6.08,8.87-7.17,15.81a54.73,54.73,0,0,0,1.54,23c1.78,6.22,1,17.25,0,25.16l-5.71-12.62c-.66-1.46-1.72-1.86-2.6-1A25.8,25.8,0,0,0,345,357.06c-.42,13.93,8,25.51,9,26.78s2.36.77,3-1.24a7.44,7.44,0,0,0-.62-6.06c-2-2.71-7.28-11.39-7-19a15.08,15.08,0,0,1,3.63-9.21l7.15,15.81c.51,1.14,1.29,1.65,2,1.36s1.37-1.35,1.64-2.78c0-.2.75-4.12,1.39-9.62a15.3,15.3,0,0,0,4.59,5.72c3.26,2.79,5.86,4.1,8,4,2.82-.13,4.13-2.92,4.68-4.69a12.32,12.32,0,0,1,.93,6.17c-.52,4.49-3.56,9-8,11.68-1.15.71-1.8,3.16-1.44,5.47.29,1.88,1.16,3.08,2.09,3.08a1.22,1.22,0,0,0,.65-.2c6.05-3.75,10-10.34,10.93-18.08A27.45,27.45,0,0,0,384.77,350.35ZM364.56,323a40.8,40.8,0,0,1-1-4.39,20.93,20.93,0,0,0,1.6,3.45,32.85,32.85,0,0,0,8.62,10.14,9.92,9.92,0,0,1,2.27,2.22c0,.07.12.23.05,1.27-.56,1.51-3.73,3.35-5.27,4.25a15.15,15.15,0,0,0-4.81,3.7C366.51,335,366,328.12,364.56,323Zm21.6,42.55a21.3,21.3,0,0,1-9.89,15.84.37.37,0,0,1-.19.06c-.28,0-.54-.36-.63-.92a1.79,1.79,0,0,1,.43-1.64,19.16,19.16,0,0,0,9-13.92,17.9,17.9,0,0,0-2.05-10.51c-.42-.79-.83-1.51-1.2-2.14a13.39,13.39,0,0,1-.44,4.09c-.94,3.2-3.58,5.73-10.76-.42-3.21-2.75-4.49-4.81-4.42-7.13.09-2.94,2.38-4.28,5.28-6,2.72-1.58,6.1-3.55,6.34-6.54.31-3.88-.48-4.7-3.25-7a31.25,31.25,0,0,1-8.2-9.62,15.72,15.72,0,0,1-2.24-8.39c.15-5.5,3.24-9.73,6-13.47,1.55-2.13,3.15-4.33,3.37-5.82.31-2.16-.86-6.25-2.44-10.39a22,22,0,0,1,.06,4.43,11.44,11.44,0,0,1-3.27,7.5c-2.86,2.71-4.83,7-5.67,12.38a44,44,0,0,0,1.3,18.51c3.61,12.63-.65,36.12-.83,37.12l-.37,2-8.7-19.23a19.13,19.13,0,0,0-5.47,12.9c-.33,10.91,7.65,21.59,7.73,21.7a2.23,2.23,0,0,1,.19,1.82c-.2.6-.61.77-.91.37s-8.69-11.62-8.31-24a22.24,22.24,0,0,1,6.63-15.55l.45-.45,7.89,17.45c.94-6,3.29-23.3.57-32.82a49,49,0,0,1-1.41-20.6c1-6.11,3.16-10.94,6.36-14a8.57,8.57,0,0,0,2.54-5.62c.55-5.8-2.71-12.82-2.74-12.89l.94-1.84c.79,1.54,7.69,15.28,6.73,21.89-.35,2.39-1.91,4.54-3.89,7.26-2.35,3.23-5.27,7.24-5.39,11.45a11.7,11.7,0,0,0,1.78,6.25,29.88,29.88,0,0,0,7.84,9.18c2.63,2.15,4.53,3.7,4,9.81-.37,4.63-3.88,6.68-7.27,8.65a22.44,22.44,0,0,0-3.24,2.12c-1,.9-1.09,1.47-1.09,1.48s0,1.45,3.63,4.56c4.85,4.15,8.17,4.69,9.11,1.5a10,10,0,0,0-.29-5.67,16.68,16.68,0,0,1-.26-2.17,42.7,42.7,0,0,1,4.23,5.31A22.12,22.12,0,0,1,386.16,365.6Zm-21.79-62.68a15.58,15.58,0,0,1,3.9-6.48l.07-.06A38.07,38.07,0,0,0,364.37,302.92Zm6.39-9.95a15.75,15.75,0,0,0,.93-2.45c.05.32.07.55.09.69A11.71,11.71,0,0,1,370.75,293Z"/><path class="cls-1" d="M370.46,255.46c1.71,1.58-1.22,2-2.33,6.64-.41,1.69-5.21-4-3.92-5.85,1.94-2.83,2.79-3,2.57-4.75s.13.22.71-3.2C371.92,258.19,366.86,252.12,370.46,255.46Z"/><path class="cls-1" d="M366.09,282.62c1.71,1.58-1.22,2-2.33,6.64-.41,1.69-5.21-4-3.92-5.85,1.94-2.83,2.79-3,2.57-4.75s.13.22.71-3.2C367.55,285.35,362.49,279.28,366.09,282.62Z"/><path class="cls-1" d="M357.46,361.35c2.14.92-.46,2.33,0,7,.18,1.73-6.24-2-5.65-4.2.88-3.32,1.62-3.77.83-5.33s.19.16-.41-3.26C359.76,363.43,353,359.41,357.46,361.35Z"/><path class="cls-1" d="M370,371.56a16.44,16.44,0,0,0-1.65-2c.36.17,1.48,0-.91-9.26-1.71,4.86-1.74,2.11-1.84,4.52-.11,2.6-1.4,2.65-4.95,6.31-2.36,2.44,3.26,11.93,4.28,9.55C367.72,374.24,372.11,374.31,370,371.56Z"/><path class="cls-1" d="M374.77,367.31c-1.94.11-.3,2-2,5.52-.64,1.31,5.47.22,5.64-1.67.26-2.86-.19-3.42.88-4.42s-.2.07,1.25-2.44C372.38,368.29,378.87,367.08,374.77,367.31Z"/><path class="cls-1" d="M374.26,265.63c1,1.67-.53,1.95-.85,6.46-.12,1.65-3-4.25-2.44-6,.86-2.7,1.31-2.82,1.09-4.56s.08.22.19-3.14C375.2,268.43,372.15,262.09,374.26,265.63Z"/><path class="cls-1" d="M358.84,336.54c1.14,1.52-.09,2,.45,6.44.2,1.64-3.3-3.81-3.14-5.64.24-2.75.59-2.92.09-4.6s.11.21-.41-3.1C360.13,339.17,356.42,333.32,358.84,336.54Z"/><path class="cls-1" d="M374.19,308.49c.3,1.9-1.1,1.66-2.88,5.8-.65,1.52-1.16-5-.07-6.48,1.64-2.26,2.06-2.23,2.45-3.94s0,.24,1.21-2.89C374.06,311.43,373.56,304.47,374.19,308.49Z"/><path class="cls-1" d="M367.65,246.72a70.36,70.36,0,1,1-56.19,28,70.14,70.14,0,0,1,56.19-28m0-3.9A74.25,74.25,0,1,0,430.2,277a74.16,74.16,0,0,0-62.56-34.22Z"/></g></g></svg>