<svg xmlns="http://www.w3.org/2000/svg" viewBox="0 0 1919 300"><defs><style>.cls-1{fill:#1a1a1a;}.cls-2,.cls-4{fill:#9e7dd1;}.cls-2{opacity:0.5;}.cls-3{opacity:0.05;}.cls-5{opacity:0.1;}</style></defs><title>cover_nick_2</title><g id="Layer_2" data-name="Layer 2"><g id="Layer_1-2" data-name="Layer 1"><rect class="cls-1" width="1919" height="300"/><rect class="cls-2" width="1919" height="300"/><g class="cls-3"><polygon class="cls-4" points="1619.47 300 1919 0 1619.47 0 1619.47 300"/></g><g class="cls-5"><polygon class="cls-4" points="1919 150 1769.23 300 1919 300 1919 150"/></g><g class="cls-3"><polygon class="cls-4" points="299.53 300 0 0 299.53 0 299.53 300"/></g><g class="cls-5"><polygon class="cls-4" points="0 150 149.77 300 0 300 0 150"/></g><g class="cls-5"><polygon class="cls-4" points="349.45 250 549.14 50 349.45 50 349.45 250"/></g><g class="cls-3"><polygon class="cls-4" points="599.07 150 449.3 300 599.07 300 599.07 150"/></g><g class="cls-3"><polygon class="cls-4" points="1294.97 175 1195.13 275 1294.97 275 1294.97 175"/></g><g class="cls-5"><polygon class="cls-4" points="1569.55 250 1369.86 50 1569.55 50 1569.55 250"/></g><g class="cls-5"><polygon class="cls-4" points="984.46 275 1234.07 25 984.46 25 984.46 275"/></g><g class="cls-5"><polygon class="cls-4" points="934.54 275 684.93 25 934.54 25 934.54 275"/></g><g class="cls-3"><polygon class="cls-4" points="1319.93 150 1469.7 300 1319.93 300 1319.93 150"/></g><g class="cls-3"><polygon class="cls-4" points="624.03 175 723.87 275 624.03 275 624.03 175"/></g><g class="cls-3"><polygon class="cls-4" points="299.53 0 0 300 299.53 300 299.53 0"/></g><g class="cls-5"><polygon class="cls-4" points="0 150 149.77 0 0 0 0 150"/></g><g class="cls-3"><polygon class="cls-4" points="1619.47 0 1919 300 1619.47 300 1619.47 0"/></g><g class="cls-5"><polygon class="cls-4" points="1919 150 1769.23 0 1919 0 1919 150"/></g><g class="cls-5"><polygon class="cls-4" points="1569.55 50 1369.86 250 1569.55 250 1569.55 50"/></g><g class="cls-3"><polygon class="cls-4" points="1319.93 150 1469.7 0 1319.93 0 1319.93 150"/></g><g class="cls-3"><polygon class="cls-4" points="624.03 125 723.87 25 624.03 25 624.03 125"/></g><g class="cls-5"><polygon class="cls-4" points="349.45 50 549.14 250 349.45 250 349.45 50"/></g><g class="cls-5"><polygon class="cls-4" points="934.54 25 684.93 275 934.54 275 934.54 25"/></g><g class="cls-5"><polygon class="cls-4" points="984.46 25 1234.07 275 984.46 275 984.46 25"/></g><g class="cls-3"><polygon class="cls-4" points="599.07 150 449.3 0 599.07 0 599.07 150"/></g><g class="cls-3"><polygon class="cls-4" points="1294.97 125 1195.13 25 1294.97 25 1294.97 125"/></g></g></g></svg>