<svg xmlns="http://www.w3.org/2000/svg" viewBox="0 0 1919 300"><defs><style>.cls-1{fill:#1a1a1a;}.cls-2,.cls-9{fill:#9e7dd1;}.cls-2{opacity:0.5;}.cls-3{font-size:20px;}.cls-11,.cls-3{fill:#fff;font-family:VenusRising-Regular, Venus Rising;}.cls-4{letter-spacing:-0.02em;}.cls-5{letter-spacing:0em;}.cls-6{letter-spacing:-0.01em;}.cls-7{letter-spacing:-0.02em;}.cls-8{opacity:0.05;}.cls-10{opacity:0.1;}.cls-11{font-size:79.23px;}.cls-12{letter-spacing:-0.02em;}.cls-13{letter-spacing:0.02em;}</style></defs><title>cover_nick</title><g id="Layer_2" data-name="Layer 2"><g id="Layer_1-2" data-name="Layer 1"><rect class="cls-1" width="1919" height="300"/><rect class="cls-2" width="1919" height="300"/><text class="cls-3" transform="translate(252.42 254.93) scale(1.26 1)">graphic design - web / mobile / desk<tspan class="cls-4" x="579.32" y="0">t</tspan><tspan class="cls-5" x="597.66" y="0">op deve</tspan><tspan class="cls-6" x="728.49" y="0">l</tspan><tspan x="743.29" y="0">opement - ui /</tspan><tspan class="cls-7" x="959.05" y="0">u</tspan><tspan x="979.23" y="0">x design</tspan></text><g class="cls-8"><polygon class="cls-9" points="1619.47 300 1919 0 1619.47 0 1619.47 300"/></g><g class="cls-10"><polygon class="cls-9" points="1919 150 1769.23 300 1919 300 1919 150"/></g><g class="cls-8"><polygon class="cls-9" points="299.53 300 0 0 299.53 0 299.53 300"/></g><g class="cls-10"><polygon class="cls-9" points="0 150 149.77 300 0 300 0 150"/></g><g class="cls-10"><polygon class="cls-9" points="349.45 250 549.14 50 349.45 50 349.45 250"/></g><g class="cls-8"><polygon class="cls-9" points="599.07 150 449.3 300 599.07 300 599.07 150"/></g><g class="cls-8"><polygon class="cls-9" points="1294.97 175 1195.13 275 1294.97 275 1294.97 175"/></g><g class="cls-10"><polygon class="cls-9" points="1569.55 250 1369.86 50 1569.55 50 1569.55 250"/></g><g class="cls-10"><polygon class="cls-9" points="984.46 275 1234.07 25 984.46 25 984.46 275"/></g><g class="cls-10"><polygon class="cls-9" points="934.54 275 684.93 25 934.54 25 934.54 275"/></g><g class="cls-8"><polygon class="cls-9" points="1319.93 150 1469.7 300 1319.93 300 1319.93 150"/></g><g class="cls-8"><polygon class="cls-9" points="624.03 175 723.87 275 624.03 275 624.03 175"/></g><g class="cls-8"><polygon class="cls-9" points="299.53 0 0 300 299.53 300 299.53 0"/></g><g class="cls-10"><polygon class="cls-9" points="0 150 149.77 0 0 0 0 150"/></g><g class="cls-8"><polygon class="cls-9" points="1619.47 0 1919 300 1619.47 300 1619.47 0"/></g><g class="cls-10"><polygon class="cls-9" points="1919 150 1769.23 0 1919 0 1919 150"/></g><g class="cls-10"><polygon class="cls-9" points="1569.55 50 1369.86 250 1569.55 250 1569.55 50"/></g><g class="cls-8"><polygon class="cls-9" points="1319.93 150 1469.7 0 1319.93 0 1319.93 150"/></g><g class="cls-8"><polygon class="cls-9" points="624.03 125 723.87 25 624.03 25 624.03 125"/></g><g class="cls-10"><polygon class="cls-9" points="349.45 50 549.14 250 349.45 250 349.45 50"/></g><g class="cls-10"><polygon class="cls-9" points="934.54 25 684.93 275 934.54 275 934.54 25"/></g><g class="cls-10"><polygon class="cls-9" points="984.46 25 1234.07 275 984.46 275 984.46 25"/></g><g class="cls-8"><polygon class="cls-9" points="599.07 150 449.3 0 599.07 0 599.07 150"/></g><g class="cls-8"><polygon class="cls-9" points="1294.97 125 1195.13 25 1294.97 25 1294.97 125"/></g><text class="cls-11" transform="translate(333.63 164.94) scale(1.26 1)">Nicholas Sc<tspan class="cls-12" x="761.67" y="0">o</tspan><tspan class="cls-13" x="842.4" y="0">t</tspan><tspan x="918.29" y="0">t</tspan></text></g></g></svg>