<svg xmlns="http://www.w3.org/2000/svg" xmlns:xlink="http://www.w3.org/1999/xlink" viewBox="0 0 341.93 341.93"><defs><style>.cls-1,.cls-2,.cls-3,.cls-4,.cls-5,.cls-6,.cls-7{fill:none;stroke-miterlimit:10;}.cls-1,.cls-2,.cls-3,.cls-5,.cls-6,.cls-7{stroke-width:5.91px;}.cls-1{stroke:url(#linear-gradient);}.cls-2{stroke:url(#linear-gradient-2);}.cls-3{stroke:url(#linear-gradient-3);}.cls-4{stroke-width:20px;stroke:url(#linear-gradient-4);}.cls-5{stroke:url(#linear-gradient-5);}.cls-6{stroke:url(#linear-gradient-6);}.cls-7{stroke:url(#linear-gradient-7);}.cls-8{fill:#fff;}.cls-9{fill:url(#linear-gradient-8);}.cls-10{fill:url(#linear-gradient-9);}.cls-11{fill:url(#linear-gradient-10);}.cls-12{fill:url(#linear-gradient-11);}</style><linearGradient id="linear-gradient" x1="196.56" y1="233.8" x2="247.12" y2="233.8" gradientTransform="translate(493.27 404.76) rotate(180)" gradientUnits="userSpaceOnUse"><stop offset="0" stop-color="#fff"/><stop offset="1" stop-opacity="0"/></linearGradient><linearGradient id="linear-gradient-2" x1="394.55" y1="233.8" x2="445.11" y2="233.8" gradientTransform="translate(-349.34 -62.84)" xlink:href="#linear-gradient"/><linearGradient id="linear-gradient-3" x1="422.18" y1="417.13" x2="472.74" y2="417.13" gradientTransform="translate(588.09 -315.95) rotate(90)" xlink:href="#linear-gradient"/><linearGradient id="linear-gradient-4" x1="221.72" y1="403.78" x2="563.65" y2="403.78" gradientTransform="translate(-232.82 563.65) rotate(-90)" xlink:href="#linear-gradient"/><linearGradient id="linear-gradient-5" x1="341.61" y1="314.1" x2="392.16" y2="314.1" gradientTransform="translate(-143.14 553.2) rotate(-90)" xlink:href="#linear-gradient"/><linearGradient id="linear-gradient-6" x1="196.56" y1="233.8" x2="247.12" y2="233.8" gradientTransform="translate(-62.84 493.28) rotate(-90)" xlink:href="#linear-gradient"/><linearGradient id="linear-gradient-7" x1="394.55" y1="233.8" x2="445.11" y2="233.8" gradientTransform="translate(404.76 -349.34) rotate(90)" xlink:href="#linear-gradient"/><linearGradient id="linear-gradient-8" x1="163.1" y1="135.42" x2="163.1" y2="35.42" gradientTransform="translate(-34.57 28.97)" gradientUnits="userSpaceOnUse"><stop offset="0" stop-color="#fff"/><stop offset="0.5" stop-color="#c5c4c4"/><stop offset="1" stop-opacity="0"/></linearGradient><linearGradient id="linear-gradient-9" x1="-78.85" y1="492.63" x2="-78.85" y2="392.63" gradientTransform="translate(292.24 -328.23)" xlink:href="#linear-gradient-8"/><linearGradient id="linear-gradient-10" x1="534.97" y1="530.7" x2="534.97" y2="430.7" gradientTransform="translate(-321.59 -253.17)" xlink:href="#linear-gradient-8"/><linearGradient id="linear-gradient-11" x1="313.02" y1="827.91" x2="313.02" y2="727.91" gradientTransform="translate(-184.49 -550.38)" xlink:href="#linear-gradient-8"/></defs><title>icon_nick_1</title><g id="Layer_2" data-name="Layer 2"><g id="Layer_1-2" data-name="Layer 1"><path class="cls-1" d="M246.16,218.56a47.6,47.6,0,0,0,0-95.19"/><path class="cls-2" d="M95.76,123.37a47.6,47.6,0,1,0,0,95.19"/><path class="cls-3" d="M218.56,156.79a47.6,47.6,0,0,0-95.19,0"/><circle class="cls-4" cx="170.96" cy="170.96" r="160.96"/><path class="cls-5" d="M123.36,161a47.6,47.6,0,1,0,95.19,0"/><path class="cls-6" d="M123.36,246.16a47.6,47.6,0,1,0,95.19,0"/><path class="cls-7" d="M218.55,95.77a47.6,47.6,0,1,0-95.19,0"/><polygon class="cls-8" points="213.38 128.53 199.24 114.39 170.96 142.68 142.67 114.39 128.53 128.53 156.82 156.82 142.67 170.96 128.53 156.82 114.39 142.68 100.25 156.82 71.96 185.1 86.11 199.25 114.39 227.53 128.53 213.39 100.25 185.1 114.39 170.96 128.53 185.1 142.67 199.25 156.82 185.1 170.96 170.96 185.1 185.1 199.24 199.25 213.38 185.1 227.53 170.96 241.67 185.1 213.38 213.39 227.53 227.53 255.81 199.25 269.95 185.1 255.81 170.96 241.67 156.82 227.53 142.68 213.38 156.82 199.24 170.96 185.1 156.82 213.38 128.53"/><rect class="cls-9" x="118.54" y="64.39" width="20" height="100" transform="translate(-43.24 124.39) rotate(-45)"/><rect class="cls-10" x="203.38" y="64.39" width="20" height="100" transform="translate(143.39 -117.38) rotate(45)"/><rect class="cls-11" x="203.38" y="177.53" width="20" height="100" transform="translate(203.38 539.3) rotate(-135)"/><rect class="cls-12" x="118.53" y="177.53" width="20" height="100" transform="translate(380.31 297.53) rotate(135)"/></g></g></svg>