<svg xmlns="http://www.w3.org/2000/svg" viewBox="0 0 327.17 192.85"><defs><style>.cls-1,.cls-2,.cls-4,.cls-5{fill:none;stroke:#fff;stroke-miterlimit:10;}.cls-1{stroke-width:5.85px;}.cls-2{stroke-width:10px;}.cls-3{fill:#fff;}.cls-4{stroke-width:1.44px;}.cls-5{stroke-width:1.6px;}</style></defs><title>icon_software</title><g id="Layer_2" data-name="Layer 2"><g id="Layer_1-2" data-name="Layer 1"><rect class="cls-1" x="2.92" y="2.92" width="321.32" height="160.66" rx="13.17" ry="13.17"/><path class="cls-1" d="M190.43,189.92H136.74c-13.17,0-13.17,0-13.17-13.17h0c0-7.24,32.77-13.17,40-13.17h0c7.24,0,40,5.93,40,13.17h0C203.6,189.92,203.6,189.92,190.43,189.92Z"/><circle class="cls-2" cx="126.34" cy="105.08" r="20.67"/><polygon class="cls-3" points="147 110.83 147 99.33 159.5 99.88 159.5 110.28 147 110.83"/><polygon class="cls-3" points="120.59 125.75 132.09 125.75 131.54 138.25 121.13 138.25 120.59 125.75"/><polygon class="cls-3" points="106.67 100.33 106.67 111.83 94.17 111.28 94.17 100.88 106.67 100.33"/><polygon class="cls-3" points="133.09 85.42 121.59 85.42 122.13 72.92 132.54 72.92 133.09 85.42"/><polygon class="cls-3" points="137.39 123.55 145.52 115.42 153.97 124.65 146.61 132.01 137.39 123.55"/><polygon class="cls-3" points="108.16 115.42 116.29 123.55 107.06 132.01 99.71 124.65 108.16 115.42"/><polygon class="cls-3" points="116.29 87.61 108.16 95.74 99.71 86.52 107.06 79.16 116.29 87.61"/><polygon class="cls-3" points="145.52 95.74 137.39 87.61 146.61 79.16 153.97 86.52 145.52 95.74"/><circle class="cls-4" cx="203.62" cy="76.3" r="29.8" transform="translate(-8.7 29.35) rotate(-8.07)"/><polygon class="cls-3" points="215.96 56.94 220.21 60.13 214.16 67.76 210.32 64.87 215.96 56.94"/><polygon class="cls-3" points="191.22 95.72 186.98 92.52 193.07 84.83 196.92 87.72 191.22 95.72"/><circle class="cls-5" cx="203.62" cy="76.3" r="6.6" transform="translate(-8.7 29.35) rotate(-8.07)"/></g></g></svg>