<svg xmlns="http://www.w3.org/2000/svg" viewBox="0 0 50 77.16"><defs><style>.cls-1{fill:#fff;}.cls-2,.cls-3{fill:none;stroke:#fff;stroke-width:2.11px;}.cls-2{stroke-linecap:round;stroke-linejoin:bevel;}.cls-3{stroke-miterlimit:10;}</style></defs><title>icon_nick</title><g id="Layer_2" data-name="Layer 2"><g id="Layer_1-2" data-name="Layer 1"><path class="cls-1" d="M9.69,9.54c.44,4.84.67,9.68.82,14.53s.21,9.68.23,14.53-.06,9.68-.23,14.53-.38,9.68-.83,14.53C9.25,62.8,9,58,8.87,53.12s-.21-9.68-.23-14.53.07-9.68.23-14.53S9.26,14.38,9.69,9.54Z"/><polyline class="cls-2" points="40.31 9.54 40.31 38.59 40.31 67.64 25 38.59 9.69 9.54 9.69 38.59 9.69 67.64"/><path class="cls-1" d="M0,1.1A59.35,59.35,0,0,1,8.13,19a74.6,74.6,0,0,1,2.62,19.6,74.52,74.52,0,0,1-2.61,19.6A59.26,59.26,0,0,1,0,76.08,77.83,77.83,0,0,0,6.54,57.79a87.82,87.82,0,0,0,2.1-19.2,87.69,87.69,0,0,0-2.1-19.2A77.67,77.67,0,0,0,0,1.1Z"/><path class="cls-1" d="M40.31,9.54c.44,4.84.67,9.68.82,14.53s.21,9.68.23,14.53-.06,9.68-.23,14.53-.38,9.68-.83,14.53c-.44-4.84-.67-9.68-.83-14.53s-.21-9.68-.23-14.53.07-9.68.23-14.53S39.87,14.38,40.31,9.54Z"/><path class="cls-1" d="M50,1.1a77.67,77.67,0,0,0-6.54,18.29,88.82,88.82,0,0,0,0,38.4A77.83,77.83,0,0,0,50,76.08a59.26,59.26,0,0,1-8.14-17.89,74.74,74.74,0,0,1,0-39.2A59.34,59.34,0,0,1,50,1.1Z"/><path class="cls-1" d="M33,6.44a25.79,25.79,0,0,0-3.83-3A8.34,8.34,0,0,0,25,2.16a8.37,8.37,0,0,0-4.12,1.27,26,26,0,0,0-3.83,3A10.08,10.08,0,0,1,19.89,2.1,7.78,7.78,0,0,1,25,0,7.79,7.79,0,0,1,30.1,2.1,10.12,10.12,0,0,1,33,6.44Z"/><path class="cls-1" d="M17,70.74a21.64,21.64,0,0,0,3.82,2.89A8.81,8.81,0,0,0,25,74.78a8.83,8.83,0,0,0,4.13-1.16A21.82,21.82,0,0,0,33,70.74,9.33,9.33,0,0,1,30.07,75a7.66,7.66,0,0,1-10.14,0A9.36,9.36,0,0,1,17,70.74Z"/><path class="cls-3" d="M40.31,9.54"/><path class="cls-3" d="M9.69,9.54"/><path class="cls-3" d="M9.69,9.54C9.69,4.88,16.55,1.1,25,1.1S40.31,4.88,40.31,9.54"/><path class="cls-3" d="M40.31,67.64c0,4.66-6.85,8.44-15.31,8.44S9.69,72.3,9.69,67.64"/><path class="cls-1" d="M37.93,52.84c-2.9-4.31-5.64-8.72-8.47-13-.71-1.07-1.43-2.14-2.17-3.18a24.44,24.44,0,0,0-2.3-2.9,2.61,2.61,0,0,0-.47-.38h0a.36.36,0,0,0,.12,0c.06,0,.06,0,.17,0a.5.5,0,0,0,.25-.11c.06-.05.1-.06.14-.11s.06-.12.06-.1,0,0,0,0a6.49,6.49,0,0,0,.07,1.58c.17,1.22.42,2.49.67,3.76s.48,2.55.65,3.9c0,.34.07.68.09,1a4.72,4.72,0,0,1-.08,1.25,1.67,1.67,0,0,1-.16.46,2.73,2.73,0,0,1-.16.27,1.66,1.66,0,0,1-.35.31,1.39,1.39,0,0,1-.9.21,2.5,2.5,0,0,1-.56-.17,3.87,3.87,0,0,1-1-.82,24.29,24.29,0,0,1-2.41-3.27c-.72-1.1-1.39-2.22-2-3.36-2.59-4.52-4.93-9.15-7.07-13.89,2.9,4.31,5.64,8.72,8.47,13,.71,1.07,1.44,2.14,2.16,3.18a22.85,22.85,0,0,0,2.3,2.9,2.92,2.92,0,0,0,.48.4.12.12,0,0,0-.1,0,.66.66,0,0,0-.44.1.5.5,0,0,0-.16.16l0,.05c0,.07,0,0,0,0a3.11,3.11,0,0,0,0-.69c0-.28,0-.58-.09-.89-.16-1.22-.43-2.49-.67-3.75s-.48-2.56-.65-3.9a7.56,7.56,0,0,1,0-2.29,2.44,2.44,0,0,1,.16-.45,1.6,1.6,0,0,1,.49-.58,1.73,1.73,0,0,1,.48-.2,1.08,1.08,0,0,1,.41,0,1.74,1.74,0,0,1,.36.07l.21.1a3.74,3.74,0,0,1,1,.82,25.81,25.81,0,0,1,2.41,3.26c.72,1.1,1.39,2.22,2,3.36C33.46,43.47,35.8,48.1,37.93,52.84Z"/><path class="cls-1" d="M50,22a26.58,26.58,0,0,1-3.15.59c-.52.07-1,.14-1.57.19s-1,.11-1.57.14l.85-.57a40.12,40.12,0,0,0-2,8,51.77,51.77,0,0,0-.62,8.29,52,52,0,0,0,.63,8.29,40.34,40.34,0,0,0,2,8l-.85-.58c.52,0,1,.09,1.57.13s1,.12,1.57.19a26.33,26.33,0,0,1,3.15.59,26.33,26.33,0,0,1-3.15.59c-.52.07-1,.14-1.57.19s-1,.11-1.57.13l-.6,0-.25-.6a45.58,45.58,0,0,1-3.08-17,45.6,45.6,0,0,1,3.09-17l.25-.6.6,0c.52,0,1,.09,1.57.14s1,.12,1.57.19A26.58,26.58,0,0,1,50,22Z"/><path class="cls-1" d="M0,55.23a29.54,29.54,0,0,1,3.33-.59c.55-.07,1.11-.14,1.66-.19s1.11-.11,1.66-.14l-.84.56a38.27,38.27,0,0,0,2.16-8,49,49,0,0,0,.66-8.3A49.16,49.16,0,0,0,8,30.29a38.46,38.46,0,0,0-2.16-8l.84.56c-.55,0-1.11-.09-1.66-.13s-1.11-.12-1.66-.19A29.27,29.27,0,0,1,0,22a29.26,29.26,0,0,1,3.33-.59c.55-.07,1.11-.14,1.66-.19S6.1,21.06,6.65,21l.59,0,.25.58a43.49,43.49,0,0,1,3.26,17,43.51,43.51,0,0,1-3.26,17l-.25.58-.59,0C6.1,56.12,5.54,56,5,56s-1.11-.12-1.66-.19A29.54,29.54,0,0,1,0,55.23Z"/><path class="cls-1" d="M25,55.21c-.34,3.91-.38,7.63-.37,11.05,0,1.72,0,3.35-.07,5s-.19,3.26-.31,4.92l-1-1.14h.26s.1,0,0,0-.12.07-.16.13,0,0,0,0a5.61,5.61,0,0,0,.18-1.06c.09-.84.11-1.75.16-2.64.11-1.79.16-3.6.29-5.4s.25-3.61.42-5.41c.1-.9.17-1.83.31-2.6A16,16,0,0,0,25,55.21Zm0,0a19.17,19.17,0,0,0,.22,2.62c.09,1,.12,1.9.18,2.81.08,1.81.16,3.61.2,5.42s.05,3.61.06,5.43c0,.91,0,1.81-.11,2.77a6.93,6.93,0,0,1-.28,1.6,2.41,2.41,0,0,1-.3.57,1.63,1.63,0,0,1-.68.54,1.87,1.87,0,0,1-.67.16h-.42l-1.16,0L22.13,76c.18-1.82.35-3.67.59-5.52s.51-3.69.83-5.44C24.16,61.49,24.71,58.26,25,55.21Z"/><path class="cls-1" d="M25,55.21a16,16,0,0,0,.35,2.8c.14.77.2,1.71.3,2.6.16,1.8.31,3.61.41,5.41s.18,3.61.29,5.4c0,.89.07,1.8.16,2.64a5.62,5.62,0,0,0,.18,1.06s0,.08,0,0-.1-.08-.16-.13,0,0,0,0h.26l-1.05,1.15c-.12-1.66-.25-3.28-.31-4.92s-.09-3.27-.07-5C25.35,62.85,25.31,59.12,25,55.21Zm0,0c.26,3,.82,6.28,1.43,9.82.32,1.76.58,3.61.83,5.44s.41,3.7.59,5.52l.11,1.17-1.17,0h-.42a1.93,1.93,0,0,1-.67-.16,1.62,1.62,0,0,1-.68-.54,2.41,2.41,0,0,1-.3-.57,6.93,6.93,0,0,1-.28-1.6c-.08-1-.09-1.86-.11-2.77,0-1.82,0-3.62.06-5.43s.12-3.61.2-5.42c.06-.91.09-1.78.18-2.81A19.26,19.26,0,0,0,25,55.21Z"/><path class="cls-1" d="M25,22c.34-3.91.38-7.63.37-11.05,0-1.72,0-3.35.07-5s.19-3.26.31-4.92l1,1.14h-.26s-.1,0,0,0,.12-.07.16-.13,0,0,0,0a5.62,5.62,0,0,0-.18,1.06c-.09.84-.11,1.75-.16,2.64-.11,1.79-.16,3.6-.29,5.4s-.25,3.61-.42,5.41c-.1.9-.17,1.83-.31,2.6A16,16,0,0,0,25,22Zm0,0a19.17,19.17,0,0,0-.22-2.62c-.09-1-.12-1.9-.18-2.81-.08-1.81-.16-3.61-.2-5.42s-.05-3.61-.06-5.43c0-.91,0-1.81.11-2.77a6.93,6.93,0,0,1,.28-1.6A2.41,2.41,0,0,1,25,.74,1.63,1.63,0,0,1,25.68.2,1.87,1.87,0,0,1,26.35,0h.42l1.16,0-.11,1.17c-.18,1.82-.35,3.67-.59,5.52s-.51,3.69-.83,5.44C25.79,15.67,25.23,18.9,25,22Z"/><path class="cls-1" d="M25,22a16,16,0,0,0-.35-2.8c-.14-.77-.2-1.71-.3-2.6-.16-1.8-.31-3.61-.41-5.41s-.18-3.61-.29-5.4c0-.89-.07-1.8-.16-2.64A5.62,5.62,0,0,0,23.27,2s0-.08,0,0,.1.08.16.13,0,0,0,0h-.26L24.23,1c.12,1.66.25,3.28.31,4.92s.09,3.27.07,5C24.59,14.31,24.64,18,25,22Zm0,0c-.26-3-.82-6.28-1.43-9.82-.32-1.76-.58-3.61-.83-5.44S22.3,3,22.12,1.17L22,0l1.17,0h.42a1.93,1.93,0,0,1,.67.16,1.62,1.62,0,0,1,.68.54,2.41,2.41,0,0,1,.3.57,6.92,6.92,0,0,1,.28,1.6c.08,1,.09,1.86.11,2.77,0,1.82,0,3.62-.06,5.43s-.12,3.61-.2,5.42c-.06.91-.09,1.78-.18,2.81A19.25,19.25,0,0,0,25,22Z"/></g></g></svg>