<svg xmlns="http://www.w3.org/2000/svg" viewBox="0 0 327.17 192.85"><defs><style>.cls-1,.cls-2,.cls-4,.cls-5,.cls-6{fill:none;stroke:#fff;stroke-miterlimit:10;}.cls-1{stroke-width:5.85px;}.cls-2{stroke-width:4.07px;}.cls-3{fill:#fff;}.cls-4{stroke-width:3.35px;}.cls-5{stroke-width:1.07px;}.cls-6{stroke-width:4.34px;}</style></defs><title>icon_software_1</title><g id="Layer_2" data-name="Layer 2"><g id="Layer_1-2" data-name="Layer 1"><rect class="cls-1" x="2.92" y="2.92" width="321.32" height="160.66" rx="13.17" ry="13.17"/><path class="cls-1" d="M190.43,189.92H136.74c-13.17,0-13.17,0-13.17-13.17h0c0-7.24,32.77-13.17,40-13.17h0c7.24,0,40,5.93,40,13.17h0C203.6,189.92,203.6,189.92,190.43,189.92Z"/><circle class="cls-2" cx="140.83" cy="98.01" r="8.41"/><polygon class="cls-3" points="149.24 100.35 149.24 95.67 154.33 95.89 154.33 100.13 149.24 100.35"/><polygon class="cls-3" points="138.5 106.42 143.17 106.42 142.95 111.5 138.72 111.5 138.5 106.42"/><polygon class="cls-3" points="132.84 96.08 132.84 100.76 127.75 100.53 127.75 96.3 132.84 96.08"/><polygon class="cls-3" points="143.58 90.01 138.9 90.01 139.13 84.93 143.36 84.93 143.58 90.01"/><polygon class="cls-3" points="145.33 105.53 148.64 102.22 152.07 105.97 149.08 108.96 145.33 105.53"/><polygon class="cls-3" points="133.44 102.22 136.75 105.53 133 108.96 130 105.97 133.44 102.22"/><polygon class="cls-3" points="136.75 90.9 133.44 94.21 130 90.46 133 87.47 136.75 90.9"/><polygon class="cls-3" points="148.64 94.21 145.33 90.9 149.08 87.47 152.07 90.46 148.64 94.21"/><circle class="cls-2" cx="133.36" cy="74.76" r="8.41" transform="translate(-14.38 35.44) rotate(-14.37)"/><polygon class="cls-3" points="142.09 74.94 140.93 70.41 145.91 69.36 146.96 73.46 142.09 74.94"/><polygon class="cls-3" points="133.18 83.48 137.72 82.32 138.76 87.3 134.66 88.35 133.18 83.48"/><polygon class="cls-3" points="125.14 74.87 126.3 79.4 121.31 80.45 120.26 76.35 125.14 74.87"/><polygon class="cls-3" points="134.04 66.33 129.51 67.49 128.46 62.51 132.56 61.46 134.04 66.33"/><polygon class="cls-3" points="139.58 80.92 141.97 76.9 146.23 79.68 144.07 83.32 139.58 80.92"/><polygon class="cls-3" points="127.24 80.67 131.27 83.05 128.49 87.31 124.84 85.16 127.24 80.67"/><polygon class="cls-3" points="127.64 68.89 125.26 72.91 121 70.13 123.15 66.49 127.64 68.89"/><polygon class="cls-3" points="139.98 69.14 135.95 66.76 138.74 62.5 142.38 64.65 139.98 69.14"/><circle class="cls-4" cx="178.02" cy="87.31" r="19.98" transform="translate(-10.5 25.87) rotate(-8.07)"/><circle class="cls-5" cx="178.02" cy="87.31" r="4.43" transform="translate(-10.5 25.87) rotate(-8.07)"/><circle class="cls-6" cx="158.25" cy="80.45" r="58.57"/><circle class="cls-3" cx="216.83" cy="83.25" r="8.84"/><circle class="cls-3" cx="99.68" cy="83.25" r="8.84"/></g></g></svg>