<svg xmlns="http://www.w3.org/2000/svg" xmlns:xlink="http://www.w3.org/1999/xlink" viewBox="0 0 300 300"><defs><style>.cls-1{fill:#1a1a1a;}.cls-2{fill:url(#linear-gradient);}.cls-3{fill:url(#linear-gradient-2);}.cls-4{fill:url(#linear-gradient-3);}.cls-5{fill:url(#linear-gradient-4);}.cls-6{fill:#fff;}.cls-10,.cls-11,.cls-12,.cls-13,.cls-14,.cls-15,.cls-16,.cls-17,.cls-18,.cls-19,.cls-20,.cls-7,.cls-8,.cls-9{fill:none;stroke-miterlimit:10;}.cls-10,.cls-11,.cls-12,.cls-13,.cls-15,.cls-16,.cls-17,.cls-18,.cls-19,.cls-20,.cls-7,.cls-8{stroke-width:4.45px;}.cls-7{stroke:url(#linear-gradient-5);}.cls-8{stroke:url(#linear-gradient-6);}.cls-9{stroke:#fff;stroke-width:1.59px;}.cls-10{stroke:url(#linear-gradient-7);}.cls-11{stroke:url(#linear-gradient-8);}.cls-12{stroke:url(#linear-gradient-9);}.cls-13{stroke:url(#linear-gradient-10);}.cls-14{stroke-width:15.06px;stroke:url(#linear-gradient-11);}.cls-15{stroke:url(#linear-gradient-12);}.cls-16{stroke:url(#linear-gradient-13);}.cls-17{stroke:url(#linear-gradient-14);}.cls-18{stroke:url(#linear-gradient-15);}.cls-19{stroke:url(#linear-gradient-17);}.cls-20{stroke:url(#linear-gradient-18);}</style><linearGradient id="linear-gradient" x1="-830.03" y1="-2366.81" x2="-830.03" y2="-2442.97" gradientTransform="translate(936.14 1586.69) scale(1 0.6)" gradientUnits="userSpaceOnUse"><stop offset="0" stop-color="#fff"/><stop offset="0.25" stop-color="#c5c4c4"/><stop offset="1" stop-opacity="0"/></linearGradient><linearGradient id="linear-gradient-2" x1="1576.18" y1="-100.02" x2="1576.18" y2="-176.17" gradientTransform="translate(-1383.8 223.34) scale(1 0.6)" xlink:href="#linear-gradient"/><linearGradient id="linear-gradient-3" x1="3914.35" y1="-398.45" x2="3914.35" y2="-474.6" gradientTransform="translate(-3789.47 382.63) scale(1 0.5)" xlink:href="#linear-gradient"/><linearGradient id="linear-gradient-4" x1="1550.52" y1="-2595.36" x2="1550.52" y2="-2671.51" gradientTransform="translate(-1377.13 1481.03) scale(1 0.5)" xlink:href="#linear-gradient"/><linearGradient id="linear-gradient-5" x1="2888.05" y1="-3590.23" x2="2926.12" y2="-3590.23" gradientTransform="translate(3132.74 -3440.23) rotate(180)" gradientUnits="userSpaceOnUse"><stop offset="0" stop-color="#fff"/><stop offset="1" stop-opacity="0"/></linearGradient><linearGradient id="linear-gradient-6" x1="404.64" y1="212.84" x2="442.71" y2="212.84" gradientTransform="translate(-349.34 -62.84)" xlink:href="#linear-gradient-5"/><linearGradient id="linear-gradient-7" x1="-354.18" y1="-3029.39" x2="-316.11" y2="-3029.39" gradientTransform="translate(3179.39 -109.48) rotate(-90)" xlink:href="#linear-gradient-5"/><linearGradient id="linear-gradient-8" x1="2095.31" y1="169.59" x2="2133.38" y2="169.59" gradientTransform="translate(-1158.82 -1398.65) rotate(45)" xlink:href="#linear-gradient-5"/><linearGradient id="linear-gradient-9" x1="762.23" y1="-4001.34" x2="800.3" y2="-4001.34" gradientTransform="translate(3465.47 -2193.28) rotate(-135)" xlink:href="#linear-gradient-5"/><linearGradient id="linear-gradient-10" x1="3646.87" y1="-348" x2="3684.94" y2="-348" gradientTransform="translate(-198 -3591.57) rotate(90)" xlink:href="#linear-gradient-5"/><linearGradient id="linear-gradient-11" x1="-317.86" y1="-2859.41" x2="-60.37" y2="-2859.41" gradientTransform="translate(3009.41 -39.11) rotate(-90)" xlink:href="#linear-gradient-5"/><linearGradient id="linear-gradient-12" x1="3577.07" y1="-2519.59" x2="3615.14" y2="-2519.59" gradientTransform="translate(844.87 -4108.1) rotate(135)" xlink:href="#linear-gradient-5"/><linearGradient id="linear-gradient-13" x1="-719.52" y1="-1312.17" x2="-681.45" y2="-1312.17" gradientTransform="translate(1639.5 516.18) rotate(-45)" xlink:href="#linear-gradient-5"/><linearGradient id="linear-gradient-14" x1="-725.46" y1="-2963.63" x2="-687.39" y2="-2963.63" gradientTransform="translate(3113.63 -460.37) rotate(-90)" xlink:href="#linear-gradient-5"/><linearGradient id="linear-gradient-15" x1="3626.7" y1="-348" x2="3664.77" y2="-348" gradientTransform="translate(-198 -3591.57) rotate(90)" xlink:href="#linear-gradient-5"/><linearGradient id="linear-gradient-17" x1="128.28" y1="-14.38" x2="166.35" y2="-14.38" gradientTransform="translate(-93.26 164.49)" xlink:href="#linear-gradient-5"/><linearGradient id="linear-gradient-18" x1="2772.97" y1="-3297.25" x2="2811.03" y2="-3297.25" gradientTransform="translate(3037.94 -3147.15) rotate(180)" xlink:href="#linear-gradient-5"/></defs><title>icon_nick3</title><g id="Layer_2" data-name="Layer 2"><g id="Layer_1-2" data-name="Layer 1"><circle class="cls-1" cx="150" cy="150" r="150"/><rect class="cls-2" x="98.49" y="117.28" width="15.23" height="45.81" transform="translate(82 314.33) rotate(-135)"/><rect class="cls-3" x="184.76" y="117.13" width="15.23" height="45.91" transform="translate(427.47 103.11) rotate(135)"/><rect class="cls-4" x="117.27" y="145.33" width="15.23" height="38.08" transform="translate(152.8 -40.17) rotate(45)"/><rect class="cls-5" x="165.77" y="145.27" width="15.23" height="38.08" transform="translate(-65.4 170.73) rotate(-45)"/><path class="cls-6" d="M181.47,118.54,170.7,107.77l-21.54,21.54-21.54-21.54-10.77,10.77,21.54,21.54h0a15.23,15.23,0,0,1-21.54,0h0a15.23,15.23,0,0,0-21.54,0h0L73.77,161.62l10.77,10.77,21.54,21.54,10.77-10.77L95.31,161.62h0a15.23,15.23,0,0,1,21.54,0h0a15.23,15.23,0,0,0,21.54,0h0a15.23,15.23,0,0,1,21.54,0h0a15.23,15.23,0,0,0,21.54,0h0a15.23,15.23,0,0,1,21.54,0h0l-21.54,21.54,10.77,10.77,21.54-21.54,10.77-10.77-10.77-10.77L203,140.08h0a15.23,15.23,0,0,0-21.54,0h0a15.23,15.23,0,0,1-21.54,0h0Z"/><path class="cls-7" d="M206.62,185.84a35.84,35.84,0,0,0,0-71.68"/><path class="cls-8" d="M93.37,114.16a35.84,35.84,0,1,0,0,71.68"/><path class="cls-9" d="M51.84,198.72"/><path class="cls-10" d="M114.15,206.63a35.84,35.84,0,0,0,71.68,0"/><path class="cls-11" d="M255.14,204.46a35.84,35.84,0,0,0-50.69,50.69"/><path class="cls-12" d="M44.85,95.54A35.84,35.84,0,1,0,95.54,44.86"/><path class="cls-13" d="M185.84,93.37a35.84,35.84,0,0,0-71.68,0"/><circle class="cls-14" cx="150" cy="150" r="121.21"/><path class="cls-15" d="M95.54,255.14a35.84,35.84,0,0,0-50.69-50.69"/><path class="cls-16" d="M204.45,44.86a35.84,35.84,0,0,0,50.69,50.69"/><path class="cls-17" d="M114.15,227a35.84,35.84,0,0,0,71.68,0"/><path class="cls-18" d="M185.84,73.2a35.84,35.84,0,0,0-71.68,0"/><path class="cls-7" d="M206.62,185.84a35.84,35.84,0,0,0,0-71.68"/><path class="cls-19" d="M73.09,114.26a35.84,35.84,0,1,0,0,71.68"/><path class="cls-20" d="M226.9,185.95a35.84,35.84,0,0,0,0-71.68"/></g></g></svg>