<svg xmlns="http://www.w3.org/2000/svg" viewBox="0 0 59.33 59.33"><defs><style>.cls-1{fill:#fff;}</style></defs><title>icon_nick_1</title><g id="Layer_2" data-name="Layer 2"><g id="Layer_1-2" data-name="Layer 1"><path class="cls-1" d="M40.87,11.2a2.52,2.52,0,0,0-1.82,2.46v0c-2.46.52-4.9,1.15-7.33,1.83a70.24,70.24,0,0,0-7.7,2.7l-4.18-6a2.49,2.49,0,0,0-3.23-.77,2.61,2.61,0,0,0-1.29,2.32V47.87a2.49,2.49,0,0,0,3.15,2.4,2.52,2.52,0,0,0,1.82-2.46v-.05c2.44-.52,4.86-1.14,7.28-1.82a70.57,70.57,0,0,0,7.73-2.72l4.2,6.07a2.48,2.48,0,0,0,3.1.83A2.6,2.6,0,0,0,44,47.74V13.59A2.49,2.49,0,0,0,40.87,11.2ZM20.28,24.4l0-.06a6.79,6.79,0,0,1,1.12-1.13L24,27a18.21,18.21,0,0,1-2.78-1.21,4.4,4.4,0,0,1-1-.71ZM31.37,42.07c-1.46.74-3,1.42-4.46,2.1-2.19,1-4.41,2-6.62,3V29.4a30.51,30.51,0,0,0,4,1.68c1.12.38,2.23.72,3.34,1.05l6.06,8.75C32.92,41.29,32.15,41.68,31.37,42.07ZM39.05,37l-.08.14a6.76,6.76,0,0,1-1.1,1.1L35.3,34.5A20.14,20.14,0,0,1,38,35.68a4.23,4.23,0,0,1,1,.76Zm0-4.89A29.12,29.12,0,0,0,35,30.38c-1.1-.38-2.19-.71-3.28-1l-6.08-8.78c2.17-1.16,4.44-2.23,6.73-3.27s4.44-2,6.68-3Z"/><path class="cls-1" d="M29.67,0A29.67,29.67,0,1,0,59.33,29.67,29.67,29.67,0,0,0,29.67,0ZM47.21,45.78A7.18,7.18,0,0,1,40,53H19.31a7.18,7.18,0,0,1-7.18-7.18V15.69a7.18,7.18,0,0,1,7.18-7.18H40a7.18,7.18,0,0,1,7.18,7.18Z"/></g></g></svg>