<svg xmlns="http://www.w3.org/2000/svg" viewBox="0 0 86 187"><defs><style>.cls-1{fill:#fff;}.cls-2{fill:#1a1a1a;}.cls-3{fill:none;stroke:#fff;stroke-miterlimit:10;stroke-width:1.72px;}</style></defs><title>icon_mobile_4</title><g id="Layer_2" data-name="Layer 2"><g id="Layer_1-2" data-name="Layer 1"><path class="cls-1" d="M84.23,19.77V175.85c0,5.17-3.74,9.38-8.33,9.38H10.1c-4.59,0-8.33-4.21-8.33-9.38V19.77H84.23M86,18H0V175.85C0,182,4.54,187,10.1,187H75.9c5.55,0,10.1-5,10.1-11.15V18Z"/><path class="cls-1" d="M75.9,0H10.1C4.54,0,0,5,0,11.15V19H86V11.15C86,5,81.46,0,75.9,0Z"/><path class="cls-1" d="M10.1,186H75.9c5.55,0,10.1-5.28,10.1-11.74V166H0v8.26C0,180.72,4.54,186,10.1,186Z"/><rect class="cls-2" x="37.2" y="169" width="13" height="13" rx="6.5" ry="6.5"/><rect class="cls-2" x="53.2" y="6" width="8" height="8" rx="4" ry="4"/><rect class="cls-2" x="26.2" y="7" width="13" height="6" rx="3" ry="3"/><circle class="cls-3" cx="34.39" cy="85.45" r="23.23" transform="translate(-50.35 49.34) rotate(-45)"/><circle class="cls-1" cx="57.23" cy="80" r="3.51" transform="translate(-39.81 63.9) rotate(-45)"/><circle class="cls-3" cx="51.6" cy="102.66" r="23.23" transform="translate(-57.48 66.56) rotate(-45)"/><circle class="cls-1" cx="29.55" cy="108.68" r="3.51" transform="translate(-68.19 52.73) rotate(-45)"/><circle class="cls-3" cx="51.6" cy="85.34" r="23.23" transform="translate(-45.23 61.49) rotate(-45)"/><circle class="cls-1" cx="57.04" cy="108.18" r="3.51" transform="translate(-59.79 72.02) rotate(-45)"/><circle class="cls-3" cx="34.39" cy="102.55" r="23.23" transform="translate(-62.44 54.36) rotate(-45)"/><circle class="cls-1" cx="28.37" cy="80.5" r="3.51" transform="translate(-48.61 43.64) rotate(-45)"/></g></g></svg>