<svg xmlns="http://www.w3.org/2000/svg" xmlns:xlink="http://www.w3.org/1999/xlink" viewBox="0 0 341.93 341.93"><defs><style>.cls-1,.cls-2,.cls-3,.cls-5,.cls-6,.cls-7{fill:none;stroke-width:5.91px;}.cls-1,.cls-2,.cls-3,.cls-4,.cls-5,.cls-6,.cls-7{stroke-miterlimit:10;}.cls-1{stroke:url(#linear-gradient);}.cls-2{stroke:url(#linear-gradient-2);}.cls-3{stroke:url(#linear-gradient-3);}.cls-4{stroke-width:20px;fill:url(#linear-gradient-4);stroke:url(#linear-gradient-5);}.cls-5{stroke:url(#linear-gradient-6);}.cls-6{stroke:url(#linear-gradient-7);}.cls-7{stroke:url(#linear-gradient-8);}.cls-8{fill:#fff;}.cls-9{fill:url(#linear-gradient-9);}.cls-10{fill:url(#linear-gradient-10);}.cls-11{fill:url(#linear-gradient-11);}.cls-12{fill:url(#linear-gradient-12);}</style><linearGradient id="linear-gradient" x1="25.04" y1="-556.39" x2="75.59" y2="-556.39" gradientTransform="translate(321.75 -385.42) rotate(180)" gradientUnits="userSpaceOnUse"><stop offset="0" stop-color="#fff"/><stop offset="1" stop-opacity="0"/></linearGradient><linearGradient id="linear-gradient-2" x1="394.55" y1="233.8" x2="445.11" y2="233.8" gradientTransform="translate(-349.34 -62.84)" xlink:href="#linear-gradient"/><linearGradient id="linear-gradient-3" x1="731.52" y1="-63.72" x2="782.07" y2="-63.72" gradientTransform="translate(107.24 -625.28) rotate(90)" xlink:href="#linear-gradient"/><linearGradient id="linear-gradient-4" x1="170.96" y1="331.93" x2="170.96" y2="10" gradientTransform="matrix(1, 0, 0, 1, 0, 0)" xlink:href="#linear-gradient"/><linearGradient id="linear-gradient-5" x1="-259.13" y1="94.45" x2="82.79" y2="94.45" gradientTransform="translate(76.51 82.79) rotate(-90)" xlink:href="#linear-gradient"/><linearGradient id="linear-gradient-6" x1="-139.24" y1="4.77" x2="-88.69" y2="4.77" gradientTransform="translate(166.19 72.34) rotate(-90)" xlink:href="#linear-gradient"/><linearGradient id="linear-gradient-7" x1="-284.29" y1="-75.53" x2="-233.74" y2="-75.53" gradientTransform="translate(246.49 12.42) rotate(-90)" xlink:href="#linear-gradient"/><linearGradient id="linear-gradient-8" x1="703.88" y1="-247.05" x2="754.44" y2="-247.05" gradientTransform="translate(-76.1 -658.67) rotate(90)" xlink:href="#linear-gradient"/><linearGradient id="linear-gradient-9" x1="-141.39" y1="80.34" x2="-141.39" y2="-19.66" gradientTransform="translate(269.92 84.05)" gradientUnits="userSpaceOnUse"><stop offset="0" stop-color="#fff"/><stop offset="0.5" stop-color="#c5c4c4"/><stop offset="1" stop-opacity="0"/></linearGradient><linearGradient id="linear-gradient-10" x1="175.4" y1="316.26" x2="175.4" y2="216.26" gradientTransform="translate(37.98 -151.87)" xlink:href="#linear-gradient-9"/><linearGradient id="linear-gradient-11" x1="109.2" y1="-83.12" x2="109.2" y2="-183.12" gradientTransform="translate(104.19 360.65)" xlink:href="#linear-gradient-9"/><linearGradient id="linear-gradient-12" x1="445.99" y1="92.8" x2="445.99" y2="-7.2" gradientTransform="translate(-317.46 184.73)" xlink:href="#linear-gradient-9"/></defs><title>icon_nick_2</title><g id="Layer_2" data-name="Layer 2"><g id="Layer_1-2" data-name="Layer 1"><path class="cls-1" d="M246.16,218.56a47.6,47.6,0,0,0,0-95.19"/><path class="cls-2" d="M95.76,123.37a47.6,47.6,0,1,0,0,95.19"/><path class="cls-3" d="M218.56,156.79a47.6,47.6,0,0,0-95.19,0"/><circle class="cls-4" cx="170.96" cy="170.96" r="160.96"/><path class="cls-5" d="M123.36,161a47.6,47.6,0,1,0,95.19,0"/><path class="cls-6" d="M123.36,246.16a47.6,47.6,0,1,0,95.19,0"/><path class="cls-7" d="M218.55,95.77a47.6,47.6,0,1,0-95.19,0"/><polygon class="cls-8" points="213.38 128.53 199.24 114.39 170.96 142.68 142.67 114.39 128.53 128.53 156.82 156.82 142.67 170.96 128.53 156.82 114.39 142.68 100.25 156.82 71.96 185.1 86.11 199.25 114.39 227.53 128.53 213.39 100.25 185.1 114.39 170.96 128.53 185.1 142.67 199.25 156.82 185.1 170.96 170.96 185.1 185.1 199.24 199.25 213.38 185.1 227.53 170.96 241.67 185.1 213.38 213.39 227.53 227.53 255.81 199.25 269.95 185.1 255.81 170.96 241.67 156.82 227.53 142.68 213.38 156.82 199.24 170.96 185.1 156.82 213.38 128.53"/><rect class="cls-9" x="118.54" y="64.39" width="20" height="100" transform="translate(-43.24 124.39) rotate(-45)"/><rect class="cls-10" x="203.38" y="64.39" width="20" height="100" transform="translate(143.39 -117.38) rotate(45)"/><rect class="cls-11" x="203.38" y="177.53" width="20" height="100" transform="translate(203.38 539.3) rotate(-135)"/><rect class="cls-12" x="118.53" y="177.53" width="20" height="100" transform="translate(380.31 297.53) rotate(135)"/></g></g></svg>